<?xml version="1.0"?>
<svg xmlns="http://www.w3.org/2000/svg" xmlns:xlink="http://www.w3.org/1999/xlink" xmlns:svgjs="http://svgjs.com/svgjs" version="1.1" width="512" height="512" x="0" y="0" viewBox="0 0 488.8 488.8" style="enable-background:new 0 0 512 512" xml:space="preserve" class=""><g>
<path xmlns="http://www.w3.org/2000/svg" style="" d="M0,108.4c4.8,192,112,256,244,256s239.2-64,244-256H0z" fill="#9269ed" data-original="#118dea" class=""/>
<path xmlns="http://www.w3.org/2000/svg" style="" d="M244,365.2c132,0,239.2-66.4,244-256" fill="#8d50e5" data-original="#1383e8" class=""/>
<path xmlns="http://www.w3.org/2000/svg" style="" d="M0,109.2c4.8,189.6,112,256,244,256" fill="#9371d1" data-original="#0099e5" class=""/>
<path xmlns="http://www.w3.org/2000/svg" style="" d="M0.8,116.4H488c0,0,0,0,0.8-8H0.8C0,116.4,0,116.4,0.8,116.4z" fill="#b583bf" data-original="#69c2f9" class=""/>
<path xmlns="http://www.w3.org/2000/svg" style="" d="M132,340.4v31.2c0,4,3.2,8.8,7.2,8.8h209.6c4,0,7.2-4.8,7.2-8.8v-31.2H132z" fill="#9551bb" data-original="#0768d3" class=""/>
<path xmlns="http://www.w3.org/2000/svg" style="" d="M156,371.6v-31.2h-24v31.2c0,4,3.2,8.8,7.2,8.8h24C158.4,380.4,156,375.6,156,371.6z" fill="#8d50e5" data-original="#1383e8" class=""/>
<g xmlns="http://www.w3.org/2000/svg">
</g>
<g xmlns="http://www.w3.org/2000/svg">
</g>
<g xmlns="http://www.w3.org/2000/svg">
</g>
<g xmlns="http://www.w3.org/2000/svg">
</g>
<g xmlns="http://www.w3.org/2000/svg">
</g>
<g xmlns="http://www.w3.org/2000/svg">
</g>
<g xmlns="http://www.w3.org/2000/svg">
</g>
<g xmlns="http://www.w3.org/2000/svg">
</g>
<g xmlns="http://www.w3.org/2000/svg">
</g>
<g xmlns="http://www.w3.org/2000/svg">
</g>
<g xmlns="http://www.w3.org/2000/svg">
</g>
<g xmlns="http://www.w3.org/2000/svg">
</g>
<g xmlns="http://www.w3.org/2000/svg">
</g>
<g xmlns="http://www.w3.org/2000/svg">
</g>
<g xmlns="http://www.w3.org/2000/svg">
</g>
</g></svg>
