<?xml version="1.0"?>
<svg xmlns="http://www.w3.org/2000/svg" xmlns:xlink="http://www.w3.org/1999/xlink" xmlns:svgjs="http://svgjs.com/svgjs" version="1.1" width="512" height="512" x="0" y="0" viewBox="0 0 512 512" style="enable-background:new 0 0 512 512" xml:space="preserve" class=""><g><g xmlns="http://www.w3.org/2000/svg"><g><g><path d="m18.113 415.849c19.011 19.011 10.561 27.461 29.572 46.473 19.014 19.014 27.464 10.564 46.478 29.578 2.755 2.705 5.417 5.911 7.561 8.935 2.149 3.031 6.588 3.524 9.116.8 7.724-8.324 16.744-17.227 16.857-17.34 30.532-30.532 3.553-104.777 3.553-104.777s-73.351-25.894-103.883 4.638c.038-.038-6.4 6.261-13.133 12.995-1.271 1.271-2.644 2.388-3.901 3.645-2.559 2.559-2.281 6.795.607 8.976 2.374 1.793 5.071 3.974 7.173 6.077z" fill="#fff0af" data-original="#fff0af" style="" class=""/><path d="m110.5 501.93c.12-.09.23-.19.34-.3 7.91-7.9 16.92-16.92 17.04-17.03 30.53-30.53 4.94-105.62 4.94-105.62s-29.45-10.04-58.96-10.04c-17.61 0-35.25 3.58-46.66 14.99 0 0-8.97 8.97-16.87 16.87-.13.13-.24.25-.34.39 12.84-11.87 32.04-15.48 50.67-15.48 29.02 0 56.66 8.77 56.66 8.77s23.71 74.67-6.82 107.45z" fill="#ffe07d" data-original="#ffe07d" style="" class=""/></g><g><path d="m414.849 18.113c19.011 19.011 27.461 10.561 46.473 29.572 19.014 19.014 10.564 27.464 29.578 46.478 2.705 2.755 5.911 5.417 8.935 7.561 3.031 2.149 3.524 6.588.8 9.116-8.324 7.724-17.227 16.744-17.34 16.857-30.532 30.532-104.777 3.553-104.777 3.553s-25.894-73.351 4.638-103.883c-.038.038 6.261-6.4 12.995-13.133 1.271-1.271 2.388-2.644 3.645-3.901 2.559-2.559 6.795-2.281 8.976.607 1.793 2.374 3.974 5.071 6.077 7.173z" fill="#fff0af" data-original="#fff0af" style="" class=""/><path d="m500.93 110.5c-.09.12-.19.23-.3.34-7.9 7.91-16.92 16.92-17.03 17.04-30.53 30.53-105.62 4.94-105.62 4.94s-10.04-29.45-10.04-58.96c0-17.61 3.58-35.25 14.99-46.66 0 0 8.97-8.97 16.87-16.87.13-.13.25-.24.39-.34-11.87 12.84-15.48 32.04-15.48 50.67 0 29.02 8.77 56.66 8.77 56.66s74.67 23.71 107.45-6.82z" fill="#ffe07d" data-original="#ffe07d" style="" class=""/></g><path d="m202.752 147.166-52.596 55.149c-43.608 43.575-30.958 134.849-22.819 167.585 1.845 7.419 7.231 12.481 14.649 14.33 1.244.31 1.922 1.872 3.332 2.206 20.124 4.77 56.587 11.607 92.101 9.031l36.694-9.96 32.356-14.766c1.134-1.004 2.241-2.045 3.319-3.123l50.949-50.949 24.057-44.056 10.897-47.512c.447-31.262-5.353-61.672-9.557-79.419-.335-1.412-2.229-2.045-2.539-3.29-1.847-7.417-7.64-13.208-15.056-15.055-32.667-8.136-121.914-23.946-165.787 19.829z" fill="#f1f9f6" data-original="#ccf49f" style="" class=""/><path d="m386.14 145.681c-35.6-8.44-122.23-23.3-164.44 18.82l-57.52 57.51c-41.95 41.93-27.28 128.74-18.86 164.42-1.41-.33-2.74-.65-3.98-.96-7.42-1.85-13.22-7.65-15.06-15.06-4.729-19.021-12.637-58.069-9.886-96l8.996-30.053 15.668-39.028c1.004-1.135 2.044-2.241 3.122-3.319l50.954-50.946 39.873-22.282 51.712-12.657c33.746-.487 66.489 6.304 83.39 10.515 7.42 1.84 13.21 7.63 15.06 15.05.311 1.25.641 2.579.971 3.99z" fill="#dbe6e6" data-original="#b3e59f" style="" class=""/><g fill="#b3e59f"><path d="m395.7 225.101c-.46 31.49-7.25 63.85-28.4 85l-6.56 6.57c-15.31-18.35-8.59-28.64-28.69-48.74-22.05-22.05-32.3-11.8-54.35-33.85-22.04-22.04-11.79-32.29-33.84-54.34-20.09-20.09-30.38-13.37-48.73-28.68l43.112-21.427 48.478-13.503c3.47 2.28 7.19 5.28 11.33 9.42 22.05 22.05 11.8 32.3 33.84 54.34 22.05 22.05 32.3 11.8 54.35 33.85 4.16 4.16 7.17 7.88 9.46 11.36z" fill="#dbe6e6" data-original="#b3e59f" style="" class=""/><path d="m306.47 370.741c-18.15 16.08-43.34 22.87-69.05 24.73h-.01c-2.55-5.65-6.32-11.74-13.74-19.16-22.05-22.05-32.3-11.8-54.35-33.85-22.04-22.04-11.79-32.29-33.84-54.34-7.39-7.39-13.46-11.15-19.08-13.71l10.523-30.394 14.137-38.686c18.27 15.21 28.56 8.55 48.61 28.6 22.05 22.05 11.8 32.3 33.84 54.34 22.05 22.05 32.3 11.8 54.35 33.85 20.06 20.06 13.4 30.35 28.61 48.62z" fill="#dbe6e6" data-original="#b3e59f" style="" class=""/></g><g><g fill="#95d6a4"><path d="m306.97 136.121c-31.56.42-64.04 7.19-85.27 28.38l-.15.15c-8.37-3.35-16.13-5-26.42-13.59 13.424-14.774 28.993-24.667 50.56-29.98 3.017-.158 8.106-3.855 41.03-4.95 3.47 2.28 7.19 5.28 11.33 9.42 3.84 3.84 6.7 7.32 8.92 10.57z" fill="#8cabbe" data-original="#95d6a4" style="" class=""/><path d="m167.35 218.841-3.17 3.17c-17.17 17.17-24.86 41.85-27.37 67.47-.43-.45-.87-.9-1.33-1.36-7.39-7.39-13.46-11.15-19.08-13.71.23-3.22.54-6.43.94-9.62.972-7.622 2.506-16.376 5.31-25.39 3.701-11.495 8.735-23.052 18.41-34.07 10.23 8.51 17.95 10.179 26.29 13.51z" fill="#8cabbe" data-original="#95d6a4" style="" class=""/></g></g></g><path d="m511.952 104.416c-.336-3.974-2.399-7.578-5.66-9.891-2.856-2.025-5.67-4.404-7.97-6.746-8.382-8.381-10.564-14.057-13.092-20.628-2.744-7.133-5.854-15.218-16.486-25.851-10.631-10.63-18.715-13.739-25.847-16.482-6.57-2.526-12.245-4.709-20.625-13.09-1.523-1.522-3.39-3.732-5.396-6.389-2.344-3.104-5.914-5.038-9.797-5.308-3.895-.27-7.709 1.157-10.468 3.917l-16.87 16.87c-24.633 24.633-17.243 72.688-11.194 97.607-39.407-9.416-127.401-23.843-172.032 20.687-.035.035-42.531 42.531-54.493 54.494-4.208 4.308-.338.093-6.569 6.802-17.874 20.261-26.956 50.427-27.007 89.775-.042 31.406 5.76 61.332 9.794 78.328-13.604-3.29-34.02-6.97-53.684-5.689-4.133.27-7.266 3.839-6.996 7.973.27 4.132 3.833 7.255 7.973 6.996 15.459-1.013 31.871 1.501 44.18 4.183l-29.54 13.581c-3.764 1.73-5.412 6.184-3.682 9.947 1.264 2.749 3.98 4.369 6.819 4.369 1.048 0 2.113-.221 3.128-.688l29.715-13.662-13.502 28.551c-1.771 3.744-.171 8.215 3.574 9.986 1.035.489 2.127.722 3.201.722 2.81 0 5.504-1.587 6.785-4.296l13.626-28.814c5.465 25.114 8.704 61.691-8.323 78.719-.107.106-8.212 8.212-15.794 15.795-2.284-3.065-4.859-6.04-7.335-8.472-10.633-10.632-18.718-13.741-25.851-16.485-6.571-2.527-12.247-4.71-20.628-13.091-8.38-8.381-10.562-14.055-13.089-20.625-2.743-7.133-5.853-15.217-16.483-25.849-1.731-1.73-3.929-3.637-6.548-5.678l15.639-15.638c1.169-1.17 2.461-2.275 3.84-3.286 3.341-2.448 4.064-7.142 1.615-10.482-2.448-3.342-7.144-4.064-10.482-1.615-1.994 1.461-3.871 3.068-5.579 4.776l-16.871 16.87c-2.759 2.76-4.187 6.575-3.917 10.468.27 3.883 2.204 7.453 5.307 9.797 2.657 2.006 4.867 3.872 6.391 5.396 8.38 8.38 10.562 14.055 13.089 20.625 2.743 7.132 5.853 15.216 16.483 25.848 10.632 10.632 18.717 13.741 25.85 16.484 6.571 2.528 12.247 4.711 20.677 13.141 2.293 2.252 4.672 5.065 6.697 7.922 1.774 2.497 6.185 5.723 11.031 5.708 3.554 0 6.967-1.403 9.507-3.942 7.84-7.841 16.773-16.774 17.036-17.036 24.582-24.583 17.271-72.497 11.23-97.458 18.553 4.428 47.746 9.936 78.109 9.935 34.06-.02 69.895-6.978 93.774-30.657l57.516-57.516c8.24-8.241 14.917-18.492 19.845-30.471 1.576-3.83-.251-8.214-4.082-9.789-3.828-1.578-8.213.252-9.789 4.082-4.17 10.136-9.749 18.739-16.581 25.57l-.784.784c-3.54-5.189-5.147-9.708-6.919-14.721-2.895-8.187-6.175-17.466-18.113-29.404-11.934-11.933-21.21-15.212-29.394-18.105-7.649-2.704-14.256-5.039-23.787-14.57-9.525-9.525-11.859-16.13-14.562-23.777-2.892-8.185-6.17-17.461-18.104-29.396-11.935-11.934-21.212-15.213-29.396-18.106-5.012-1.772-9.532-3.378-14.72-6.917 18.309-18.978 48.664-26.186 77.706-26.817 3.295 2.133 6.582 4.844 9.994 8.257 9.531 9.53 11.866 16.137 14.569 23.786 2.892 8.183 6.17 17.457 18.099 29.387 11.934 11.933 21.21 15.212 29.394 18.105 7.649 2.704 14.256 5.039 23.786 14.57 3.469 3.468 6.219 6.807 8.372 10.154-.177 6.161-.614 12.335-1.373 18.431-.512 4.11 2.405 7.857 6.516 8.369 4.104.505 7.857-2.404 8.369-6.516 4.91-39.438-2.734-81.408-8.36-104.948 13.348 3.306 35.509 7.077 54.258 5.709 4.133-.283 7.253-3.863 6.97-7.995-.283-4.133-3.89-7.248-7.995-6.97-15.711 1.073-32.433-1.513-44.865-4.24l28.071-13.275c3.745-1.771 5.345-6.242 3.574-9.986-1.771-3.745-6.244-5.344-9.986-3.574l-27.916 13.201 13.662-29.715c1.73-3.764.082-8.217-3.682-9.947-3.763-1.73-8.217-.08-9.947 3.682l-13.617 29.618c-5.404-25.117-8.518-61.437 8.41-78.365l15.639-15.639c2.041 2.618 3.947 4.816 5.678 6.547 10.632 10.632 18.716 13.741 25.849 16.484 6.57 2.526 12.244 4.709 20.624 13.088 8.382 8.382 10.564 14.058 13.092 20.629 2.744 7.133 5.854 15.218 16.438 25.802 2.473 2.518 5.453 5.099 8.52 7.384-11.206 10.949-13.36 13.958-19.449 18.937-3.326 2.469-4.021 7.166-1.553 10.492 2.469 3.327 7.168 4.021 10.492 1.553 6.328-4.949 10.418-9.91 22.383-21.641 2.804-2.808 4.222-6.689 3.888-10.645zm-270.723 283.057c-2.526-4.913-6.445-10.854-13.305-17.716-11.934-11.933-21.21-15.212-29.394-18.105-7.649-2.704-14.256-5.039-23.787-14.57-9.525-9.525-11.859-16.13-14.562-23.777-2.892-8.184-6.17-17.46-18.104-29.395-6.858-6.857-12.805-10.777-17.716-13.305 1.899-20.071 7.081-39.483 17.841-54.582 7.483 5.413 13.886 7.688 19.676 9.735 7.648 2.704 14.255 5.04 23.783 14.568 9.53 9.53 11.865 16.137 14.568 23.786 2.892 8.183 6.17 17.456 18.099 29.386 11.934 11.933 21.21 15.212 29.394 18.105 7.649 2.704 14.256 5.039 23.787 14.57 9.532 9.532 11.869 16.14 14.574 23.791 2.047 5.788 4.323 12.191 9.735 19.673-15.107 10.762-34.518 15.941-54.589 17.836zm-97.959-9.363c-4.738-1.181-8.414-4.857-9.592-9.594-3.595-14.46-10.588-47.149-10.197-80.886 2.425 1.749 5.074 3.972 7.989 6.887 9.53 9.53 11.865 16.137 14.568 23.786 2.892 8.183 6.17 17.456 18.099 29.386 11.934 11.933 21.21 15.212 29.394 18.105 7.649 2.704 14.256 5.039 23.786 14.57 2.914 2.914 5.138 5.561 6.887 7.984-33.76.383-66.469-6.633-80.934-10.238zm72.792-206.546c7.65 2.704 14.258 5.04 23.788 14.571 9.531 9.53 11.866 16.137 14.569 23.786 2.892 8.183 6.17 17.457 18.099 29.387 11.934 11.933 21.21 15.212 29.394 18.105 7.649 2.704 14.256 5.039 23.787 14.57 9.535 9.535 11.872 16.145 14.577 23.797 2.12 5.995 4.472 12.643 10.312 20.471l-43.44 43.44c-3.543-5.191-5.149-9.711-6.923-14.727-2.895-8.186-6.175-17.463-18.11-29.398-11.934-11.933-21.21-15.212-29.394-18.105-7.649-2.704-14.256-5.039-23.787-14.57-9.525-9.525-11.859-16.13-14.562-23.777-2.892-8.184-6.17-17.46-18.104-29.394-11.931-11.932-21.207-15.211-29.391-18.104-5.015-1.773-9.535-3.379-14.726-6.921l43.44-43.44c7.828 5.838 14.475 8.189 20.471 10.309zm145.04 17.516c-7.649-2.704-14.256-5.039-23.787-14.57-9.525-9.525-11.859-16.13-14.562-23.777-2.657-7.522-5.661-15.972-15.391-26.554 26.171 1.699 49.471 6.77 61.056 9.655 4.736 1.18 8.412 4.854 9.592 9.591 3.481 13.978 8.177 36.483 9.778 61.169-10.645-9.828-19.134-12.843-26.686-15.514z" fill="#37323e" data-original="#000000" style="" class=""/></g></g></svg>
