<svg id="Layer_1" height="512" viewBox="0 0 512 512" width="512" xmlns="http://www.w3.org/2000/svg" xmlns:xlink="http://www.w3.org/1999/xlink" data-name="Layer 1"><linearGradient id="linear-gradient" gradientUnits="userSpaceOnUse" x1="167.133" x2="167.133" y1="472.788" y2="84.541"><stop offset=".322" stop-color="#a163f5"/><stop offset=".466" stop-color="#b074ee"/><stop offset=".752" stop-color="#d8a1dd"/><stop offset=".898" stop-color="#efbad3"/></linearGradient><linearGradient id="linear-gradient-2" x1="255.999" x2="255.999" xlink:href="#linear-gradient" y1="472.788" y2="84.541"/><path d="m235.852 332.45a4.994 4.994 0 0 0 -3.5-2.181l-39.9-5.314a25.867 25.867 0 0 0 .918-4.13 26.217 26.217 0 0 0 .219-2.811l39.729 5.291a5.057 5.057 0 0 0 .66.044 5 5 0 0 0 5-4.959 71.608 71.608 0 0 0 -9.3-35.855 5 5 0 0 0 -7.385-1.508l-31.728 24.243a25.758 25.758 0 0 0 -4.122-5.7l31.7-24.223a5 5 0 0 0 .554-7.454 71.707 71.707 0 0 0 -32.214-19.159 5 5 0 0 0 -6.3 4.156l-5.283 39.68a26.145 26.145 0 0 0 -3.742-.778 25.832 25.832 0 0 0 -3.231-.22l5.313-39.82a5 5 0 0 0 -4.865-5.66 71.558 71.558 0 0 0 -36.815 9.4 5 5 0 0 0 -1.494 7.382l24.661 32.226a26.053 26.053 0 0 0 -5.547 4.334l-24.78-32.381a5 5 0 0 0 -7.46-.542 71.582 71.582 0 0 0 -19.282 33.054 5 5 0 0 0 4.176 6.227l40.8 5.434a25.6 25.6 0 0 0 -.74 6.993l-40.951-5.454a5 5 0 0 0 -5.66 4.938 71.544 71.544 0 0 0 10.065 36.818 5 5 0 0 0 7.333 1.417l32.929-25.162a25.748 25.748 0 0 0 4.427 5.471l-32.942 25.17a5 5 0 0 0 -.48 7.528 71.687 71.687 0 0 0 32.9 18.543 5 5 0 0 0 6.175-4.188l5.458-40.9a26.346 26.346 0 0 0 3.178.631 25.947 25.947 0 0 0 3.434.229c.128 0 .254-.016.382-.018l-5.441 40.78a5 5 0 0 0 4.956 5.661h.033a71.752 71.752 0 0 0 35.908-9.938 5 5 0 0 0 1.432-7.347l-24.796-32.398a26.072 26.072 0 0 0 5.642-4.209l24.68 32.245a5 5 0 0 0 3.644 1.95c.109.008.218.011.327.011a5 5 0 0 0 3.539-1.469 71.619 71.619 0 0 0 18.456-32.011 5 5 0 0 0 -.67-4.067zm-12.252-39.826a61.635 61.635 0 0 1 5.17 19.987l-26.678-3.553zm-114.562 4.04a61.568 61.568 0 0 1 11.008-18.851l17.315 22.623zm2.241 47.76a61.558 61.558 0 0 1 -5.747-20.96l28.253 3.764zm35.277 31.741a61.687 61.687 0 0 1 -18.6-10.457l22.271-17.016zm-4.9-114.6a61.706 61.706 0 0 1 20.9-5.317l-3.706 27.779zm51.844 112.218a61.788 61.788 0 0 1 -20.089 5.585l3.616-27.107zm-10.036-54.283a15.848 15.848 0 1 1 -3.122-11.717 15.878 15.878 0 0 1 3.122 11.717zm2.188-31.909 3.658-27.411a61.774 61.774 0 0 1 18.09 10.794zm29.205 69.609-16.345-21.35 26.61 3.544a61.67 61.67 0 0 1 -10.265 17.806z" fill="url(#linear-gradient)"/><path d="m496 398.84h-68.144l4.791-35.907 51.212 6.821a14.63 14.63 0 1 0 3.868-29l-136.852-18.23 5.162-38.688 1.359.181a14.63 14.63 0 0 0 16.44-12.567 14.63 14.63 0 0 0 -12.573-16.436l-1.357-.181 6.453-48.359 1.366.182a14.63 14.63 0 1 0 3.863-29l-1.36-.181 2.2-16.493a17.413 17.413 0 0 0 -34.52-4.6l-2.2 16.5-35.164-4.684 2.2-16.492a17.413 17.413 0 0 0 -34.52-4.6l-2.2 16.5-37.631-5.013 2.2-16.492a17.412 17.412 0 0 0 -34.519-4.6l-2.2 16.5-37.634-5.031 2.2-16.492a17.413 17.413 0 0 0 -34.52-4.6l-2.2 16.5-37.631-5.018 2.2-16.492a17.413 17.413 0 0 0 -34.52-4.6l-2.2 16.5-2.653-.353a14.63 14.63 0 0 0 -3.863 29l2.646.352-6.452 48.359-2.646-.353a14.63 14.63 0 1 0 -3.866 29l2.643.352-5.162 38.688-2.647-.352a14.63 14.63 0 1 0 -3.865 29l53.269 7.1a90.326 90.326 0 0 0 50.555 83.28h-107.85a5 5 0 1 0 0 10h476.322a5 5 0 0 0 0-10zm-9.594-48.176a4.63 4.63 0 1 1 -1.226 9.178l-228.317-30.41a91.993 91.993 0 0 0 .731-9.244zm-229.412-43.784 4.751-35.6 14.695 1.957-5.162 38.688-13.978-1.864c-.085-1.061-.179-2.124-.306-3.181zm24.2 6.363 5.162-38.689 35.164 4.684-5.162 38.688zm45.076 6 5.162-38.688 14.7 1.957-5.169 38.688zm33.675-54.32a4.63 4.63 0 1 1 -1.225 9.178l-124.132-16.529a90.308 90.308 0 0 0 -11.559-10.882zm-108.11 5.03-1.6 11.962a90.308 90.308 0 0 0 -7.072-13.116zm-33.761-34.015 6.452-48.358 37.631 5.012-6.457 48.362zm47.543 6.333 6.452-48.359 14.7 1.958-6.451 48.358zm24.608 3.278 6.452-48.359 35.165 4.683-6.452 48.359zm45.077 6 6.452-48.358 14.7 1.957-6.453 48.359zm12.519-93.849a7.413 7.413 0 0 1 14.7 1.957l-2.2 16.494-14.7-1.957zm-69.685-9.281a7.413 7.413 0 0 1 14.7 1.957l-2.2 16.494-14.695-1.957zm-72.151-9.61a7.412 7.412 0 0 1 14.695 1.957l-2.2 16.494-14.7-1.957zm-72.152-9.61a7.414 7.414 0 0 1 13.237-3.519 7.349 7.349 0 0 1 1.459 5.476l-2.2 16.494-14.695-1.957zm-72.151-9.61a7.412 7.412 0 0 1 14.695 1.957l-2.2 16.494-14.7-1.957zm-17.308 33.911a4.63 4.63 0 0 1 .607-9.219 4.75 4.75 0 0 1 .615.04l324.671 43.244a4.63 4.63 0 1 1 -1.222 9.179zm170.236 32.763-6.452 48.358-8.414-1.121q-3.011-1.15-6.115-2.087l6.286-47.108zm-24.61-3.278-6.142 46.037c-1.535-.284-3.08-.535-4.638-.742a90.317 90.317 0 0 0 -21.142-.329l-12.161-1.619 6.452-48.359zm-47.543-6.332-6.453 48.358-14.695-1.957 6.452-48.359zm-24.608-3.278-6.449 48.359-37.632-5.013 6.452-48.358zm-47.544-6.332-6.45 48.357-14.7-1.957 6.453-48.359zm-36.25 63.819a4.63 4.63 0 1 1 1.225-9.179l96.93 12.911a90.782 90.782 0 0 0 -14.07 7.467zm25.931 13.538-5.162 38.688-14.7-1.957 5.162-38.689zm17.784 61.179-52.746-7.026a4.63 4.63 0 1 1 1.225-9.179l53.24 7.091a90.672 90.672 0 0 0 -1.719 9.114zm-13.034-21.167 5.164-38.688 37.021 4.931a90.054 90.054 0 0 0 -24.492 36.114zm91.931 112.913a80.269 80.269 0 0 1 10.562-159.843 80.9 80.9 0 0 1 10.672.71 80.272 80.272 0 1 1 -21.234 159.133zm241.4 1.515h-191.147a90.371 90.371 0 0 0 48.1-59.565l148.36 19.76zm19.7 0h-9.612l5.135-38.485 9.444 1.258z" fill="url(#linear-gradient-2)"/></svg>