<svg id="Capa_1" enable-background="new 0 0 512.013 512.013" height="512" viewBox="0 0 512.013 512.013" width="512" xmlns="http://www.w3.org/2000/svg"><g><g><path d="m460.513 207.591c26.613-26.613 56.377-99.525 29.764-126.139-26.613-26.613-99.526 3.151-126.139 29.764s-26.613 69.762 0 96.375 69.762 26.613 96.375 0z" fill="#e0b799"/><g fill="#d1986f"><path d="m458.415 209.586c-39.837-25.714-38.452-97.525-29.442-133.724-25.463 7.291-51.213 21.734-64.834 35.355-26.613 26.613-26.613 69.762 0 96.375 25.926 25.926 67.539 26.583 94.276 1.994z"/><path d="m446.722 161.488c-1.533 0-3.08-.469-4.414-1.441-3.347-2.441-4.081-7.133-1.639-10.479 7.487-10.265 14.059-25.794 14.666-30.855.494-4.112 4.218-7.046 8.34-6.553 4.112.494 7.046 4.228 6.553 8.34-1.052 8.769-9.365 26.837-17.441 37.908-1.467 2.013-3.75 3.08-6.065 3.08z"/></g></g><path d="m498.26 335.7-162.56 162.56c-8.329 8.329-21.834 8.329-30.163 0l-291.784-291.784c-8.329-8.329-8.329-21.834 0-30.163l162.56-162.56c8.329-8.329 21.833-8.329 30.163 0l291.784 291.784c8.329 8.33 8.329 21.834 0 30.163z" fill="#fbf1cf"/><path d="m188.632 7.708c-4.504.585-8.859 2.586-12.319 6.046l-162.56 162.56c-8.329 8.329-8.329 21.833 0 30.163l169.347 169.347c-40.469-123.456-21.194-294.446 5.532-368.116z" fill="#f5e2a2"/><path d="m122.074 314.797 67.493 67.493c19.661-4.683 34.288-22.35 34.288-43.445 0-24.671-20-44.672-44.671-44.671-15.815-.001-41.031 8.224-57.11 20.623z" fill="#e0b799"/><path d="m165.375 295.756c-14.418 2.949-31.371 9.842-43.301 19.041l61.026 61.026c-8.236-25.127-13.997-52.222-17.725-80.067z" fill="#d1986f"/><path d="m177.159 207.887c24.671 0 72.264-20 72.264-44.672s-47.592-44.672-72.264-44.672-44.671 20-44.671 44.672 19.999 44.672 44.671 44.672z" fill="#e0b799"/><path d="m159.857 204.411c.16-29.124 2.002-57.625 5.029-84.145-18.701 5.334-32.399 22.537-32.399 42.95 0 18.536 11.291 34.433 27.37 41.195z" fill="#d1986f"/><path d="m452.682 259.96-60.533-60.533c-16.71 13.992-28.566 46.543-28.566 65.534 0 24.671 20 44.672 44.672 44.672 24.671 0 44.671-20 44.671-44.672 0-1.578-.084-3.253-.244-5.001z" fill="#e0b799"/><path d="m347.095 380.405c-17.445 17.445 2.065 65.24 19.511 82.686.717.717 1.459 1.394 2.211 2.052l63.016-63.016c-.658-.752-1.335-1.494-2.052-2.211-17.446-17.445-65.241-36.956-82.686-19.511z" fill="#e0b799"/><g><path d="m282.177 265.92h-15.621c-4.142 0-7.5-3.358-7.5-7.5s3.358-7.5 7.5-7.5h15.621c4.142 0 7.5 3.358 7.5 7.5s-3.357 7.5-7.5 7.5z" fill="#e16e7e"/><path d="m277.797 381.783c-4.142 0-7.5-3.358-7.5-7.5v-19.735c0-4.142 3.358-7.5 7.5-7.5s7.5 3.358 7.5 7.5v19.735c0 4.142-3.358 7.5-7.5 7.5z" fill="#88d37f"/><path d="m201.307 81.992c-1.919 0-3.839-.733-5.304-2.197l-6.886-6.887c-2.929-2.929-2.928-7.678.001-10.607 2.929-2.928 7.678-2.928 10.607 0l6.886 6.887c2.929 2.929 2.928 7.678-.001 10.607-1.464 1.464-3.384 2.197-5.303 2.197z" fill="#88d37f"/><path d="m114.902 243.443c-1.919 0-3.839-.732-5.303-2.197l-10.771-10.771c-2.929-2.929-2.929-7.677 0-10.606s7.678-2.93 10.606 0l10.771 10.771c2.929 2.929 2.929 7.677 0 10.607-1.464 1.463-3.384 2.196-5.303 2.196z" fill="#e16e7e"/><path d="m433.224 356.365h-11.816c-4.142 0-7.5-3.358-7.5-7.5s3.358-7.5 7.5-7.5h11.816c4.142 0 7.5 3.358 7.5 7.5s-3.358 7.5-7.5 7.5z" fill="#88d37f"/></g><g><path d="m414.472 123.618c0-37.637-30.511-110.24-68.147-110.24s-68.147 72.603-68.147 110.24 30.511 68.147 68.147 68.147 68.147-30.51 68.147-68.147z" fill="#e0b799"/><g fill="#d1986f"><path d="m328.772 153.143c-1.868 0-3.739-.693-5.193-2.09-6.089-5.846-9.65-15.22-10.584-27.86-.715-9.683.321-18.437 1.046-22.084.808-4.063 4.753-6.701 8.818-5.893 4.063.808 6.701 4.755 5.894 8.818-1.532 7.708-2.208 29.072 5.215 36.198 2.988 2.869 3.085 7.616.216 10.604-1.473 1.535-3.441 2.307-5.412 2.307z"/><path d="m366.813 102.963c-3.631 0-6.822-2.642-7.4-6.342-1.963-12.552-8.298-28.181-11.448-32.189-2.559-3.257-1.993-7.972 1.264-10.531 3.256-2.559 7.972-1.993 10.531 1.264 5.457 6.946 12.355 25.6 14.472 39.138.64 4.092-2.158 7.929-6.251 8.569-.392.061-.783.091-1.168.091z"/></g></g><path d="m452.05 371.303-20.27 20.27c-21.222-18.31-69.433-37.027-89.989-16.47-20.508 20.508-1.881 68.72 16.47 89.989l-27.865 27.865c-5.404 5.404-14.151 5.405-19.556 0l-107.732-107.733c17.089-8.76 28.247-26.416 28.247-46.379 0-28.768-23.404-52.171-52.171-52.171-16.82 0-39.861 7.663-56.27 18.356l-103.857-103.858c-5.404-5.403-5.405-14.151 0-19.556l16.007-16.007c2.929-2.929 2.929-7.678 0-10.606-2.929-2.929-7.678-2.929-10.606 0l-16.008 16.006c-11.266 11.266-11.269 29.502 0 40.77l291.784 291.784c11.265 11.266 29.502 11.268 40.769 0l121.654-121.653c2.929-2.929 2.929-7.678 0-10.606-2.929-2.93-7.678-2.93-10.607-.001zm-318.259-55.397c14.847-8.903 33.96-14.233 45.393-14.233 20.497 0 37.171 16.675 37.171 37.171 0 15.915-9.949 29.771-24.636 34.991zm235.102 138.554c-7.138-8.588-14.086-21.971-17.941-34.861-4.677-15.639-4.136-28.308 1.446-33.891 5.583-5.582 18.252-6.123 33.891-1.446 12.89 3.854 26.271 10.802 34.861 17.941zm-111.97-291.244c0-30.381-52.158-52.171-79.764-52.171-28.768 0-52.171 23.404-52.171 52.171 0 28.768 23.404 52.172 52.171 52.172 27.734-.001 79.764-21.785 79.764-52.172zm-116.935 0c0-20.497 16.675-37.171 37.171-37.171 11.508 0 28.316 4.896 41.822 12.185 14.365 7.751 22.941 17.092 22.941 24.987s-8.576 17.236-22.941 24.987c-13.507 7.288-30.314 12.185-41.822 12.185-20.497-.002-37.171-16.677-37.171-37.173zm363.575 137.018c-6.026-6.026-60.45-60.45-68.665-68.665 11.594-3.633 22.264-10.021 30.918-18.675 28.839-28.839 60.401-106.108 29.764-136.745-20.066-20.067-57.689-12.553-84.007-2.317-12.823-34.419-36.489-67.953-65.248-67.953-32.008 0-55.355 40.338-66.251 70.867l-68.295-68.296c-11.266-11.266-29.502-11.269-40.77 0l-120.761 120.762c-2.929 2.929-2.929 7.678 0 10.606 2.929 2.929 7.678 2.929 10.606 0l120.763-120.761c5.403-5.404 14.151-5.405 19.556 0l73.903 73.903c-2.828 10.998-4.398 21.579-4.398 30.658 0 53.933 55.185 90.632 104.839 69.783l5.99 5.99c-15.238 17.112-25.423 46.565-25.423 65.57 0 28.768 23.404 52.172 52.172 52.172 24.655 0 45.354-17.196 50.774-40.22l33.927 33.927c5.404 5.404 5.405 14.151 0 19.556l-15.072 15.072c-2.929 2.929-2.929 7.678 0 10.606 2.929 2.929 7.678 2.929 10.606 0l15.072-15.072c11.266-11.264 11.268-29.501 0-40.768zm-87.295-212.117c24.499-9.587 55.059-15.007 68.705-1.362 22.285 22.285-4.751 90.52-29.764 115.532-9.009 9.01-20.261 14.796-32.71 16.883l-33.286-33.286c19.771-13.66 32.758-36.471 32.758-62.267.001-10.101-2.007-22.536-5.703-35.5zm-69.943 96.148c-33.441 0-60.647-27.207-60.647-60.648 0-34.622 28.806-102.739 60.647-102.739 31.387 0 60.647 67.178 60.647 102.739 0 33.442-27.206 60.648-60.647 60.648zm61.93 117.868c-20.496 0-37.172-16.675-37.172-37.172 0-15.616 8.878-40.901 21.039-54.954l53.26 53.26c.888 21.654-16.363 38.866-37.127 38.866z"/></g></svg>