<svg id="Capa_1" enable-background="new 0 0 512 512" height="512" viewBox="0 0 512 512" width="512" xmlns="http://www.w3.org/2000/svg"><g><path d="m452.759 202.243c0-116.097-88.092-194.743-196.758-194.743-108.667 0-196.759 78.646-196.759 194.743s88.092 210.213 196.758 210.213c108.667-.001 196.759-94.116 196.759-210.213z" fill="#e1ac9a"/><path d="m363.167 378.553c-177.026-43.805-212.757-304.54-154.358-365.89-85.873 19.238-149.567 90.864-149.567 189.58 0 116.097 88.092 210.213 196.758 210.213 39.531-.001 76.333-12.466 107.167-33.903z" fill="#d2896f"/><path d="m333.407 398.923c-12.522 0-22.783-10.035-23.011-22.607-.23-12.713 9.89-23.205 22.604-23.434 22.926-.414 46.103-18.632 64.726-33.269 9.995-7.86 24.469-6.124 32.328 3.873 7.857 9.997 6.123 24.47-3.874 32.327-22.772 17.9-53.96 42.413-92.35 43.107-.142.001-.283.003-.423.003z" fill="#fae0bd"/><path d="m93.226 408.164c-8.447-9.505-7.588-24.056 1.916-32.502 11.567-10.28 59.022-32.493 90.639-29.122 12.642 1.344 21.799 12.69 20.452 25.333-1.347 12.644-12.69 21.801-25.333 20.453-14.593-1.556-47.87 12.156-55.348 17.911-9.486 8.258-23.911 7.394-32.326-2.073zm32.502 1.916c-.024.021-.048.042-.072.063.026-.021.048-.042.072-.063z" fill="#fae0bd"/><path d="m373.736 337.368c-12.966 8.522-26.896 15.264-40.736 15.514-12.714.229-22.834 10.721-22.604 23.434.227 12.572 10.489 22.607 23.011 22.607.14 0 .281-.001.423-.004 18.627-.336 35.552-6.287 50.649-14.362-4.718-14.335-8.259-29.942-10.743-47.189z" fill="#f8d4a5"/><path d="m185.781 346.54c-15.122-1.612-33.862 2.633-50.571 8.621-4.593 22.772-11.384 42.532-20.685 60.342 3.96-.712 7.784-2.443 11.026-5.267 7.479-5.754 40.756-19.467 55.348-17.911 12.644 1.348 23.986-7.809 25.334-20.453 1.347-12.642-7.811-23.988-20.452-25.332z" fill="#f8d4a5"/><path d="m341.82 323.309c-1.547-15.594 3.681-31.202 14.707-42.338 17.534-17.709 28.017-41.093 28.017-68.79 0-64.903-57.551-117.517-128.544-117.517s-128.544 52.614-128.544 117.517c0 27.697 10.482 51.081 28.017 68.79 11.026 11.136 16.254 26.743 14.707 42.338-3.954 39.862-13.335 80.58-35.417 117.44-8.365 13.962-3.43 31.988 10.948 39.616 31.046 16.472 64.916 24.135 110.29 24.135s79.244-7.664 110.29-24.135c14.377-7.628 19.312-25.654 10.948-39.616-22.084-36.86-31.465-77.578-35.419-117.44z" fill="#fbf1cf"/><g fill="#fae0bd"><path d="m170.574 153.224c-16.946-27.652-52.098-56.278-79.418-72.38-12.518-7.378-16.686-23.508-9.308-36.027 7.379-12.52 23.512-16.685 36.028-9.308 30.53 17.994 74.403 52.42 97.566 90.22 7.593 12.39 3.704 28.588-8.686 36.181-12.346 7.566-28.561 3.751-36.182-8.686z"/><path d="m341.428 153.224c16.946-27.652 52.098-56.278 79.418-72.38 12.518-7.378 16.686-23.508 9.308-36.027-7.38-12.52-23.512-16.685-36.028-9.308-30.53 17.994-74.403 52.42-97.566 90.22-7.593 12.39-3.704 28.588 8.686 36.181 12.345 7.566 28.56 3.751 36.182-8.686z"/><path d="m256.001 504.5c29.236 0 53.682-3.203 75.688-9.873-26.162-34.794-3.467-132.229-75.688-132.229s-49.526 97.435-75.688 132.229c22.006 6.67 46.451 9.873 75.688 9.873z"/></g><g><g fill="#eda1ab"><ellipse cx="172.435" cy="227.846" rx="30.834" ry="24.555"/><ellipse cx="339.566" cy="227.846" rx="30.834" ry="24.555"/></g></g><path d="m345.319 203.572c0-11.803-9.603-21.406-21.406-21.406s-21.406 9.603-21.406 21.406c0 4.142 3.357 7.5 7.5 7.5 4.142 0 7.5-3.358 7.5-7.5 0-3.532 2.874-6.406 6.406-6.406s6.406 2.874 6.406 6.406c0 4.142 3.357 7.5 7.5 7.5 4.142 0 7.5-3.358 7.5-7.5zm-162.414-11.665v12c0 4.142 3.357 7.5 7.5 7.5s7.5-3.358 7.5-7.5v-12c0-4.142-3.357-7.5-7.5-7.5s-7.5 3.358-7.5 7.5zm84.735 6.999c-2.938 3.372-7.181 5.306-11.64 5.306s-8.701-1.934-11.64-5.306c-2.723-3.122-7.461-3.447-10.582-.727-3.122 2.722-3.448 7.459-.726 10.582 5.788 6.642 14.152 10.451 22.948 10.451s17.16-3.809 22.948-10.451c2.722-3.123 2.396-7.86-.727-10.582-3.123-2.721-7.861-2.396-10.581.727zm163.632 115.174c18.984-33.731 28.987-72.233 28.987-111.837 0-42.905-11.802-82.759-34.207-115.809 14.967-9.822 19.749-29.839 10.563-45.424-9.486-16.095-30.196-21.452-46.296-11.961-4.089 2.41-8.416 5.115-12.896 8.074-34.64-24.301-76.496-37.123-121.423-37.123-20.415 0-40.429 2.694-59.487 8.007-3.989 1.113-6.322 5.249-5.21 9.239s5.247 6.323 9.239 5.21c17.747-4.947 36.405-7.456 55.458-7.456 39.845 0 77.03 10.788 108.222 31.286-18.914 13.768-39.154 31.26-55.679 50.561-16.64-6.42-34.286-9.683-52.544-9.683-18.257 0-35.903 3.262-52.543 9.682-16.523-19.298-36.758-36.787-55.669-50.554 6.535-4.285 13.379-8.185 20.456-11.626 3.726-1.811 5.277-6.299 3.466-10.024-1.812-3.725-6.3-5.278-10.024-3.466-9.469 4.603-18.562 9.959-27.107 15.945-4.479-2.958-8.806-5.664-12.895-8.073-16.063-9.467-36.832-4.101-46.298 11.962-9.186 15.585-4.404 35.601 10.563 45.424-22.406 33.051-34.208 72.905-34.208 115.809 0 58.057 21.888 113.716 60.367 154.469-9.8 4.729-17.69 9.559-21.949 13.344-12.579 11.18-13.719 30.51-2.539 43.091 11.02 12.396 30.093 13.658 42.647 2.925 1.776-1.315 5.994-3.57 11.623-6.04-3.99 9.45-8.493 18.402-13.561 26.862-10.592 17.68-4.313 40.451 13.866 50.096 32.603 17.297 67.702 25.01 113.806 25.01 39.058 0 70.385-5.631 98.589-17.72 3.807-1.632 5.57-6.041 3.938-9.848s-6.038-5.57-9.849-3.939c-4.493 1.926-9.089 3.663-13.79 5.241-5.955-10.949-8.616-27.351-11.411-44.59-6.231-38.424-13.986-86.245-67.478-86.245s-61.246 47.821-67.477 86.245c-2.796 17.243-5.458 33.649-11.415 44.598-9.662-3.249-18.889-7.23-27.883-12.002-10.615-5.633-14.176-18.871-8.028-29.136 21.792-36.374 32.228-78.009 36.446-120.554 1.797-18.107-4.342-35.732-16.841-48.355-16.908-17.077-25.846-39.039-25.846-63.513 0-23.117 8.055-45.635 22.833-64.28 2.484 3.264 4.628 6.366 6.39 9.242 2.171 3.543 6.793 4.634 10.314 2.476 3.531-2.164 4.64-6.782 2.476-10.314-17.621-28.753-53.884-58.348-82.005-74.922-8.936-5.267-11.921-16.822-6.655-25.757 5.269-8.937 16.826-11.923 25.759-6.655 29.788 17.557 72.537 51.053 94.98 87.677 2.164 3.531 6.78 4.641 10.314 2.476 3.531-2.164 4.64-6.782 2.475-10.313-2.602-4.245-5.466-8.444-8.524-12.587 13.599-4.679 27.912-7.059 42.688-7.059 14.777 0 29.097 2.368 42.699 7.046-3.061 4.147-5.93 8.35-8.534 12.601-2.164 3.532-1.056 8.149 2.476 10.314 3.533 2.164 8.149 1.055 10.313-2.477 22.443-36.624 65.191-70.121 94.98-87.677 8.952-5.279 20.477-2.303 25.758 6.655 5.266 8.936 2.28 20.49-6.655 25.757-28.121 16.574-64.384 46.169-82.005 74.922-2.164 3.532-1.056 8.149 2.476 10.314 3.517 2.156 8.141 1.069 10.314-2.476 1.762-2.876 3.906-5.978 6.39-9.242 14.777 18.644 22.833 41.163 22.833 64.28 0 24.473-8.938 46.436-25.846 63.513-12.499 12.623-18.638 30.248-16.842 48.355 5.259 53.025 18.917 91.293 36.447 120.554 3.467 5.788 3.977 12.65 1.398 18.827-1.595 3.823.211 8.215 4.033 9.81 3.843 1.604 8.223-.231 9.81-4.033 4.366-10.463 3.479-22.543-2.375-32.314-6.722-11.22-12.471-23.288-17.303-36.277 26.148-8.81 48.055-26.025 64.447-38.909 13.231-10.401 15.535-29.627 5.135-42.858-1.397-1.779-2.97-3.37-4.677-4.771zm-227.942 129.464c6.434-39.679 12.552-73.646 52.671-73.646 40.059 0 46.212 33.813 52.671 73.646 2.788 17.191 5.465 33.611 11.581 46.448-19.007 4.734-40.007 7.008-64.253 7.008-24.25 0-45.208-2.23-64.262-6.985 6.123-12.84 8.802-29.269 11.592-46.471zm-54.394-52.382c-6.63 2.324-23.061 8.824-28.311 13.418-6.39 5.563-16.164 4.934-21.793-1.397-5.685-6.398-5.106-16.229 1.292-21.914 7.273-6.463 32.906-19.4 57.733-24.945-2.37 12.287-5.34 23.88-8.921 34.838zm-50.255-296.772c20.012 13.204 36.951 28.211 49.301 41.797-18.117 21.738-28.026 48.469-28.026 75.994 0 28.51 10.438 54.122 30.188 74.067 9.344 9.437 13.926 22.675 12.573 36.321-.607 6.126-1.344 12.089-2.191 17.917-11.289 2.031-23.03 5.645-33.742 9.837-38.214-38.284-60.043-91.964-60.043-148.08.001-40.077 11.023-77.205 31.94-107.853zm322.864 255.526c-16.359 12.859-36.374 28.584-59.983 36.497-2.938-9.616-5.426-19.708-7.466-30.32 17.746-6.618 34.504-19.769 48.264-30.585 6.758-5.315 16.504-4.121 21.796 2.612 5.29 6.729 4.118 16.507-2.611 21.796zm-3.92-42.188c-9.03-1.695-17.772.671-24.535 5.988-12.176 9.57-26.87 21.098-41.541 27.252-.878-5.982-1.641-12.103-2.265-18.399-1.352-13.646 3.23-26.884 12.573-36.321 19.749-19.945 30.188-45.557 30.188-74.067 0-27.525-9.909-54.256-28.026-75.994 12.351-13.586 29.29-28.593 49.301-41.798 20.917 30.647 31.939 67.776 31.939 107.853-.001 37.42-9.543 73.759-27.634 105.486z"/></g></svg>