<svg id="Capa_1" enable-background="new 0 0 502 502" height="512" viewBox="0 0 502 502" width="512" xmlns="http://www.w3.org/2000/svg" xmlns:xlink="http://www.w3.org/1999/xlink"><linearGradient id="SVGID_1_" gradientUnits="userSpaceOnUse" x1="251" x2="251" y1="469.439" y2="11.527"><stop offset="0" stop-color="#f4c22c"/><stop offset="1" stop-color="#f9e198"/></linearGradient><linearGradient id="SVGID_2_" gradientUnits="userSpaceOnUse" x1="321.473" x2="321.473" y1="377.54" y2="57.894"><stop offset="0" stop-color="#ad7d63"/><stop offset="1" stop-color="#cb9d82"/></linearGradient><g><path d="m496.491 396.846-6.184-8.33c-23.38-31.495-60.289-50.063-99.513-50.063h-169.536c-10.966 0-19.855-8.889-19.855-19.855v-9.48c0-13.826 4.351-27.223 12.047-38.71 10.608-15.835 16.721-34.431 16.721-54.327 0-57.78-51.526-104.619-115.085-104.619-63.56 0-115.086 46.84-115.086 104.62 0 19.896 6.113 38.492 16.721 54.326 7.695 11.486 12.047 24.884 12.047 38.71v.277c0 72.715 58.947 131.662 131.662 131.662h313.82c22.763 0 35.81-25.933 22.241-44.211z" fill="url(#SVGID_1_)"/><g fill="#fff6bd"><path d="m338.432 419.594h-42.802c-5.523 0-10-4.478-10-10s4.477-10 10-10h42.802c5.522 0 10 4.478 10 10s-4.478 10-10 10z"/><path d="m393.349 419.594h-14.086c-5.522 0-10-4.478-10-10s4.478-10 10-10h14.086c5.522 0 10 4.478 10 10s-4.478 10-10 10z"/></g><path d="m304.667 78.833c-48.602 0-91.926 21.031-120.092 53.854 27.701 19.105 45.595 49.348 45.595 83.394 0 19.896-6.113 38.492-16.721 54.327-7.695 11.487-12.047 24.884-12.047 38.71v9.48c0 6.802 3.424 12.799 8.638 16.378l-.006.005c26.089 19.025 58.938 30.368 94.632 30.368 84.887 0 153.703-64.139 153.703-143.258.001-79.119-68.814-143.258-153.702-143.258z" fill="url(#SVGID_2_)"/><path d="m230.171 216.082c0 2.074-.066 4.134-.198 6.178-.574 8.957 5.716 16.893 14.568 18.373 10.253 1.715 19.689-5.837 20.36-16.211.179-2.77.27-5.551.27-8.34 0-43.16-21.164-81.807-54.342-107.438-9.744 7.014-18.567 15.085-26.254 24.043 27.701 19.105 45.596 49.348 45.596 83.395z" fill="#a37460"/><path d="m383.097 332.863c-44.783 0-81.218-36.435-81.218-81.219 0-34.559 28.116-62.674 62.675-62.674 26.379 0 47.84 21.46 47.84 47.839 0 6.351 5.148 11.5 11.5 11.5s11.5-5.149 11.5-11.5c0-39.061-31.778-70.839-70.84-70.839-47.241 0-85.675 38.434-85.675 85.674 0 51.055 36.904 93.646 85.436 102.515 14.965-5.879 28.721-13.901 40.828-23.657-7.111 1.536-14.483 2.361-22.046 2.361z" fill="#a37460"/><g fill="#fcb500"><path d="m71.365 161.981c-6.351 0-11.5-5.148-11.5-11.5 0-25.677-10.592-49.183-31.482-69.865-4.514-4.468-4.55-11.749-.082-16.263 4.471-4.515 11.752-4.549 16.264-.082 25.414 25.162 38.301 54.167 38.301 86.21-.001 6.351-5.149 11.5-11.501 11.5z"/><path d="m153.609 161.981c-6.352 0-11.5-5.148-11.5-11.5 0-25.677-10.592-49.183-31.482-69.865-4.514-4.468-4.55-11.749-.082-16.263 4.471-4.515 11.752-4.549 16.264-.082 25.414 25.162 38.301 54.167 38.301 86.21-.001 6.351-5.149 11.5-11.501 11.5z"/></g><g><ellipse cx="22.642" cy="232.942" fill="#ff8392" rx="14.925" ry="11.994"/><ellipse cx="198.273" cy="232.942" fill="#ff8392" rx="14.925" ry="11.994"/><ellipse cx="172.686" cy="203.385" fill="#fff" rx="29.557" ry="29.557" transform="matrix(.16 -.987 .987 .16 -55.734 341.263)"/><path d="m155.115 204.833c.755 9.046 8.331 16.153 17.571 16.153 9.241 0 16.817-7.108 17.572-16.153z" fill="#3b3b44"/><path d="m172.686 173.828c-16.324 0-29.557 13.233-29.557 29.557 0 .486.014.968.037 1.447h59.04c.023-.48.037-.962.037-1.447 0-16.324-13.233-29.557-29.557-29.557z" fill="#e06e1c"/><ellipse cx="48.228" cy="203.385" fill="#fff" rx="29.557" ry="29.557" transform="matrix(.16 -.987 .987 .16 -160.256 218.412)"/><path d="m30.657 204.833c.755 9.046 8.331 16.153 17.571 16.153 9.241 0 16.817-7.108 17.571-16.153z" fill="#3b3b44"/><path d="m48.228 173.828c-16.324 0-29.557 13.233-29.557 29.557 0 .486.014.968.037 1.447h59.04c.023-.48.037-.962.037-1.447 0-16.324-13.233-29.557-29.557-29.557z" fill="#e06e1c"/><path d="m121.822 236.391c-1.824 0-3.654-.662-5.098-2-3.748-3.477-8.787-3.477-12.535 0-3.037 2.816-7.782 2.637-10.6-.4-2.816-3.037-2.637-7.783.4-10.6 9.541-8.846 23.393-8.846 32.934 0 3.037 2.816 3.217 7.563.4 10.6-1.477 1.593-3.486 2.4-5.501 2.4z" fill="#3b3b44"/></g></g></svg>