<svg id="Capa_1" enable-background="new 0 0 512 512" height="512" viewBox="0 0 512 512" width="512" xmlns="http://www.w3.org/2000/svg"><g><path d="m458.697 200.62c0-119.601-90.751-200.62-202.697-200.62s-202.697 81.019-202.697 200.62 90.751 216.557 202.697 216.557 202.697-96.956 202.697-216.557z" fill="#e1ac9a"/><path d="m366.401 382.252c-182.369-45.127-219.178-313.732-159.016-376.933-88.465 19.818-154.082 93.606-154.082 195.301 0 119.601 90.75 216.557 202.697 216.557 40.724 0 78.636-12.841 110.401-34.925z" fill="#d2896f"/><path d="m335.743 403.236c-12.9 0-23.471-10.338-23.705-23.289-.237-13.097 10.188-23.905 23.286-24.141 23.618-.426 47.494-19.194 66.68-34.273 10.297-8.097 25.208-6.309 33.303 3.99 8.095 10.298 6.308 25.208-3.99 33.303-23.459 18.44-55.589 43.694-95.138 44.408-.147.001-.292.002-.436.002z" fill="#fae0bd"/><path d="m88.313 412.757c-8.702-9.792-7.817-24.782 1.974-33.483 11.916-10.59 60.803-33.474 93.375-30.001 13.023 1.385 22.457 13.073 21.069 26.097-1.388 13.025-13.073 22.459-26.098 21.07-15.033-1.603-49.314 12.523-57.019 18.451-9.772 8.509-24.633 7.619-33.301-2.134zm33.483 1.974c-.025.022-.049.043-.074.065.026-.022.049-.044.074-.065z" fill="#fae0bd"/><path d="m377.289 339.824c-13.357 8.78-27.708 15.725-41.966 15.982-13.098.236-23.523 11.045-23.286 24.141.234 12.951 10.805 23.289 23.705 23.289.144 0 .29-.001.435-.004 19.189-.347 36.625-6.477 52.178-14.796-4.859-14.767-8.507-30.845-11.066-48.612z" fill="#f8d4a5"/><path d="m183.661 349.272c-15.579-1.661-34.885 2.713-52.098 8.882-4.732 23.459-11.728 43.815-21.309 62.163 4.079-.733 8.018-2.517 11.359-5.426 7.704-5.928 41.986-20.054 57.019-18.451 13.025 1.389 24.71-8.045 26.098-21.07s-8.046-24.713-21.069-26.098z" fill="#f8d4a5"/><path d="m344.41 325.34c-1.593-16.065 3.793-32.143 15.151-43.615 18.063-18.244 28.862-42.333 28.862-70.866 0-66.862-59.288-121.064-132.423-121.064s-132.423 54.202-132.423 121.064c0 28.533 10.799 52.622 28.862 70.866 11.359 11.472 16.744 27.55 15.151 43.615-4.073 41.065-13.737 83.012-36.487 120.985-8.617 14.383-3.533 32.953 11.278 40.811 31.984 16.969 66.876 24.864 113.619 24.864s81.635-7.895 113.618-24.864c14.811-7.858 19.895-26.428 11.278-40.811-22.749-37.972-32.413-79.919-36.486-120.985z" fill="#fbf1cf"/><g fill="#fae0bd"><path d="m167.995 150.122c-17.457-28.487-53.671-57.976-81.815-74.564-12.896-7.601-17.19-24.217-9.589-37.114 7.602-12.898 24.222-17.189 37.115-9.589 31.452 18.537 76.648 54.002 100.511 92.943 7.822 12.764 3.816 29.451-8.948 37.273-12.718 7.793-29.423 3.864-37.274-8.949z"/><path d="m344.005 150.122c17.457-28.487 53.671-57.976 81.815-74.564 12.896-7.601 17.19-24.217 9.589-37.114-7.602-12.898-24.221-17.189-37.115-9.589-31.452 18.537-76.648 54.002-100.511 92.943-7.822 12.764-3.816 29.451 8.948 37.273 12.718 7.793 29.423 3.864 37.274-8.949z"/><path d="m256 512c30.119 0 55.302-3.3 77.972-10.171-26.952-35.844-3.571-136.22-77.972-136.22s-51.02 100.376-77.972 136.22c22.67 6.871 47.853 10.171 77.972 10.171z"/></g><g><g fill="#eda1ab"><ellipse cx="169.913" cy="226.996" rx="31.765" ry="25.296"/><ellipse cx="342.087" cy="226.996" rx="31.765" ry="25.296"/></g><g fill="#4e5660"><path d="m188.425 209.835c-4.143 0-7.5-3.358-7.5-7.5v-12.362c0-4.142 3.357-7.5 7.5-7.5s7.5 3.358 7.5 7.5v12.362c0 4.142-3.358 7.5-7.5 7.5z"/><path d="m256 217.876c-8.997 0-17.552-3.897-23.471-10.69-2.721-3.123-2.395-7.861.729-10.582 3.122-2.721 7.859-2.395 10.582.728 3.069 3.523 7.501 5.544 12.16 5.544s9.091-2.021 12.16-5.544c2.722-3.124 7.46-3.449 10.582-.728 3.123 2.721 3.449 7.459.729 10.582-5.919 6.793-14.474 10.69-23.471 10.69z"/><path d="m340.287 209.49c-4.143 0-7.5-3.358-7.5-7.5 0-3.764-3.062-6.826-6.825-6.826-3.764 0-6.826 3.062-6.826 6.826 0 4.142-3.357 7.5-7.5 7.5s-7.5-3.358-7.5-7.5c0-12.035 9.791-21.826 21.826-21.826 12.034 0 21.825 9.791 21.825 21.826 0 4.142-3.357 7.5-7.5 7.5z"/></g></g></g></svg>