<svg xmlns="http://www.w3.org/2000/svg" xmlns:xlink="http://www.w3.org/1999/xlink" xmlns:lucid="lucid" width="1290.79" height="1271.55"><g transform="translate(-80 -248.4535768932946)" lucid:page-tab-id="0_0"><path d="M100 834.38c0-2.76 2.24-5 5-5h170c2.76 0 5 2.24 5 5V915c0 2.76-2.24 5-5 5H105c-2.76 0-5-2.24-5-5z" stroke="#000" stroke-opacity="0" stroke-width="2" fill="#113667"/><use xlink:href="#a" transform="matrix(1,0,0,1,105,834.3838272516819) translate(12.01543209876543 45.892361111111114)"/><use xlink:href="#b" transform="matrix(1,0,0,1,105,834.3838272516819) translate(90.57716049382717 45.892361111111114)"/><path d="M340 485c0-2.76 2.24-5 5-5h150c2.76 0 5 2.24 5 5v90.55c0 2.76-2.24 5-5 5H345c-2.76 0-5-2.24-5-5z" stroke="#000" stroke-opacity="0" stroke-width="2" fill="#225798"/><use xlink:href="#c" transform="matrix(1,0,0,1,345,485) translate(24.787037037037024 36.61805555555556)"/><use xlink:href="#d" transform="matrix(1,0,0,1,345,485) translate(3.771604938271608 65.95138888888889)"/><path d="M280.5 874.7H298c6.63 0 12-5.38 12-12V542.27c0-6.63 5.37-12 12-12h1.62" stroke="#333" fill="none"/><path d="M280.5 875.2h-.5v-1h.5z" fill="#333"/><path d="M338.38 530.28l-14.26 4.63v-9.26z" stroke="#333" fill="#333"/><path d="M460 745c0-2.76 2.24-5 5-5h150c2.76 0 5 2.24 5 5v90.55c0 2.76-2.24 5-5 5H465c-2.76 0-5-2.24-5-5z" stroke="#000" stroke-opacity="0" stroke-width="2" fill="#225798"/><use xlink:href="#e" transform="matrix(1,0,0,1,465,745) translate(31 36.61805555555556)"/><use xlink:href="#f" transform="matrix(1,0,0,1,465,745) translate(30.898148148148152 65.95138888888889)"/><path d="M460 1050.08c0-2.76 2.24-5 5-5h150c2.76 0 5 2.24 5 5v90.56c0 2.76-2.24 5-5 5H465c-2.76 0-5-2.24-5-5z" stroke="#000" stroke-opacity="0" stroke-width="2" fill="#225798"/><use xlink:href="#g" transform="matrix(1,0,0,1,465,1050.0832634575336) translate(43.833333333333336 36.61805555555556)"/><use xlink:href="#f" transform="matrix(1,0,0,1,465,1050.0832634575336) translate(30.898148148148152 65.95138888888889)"/><path d="M340 1304.26c0-2.76 2.24-5 5-5h150c2.76 0 5 2.24 5 5v90.56c0 2.76-2.24 5-5 5H345c-2.76 0-5-2.24-5-5z" stroke="#000" stroke-opacity="0" stroke-width="2" fill="#225798"/><use xlink:href="#h" transform="matrix(1,0,0,1,345,1304.2615269150667) translate(44.47839506172839 36.61805555555556)"/><use xlink:href="#f" transform="matrix(1,0,0,1,345,1304.2615269150667) translate(30.898148148148152 65.95138888888889)"/><path d="M280.5 874.7H298c6.63 0 12 5.36 12 12v450.84c0 6.63 5.37 12 12 12h1.62" stroke="#333" fill="none"/><path d="M280.5 875.2h-.5v-1h.5z" fill="#333"/><path d="M338.38 1349.54l-14.26 4.63v-9.27z" stroke="#333" fill="#333"/><path d="M280.5 874.7H358c6.63 0 12-5.38 12-12v-60.42c0-6.63 5.37-12 12-12h61.62" stroke="#333" fill="none"/><path d="M280.5 875.2h-.5v-1h.5z" fill="#333"/><path d="M458.38 790.28l-14.26 4.63v-9.26z" stroke="#333" fill="#333"/><path d="M280.5 874.7H358c6.63 0 12 5.36 12 12v196.66c0 6.63 5.37 12 12 12h61.62" stroke="#333" fill="none"/><path d="M280.5 875.2h-.5v-1h.5z" fill="#333"/><path d="M458.38 1095.36l-14.26 4.64v-9.28z" stroke="#333" fill="#333"/><path d="M599.52 285c0-2.76 2.24-5 5-5h150c2.76 0 5 2.24 5 5v110c0 2.76-2.24 5-5 5h-150c-2.76 0-5-2.24-5-5z" stroke="#000" stroke-opacity="0" stroke-width="3" fill="#3278ca"/><use xlink:href="#i" transform="matrix(1,0,0,1,604.5213070194004,285) translate(32.93518518518519 43.61805555555556)"/><use xlink:href="#j" transform="matrix(1,0,0,1,604.5213070194004,285) translate(24.787037037037024 72.95138888888889)"/><path d="M500.5 530.28h37.26c6.63 0 12-5.38 12-12V352c0-6.63 5.37-12 12-12h21.38" stroke="#333" fill="none"/><path d="M500.5 530.78h-.5v-1h.5z" fill="#333"/><path d="M597.9 340l-14.26 4.64v-9.28z" stroke="#333" fill="#333"/><path d="M599.52 445c0-2.76 2.24-5 5-5h150c2.76 0 5 2.24 5 5v110c0 2.76-2.24 5-5 5h-150c-2.76 0-5-2.24-5-5z" stroke="#000" stroke-opacity="0" stroke-width="3" fill="#3278ca"/><use xlink:href="#k" transform="matrix(1,0,0,1,604.5213070194004,445) translate(14.635802469135783 43.61805555555556)"/><use xlink:href="#j" transform="matrix(1,0,0,1,604.5213070194004,445) translate(24.787037037037024 72.95138888888889)"/><path d="M500.5 530.28h37.26c6.63 0 12-5.38 12-12V512c0-6.63 5.37-12 12-12h21.38" stroke="#333" fill="none"/><path d="M500.5 530.78h-.5v-1h.5z" fill="#333"/><path d="M597.9 500l-14.26 4.64v-9.28z" stroke="#333" fill="#333"/><path d="M599.52 580.1c0-2.77 2.24-5 5-5h150c2.76 0 5 2.23 5 5v108.18c0 2.76-2.24 5-5 5h-150c-2.76 0-5-2.24-5-5z" stroke="#000" stroke-opacity="0" stroke-width="3" fill="#3278ca"/><use xlink:href="#l" transform="matrix(1,0,0,1,604.5213070194004,580.0928462132288) translate(14.703703703703695 43.39930555555556)"/><use xlink:href="#m" transform="matrix(1,0,0,1,604.5213070194004,580.0928462132288) translate(46.48148148148148 72.73263888888889)"/><path d="M500.5 530.28h37.26c6.63 0 12 5.37 12 12v79.9c0 6.63 5.37 12 12 12h21.38" stroke="#333" fill="none"/><path d="M500.5 530.78h-.5v-1h.5z" fill="#333"/><path d="M597.9 634.2l-14.26 4.62v-9.27z" stroke="#333" fill="#333"/><path d="M1007.46 271.45c2.2-1.65 5.8-1.65 8 0l87.4 65.55c2.2 1.66 2.2 4.34 0 6l-87.4 65.55c-2.2 1.65-5.8 1.65-8 0L920.06 343c-2.2-1.66-2.2-4.34 0-6z" stroke="#225798" stroke-width="4" fill="#fff"/><use xlink:href="#n" transform="matrix(1,0,0,1,920.5009855967756,272.8915768932946) translate(59.02969135802469 72.62152777777777)"/><path d="M760.02 340h140.2" stroke="#333" fill="none"/><path d="M760.03 340.5h-.5v-1h.5z" fill="#333"/><path d="M914.97 340l-14.26 4.64v-9.28z" stroke="#333" fill="#333"/><path d="M760.02 500h90.6c6.64 0 12-5.37 12-12V340.5" stroke="#333" fill="none"/><path d="M760.03 500.5h-.5v-1h.5z" fill="#333"/><path d="M862.63 340.5v-.5" stroke="#333" fill="none"/><path d="M1006.28 536.85c2.06-1.84 5.38-1.84 7.44 0l102.56 92.27c2.06 1.85 2.06 4.84 0 6.7l-102.56 92.26c-2.06 1.85-5.38 1.85-7.44 0L903.72 635.8c-2.06-1.84-2.06-4.83 0-6.68z" stroke="#4397ff" stroke-width="4" fill="#fff"/><use xlink:href="#o" transform="matrix(1,0,0,1,904.438,537.9482626301343) translate(52.480308641975306 71.21527777777777)"/><use xlink:href="#p" transform="matrix(1,0,0,1,904.438,537.9482626301343) translate(18.99882716049384 97.88194444444446)"/><use xlink:href="#q" transform="matrix(1,0,0,1,904.438,537.9482626301343) translate(101.65314814814815 97.88194444444446)"/><use xlink:href="#r" transform="matrix(1,0,0,1,904.438,537.9482626301343) translate(168.31981481481478 97.88194444444446)"/><use xlink:href="#s" transform="matrix(1,0,0,1,904.438,537.9482626301343) translate(50.62845679012346 124.54861111111111)"/><path d="M760.02 634.2H884.06" stroke="#333" fill="none"/><path d="M760.03 634.7h-.5v-1h.5z" fill="#333"/><path d="M898.82 634.2l-14.26 4.62v-9.27z" stroke="#333" fill="#333"/><path d="M1010.5 533h-1v-46.88h1zm1.46-73.8h-1v-31h1zM1010.5 533.47l-1 .1V533h1zM1016.1 427.7h-9.28l4.64-14.27z" fill="#333"/><path d="M1016.78 428.2h-10.65l5.33-16.4zm-9.27-1h7.9l-3.94-12.15z" fill="#333"/><use xlink:href="#t" transform="matrix(1,0,0,1,932.0488612873605,459.18867428135445) translate(0.0049999999999954525 17.95555555555555)"/><use xlink:href="#u" transform="matrix(1,0,0,1,932.0488612873605,459.18867428135445) translate(70.26858024691356 17.95555555555555)"/><path d="M700 775.28c0-2.76 2.24-5 5-5h150c2.76 0 5 2.24 5 5v30c0 2.76-2.24 5-5 5H705c-2.76 0-5-2.24-5-5z" stroke="#000" stroke-opacity="0" stroke-width="3" fill="#3278ca"/><use xlink:href="#v" transform="matrix(1,0,0,1,705,775.2767365219183) translate(28.8611111111111 21.430555555555557)"/><path d="M620.5 790.28h63.12" stroke="#333" fill="none"/><path d="M620.5 790.78h-.5v-1h.5z" fill="#333"/><path d="M698.38 790.28l-14.26 4.63v-9.26z" stroke="#333" fill="#333"/><path d="M700 865c0-2.76 2.24-5 5-5h150c2.76 0 5 2.24 5 5v30c0 2.76-2.24 5-5 5H705c-2.76 0-5-2.24-5-5z" stroke="#000" stroke-opacity="0" stroke-width="3" fill="#3278ca"/><use xlink:href="#w" transform="matrix(1,0,0,1,705,865) translate(48.38271604938272 21.430555555555557)"/><path d="M620.5 790.28H648c6.63 0 12 5.37 12 12V868c0 6.63 5.37 12 12 12h11.62" stroke="#333" fill="none"/><path d="M620.5 790.78h-.5v-1h.5z" fill="#333"/><path d="M698.38 880l-14.26 4.64v-9.28z" stroke="#333" fill="#333"/><path d="M860.5 880H888c6.63 0 12-5.37 12-12v-16c0-6.63 5.37-12 12-12h11.62" stroke="#333" fill="none"/><path d="M860.5 880.5h-.5v-1h.5z" fill="#333"/><path d="M938.38 840l-14.26 4.64v-9.28z" stroke="#333" fill="#333"/><path d="M940 825c0-2.76 2.24-5 5-5h90c2.76 0 5 2.24 5 5v30c0 2.76-2.24 5-5 5h-90c-2.76 0-5-2.24-5-5z" stroke="#000" stroke-opacity="0" stroke-width="3" fill="#75b2ff"/><use xlink:href="#x" transform="matrix(1,0,0,1,945,825) translate(19.231481481481485 21.430555555555557)"/><path d="M940 905c0-2.76 2.24-5 5-5h90c2.76 0 5 2.24 5 5v30c0 2.76-2.24 5-5 5h-90c-2.76 0-5-2.24-5-5z" stroke="#000" stroke-opacity="0" stroke-width="3" fill="#75b2ff"/><use xlink:href="#y" transform="matrix(1,0,0,1,945,905) translate(18.58641975308642 21.430555555555557)"/><path d="M860.5 880H888c6.63 0 12 5.37 12 12v16c0 6.63 5.37 12 12 12h11.62" stroke="#333" fill="none"/><path d="M860.5 880.5h-.5v-1h.5z" fill="#333"/><path d="M938.38 920l-14.26 4.64v-9.28z" stroke="#333" fill="#333"/><path d="M860.5 790.28H1084c6.6 0 12 5.37 12 12v37.22" stroke="#333" fill="none"/><path d="M860.5 790.78h-.5v-1h.5z" fill="#333"/><path d="M1096 839.5v.5M1040.5 840h103.64" stroke="#333" fill="none"/><path d="M1040.5 840.5h-.5v-1h.5z" fill="#333"/><path d="M1158.9 840l-14.26 4.64v-9.28z" stroke="#333" fill="#333"/><path d="M1040.5 920h43.5c6.6 0 12-5.37 12-12v-67.5" stroke="#333" fill="none"/><path d="M1040.5 920.5h-.5v-1h.5z" fill="#333"/><path d="M1096 840.5v-.5" stroke="#333" fill="none"/><path d="M1251.4 771.45c2.2-1.65 5.8-1.65 8 0l87.4 65.55c2.2 1.66 2.2 4.34 0 6l-87.4 65.55c-2.2 1.65-5.8 1.65-8 0L1164 843c-2.2-1.66-2.2-4.34 0-6z" stroke="#225798" stroke-width="4" fill="#fff"/><use xlink:href="#n" transform="matrix(1,0,0,1,1164.438,772.8915768932947) translate(59.02969135802469 72.62152777777777)"/><path d="M908.03 985c0-2.76 2.24-5 5-5h180.8c2.75 0 5 2.24 5 5v30c0 2.76-2.25 5-5 5h-180.8c-2.76 0-5-2.24-5-5z" stroke="#000" stroke-opacity="0" stroke-width="3" fill="#75b2ff"/><use xlink:href="#z" transform="matrix(1,0,0,1,913.0314927983878,985) translate(21.308641975308646 21.430555555555557)"/><use xlink:href="#A" transform="matrix(1,0,0,1,913.0314927983878,985) translate(90.4320987654321 21.430555555555557)"/><path d="M756 983c2.2-1.66 5.8-1.66 8 0l72 54c2.2 1.66 2.2 4.34 0 6l-72 54c-2.2 1.66-5.8 1.66-8 0l-72-54c-2.2-1.66-2.2-4.34 0-6z" stroke="#4397ff" stroke-width="4" fill="#fff"/><use xlink:href="#B" transform="matrix(1,0,0,1,684.438,984.438) translate(39.73339506172839 59.77777777777778)"/><path d="M620.5 1095.36h17.76c6.63 0 12-5.37 12-12V1052c0-6.63 5.38-12 12-12h1.88" stroke="#333" fill="none"/><path d="M620.5 1095.86h-.5v-1h.5z" fill="#333"/><path d="M678.9 1040l-14.26 4.64v-9.28z" stroke="#333" fill="#333"/><path d="M839.97 1040h21.78c6.63 0 12-5.37 12-12v-16c0-6.63 5.37-12 12-12h5.9" stroke="#333" fill="none"/><path d="M840 1040.5h-.53v-1h.52z" fill="#333"/><path d="M906.4 1000l-14.25 4.64v-9.28z" stroke="#333" fill="#333"/><path d="M910.04 1050.08c0-2.76 2.24-5 5-5h176.77c2.78 0 5 2.24 5 5v50c0 2.76-2.22 5-5 5H915.05c-2.76 0-5-2.24-5-5z" stroke="#000" stroke-opacity="0" stroke-width="3" fill="#75b2ff"/><use xlink:href="#C" transform="matrix(1,0,0,1,915.0393659979849,1050.0832634575336) translate(2.944444444444443 19.555555555555557)"/><use xlink:href="#D" transform="matrix(1,0,0,1,915.0393659979849,1050.0832634575336) translate(97.73456790123457 19.555555555555557)"/><use xlink:href="#E" transform="matrix(1,0,0,1,915.0393659979849,1050.0832634575336) translate(157.75925925925924 19.555555555555557)"/><use xlink:href="#F" transform="matrix(1,0,0,1,915.0393659979849,1050.0832634575336) translate(42.3611111111111 48.88888888888889)"/><path d="M839.97 1040h22.8c6.6 0 12 5.37 12 12v11.08c0 6.63 5.36 12 12 12h6.9" stroke="#333" fill="none"/><path d="M840 1040.5h-.53v-1h.52z" fill="#333"/><path d="M908.42 1075.08l-14.26 4.64v-9.27z" stroke="#333" fill="#333"/><path d="M620.5 1095.36h17.76c6.63 0 12 5.37 12 12V1168c0 6.63 5.38 12 12 12h1.88" stroke="#333" fill="none"/><path d="M620.5 1095.86h-.5v-1h.5z" fill="#333"/><path d="M678.9 1180l-14.26 4.64v-9.28z" stroke="#333" fill="#333"/><path d="M756 1123c2.2-1.66 5.8-1.66 8 0l72 54c2.2 1.66 2.2 4.34 0 6l-72 54c-2.2 1.66-5.8 1.66-8 0l-72-54c-2.2-1.66-2.2-4.34 0-6z" stroke="#225798" stroke-width="4" fill="#fff"/><g><use xlink:href="#G" transform="matrix(1,0,0,1,684.438,1124.438) translate(18.86919753086419 59.77777777777778)"/><use xlink:href="#H" transform="matrix(1,0,0,1,684.438,1124.438) translate(74.17783950617283 59.77777777777778)"/><use xlink:href="#I" transform="matrix(1,0,0,1,684.438,1124.438) translate(95.16549382716049 59.77777777777778)"/></g><path d="M500.5 1349.54h27.76c6.63 0 12-5.37 12-12V1312c0-6.63 5.38-12 12-12h11.88" stroke="#333" fill="none"/><path d="M500.5 1350.04h-.5v-1h.5z" fill="#333"/><path d="M578.9 1300l-14.26 4.64v-9.28z" stroke="#333" fill="#333"/><path d="M656 1243c2.2-1.66 5.8-1.66 8 0l72 54c2.2 1.66 2.2 4.34 0 6l-72 54c-2.2 1.66-5.8 1.66-8 0l-72-54c-2.2-1.66-2.2-4.34 0-6z" stroke="#225798" stroke-width="4" fill="#fff"/><g><use xlink:href="#J" transform="matrix(1,0,0,1,584.438,1244.438) translate(55.751913580246914 27.787777777777777)"/><use xlink:href="#K" transform="matrix(1,0,0,1,584.438,1244.438) translate(53.3445061728395 54.45444444444445)"/><use xlink:href="#L" transform="matrix(1,0,0,1,584.438,1244.438) translate(44.08524691358025 81.1211111111111)"/></g><path d="M656 1383c2.2-1.66 5.8-1.66 8 0l72 54c2.2 1.66 2.2 4.34 0 6l-72 54c-2.2 1.66-5.8 1.66-8 0l-72-54c-2.2-1.66-2.2-4.34 0-6z" stroke="#225798" stroke-width="4" fill="#fff"/><g><use xlink:href="#M" transform="matrix(1,0,0,1,584.438,1384.438) translate(41.55438271604938 59.77777777777778)"/></g><path d="M500.5 1349.54h27.76c6.63 0 12 5.37 12 12V1428c0 6.63 5.38 12 12 12h11.88" stroke="#333" fill="none"/><path d="M500.5 1350.04h-.5v-1h.5z" fill="#333"/><path d="M578.9 1440l-14.26 4.64v-9.28z" stroke="#333" fill="#333"/><defs><path fill="#fff" d="M30 0v-248h33v221h125V0H30" id="N"/><path fill="#fff" d="M100-194c62-1 85 37 85 99 1 63-27 99-86 99S16-35 15-95c0-66 28-99 85-99zM99-20c44 1 53-31 53-75 0-43-8-75-51-75s-53 32-53 75 10 74 51 75" id="O"/><path fill="#fff" d="M177-190C167-65 218 103 67 71c-23-6-38-20-44-43l32-5c15 47 100 32 89-28v-30C133-14 115 1 83 1 29 1 15-40 15-95c0-56 16-97 71-98 29-1 48 16 59 35 1-10 0-23 2-32h30zM94-22c36 0 50-32 50-73 0-42-14-75-50-75-39 0-46 34-46 75s6 73 46 73" id="P"/><path fill="#fff" d="M24-231v-30h32v30H24zM24 0v-190h32V0H24" id="Q"/><path fill="#fff" d="M117-194c89-4 53 116 60 194h-32v-121c0-31-8-49-39-48C34-167 62-67 57 0H25l-1-190h30c1 10-1 24 2 32 11-22 29-35 61-36" id="R"/><g id="a"><use transform="matrix(0.08024691358024691,0,0,0.08024691358024691,0,0)" xlink:href="#N"/><use transform="matrix(0.08024691358024691,0,0,0.08024691358024691,16.049382716049383,0)" xlink:href="#O"/><use transform="matrix(0.08024691358024691,0,0,0.08024691358024691,32.098765432098766,0)" xlink:href="#P"/><use transform="matrix(0.08024691358024691,0,0,0.08024691358024691,48.14814814814815,0)" xlink:href="#Q"/><use transform="matrix(0.08024691358024691,0,0,0.08024691358024691,54.48765432098766,0)" xlink:href="#R"/></g><path fill="#fff" d="M30-248c87 1 191-15 191 75 0 78-77 80-158 76V0H30v-248zm33 125c57 0 124 11 124-50 0-59-68-47-124-48v98" id="S"/><path fill="#fff" d="M141-36C126-15 110 5 73 4 37 3 15-17 15-53c-1-64 63-63 125-63 3-35-9-54-41-54-24 1-41 7-42 31l-33-3c5-37 33-52 76-52 45 0 72 20 72 64v82c-1 20 7 32 28 27v20c-31 9-61-2-59-35zM48-53c0 20 12 33 32 33 41-3 63-29 60-74-43 2-92-5-92 41" id="T"/><path fill="#fff" d="M100-194c63 0 86 42 84 106H49c0 40 14 67 53 68 26 1 43-12 49-29l28 8c-11 28-37 45-77 45C44 4 14-33 15-96c1-61 26-98 85-98zm52 81c6-60-76-77-97-28-3 7-6 17-6 28h103" id="U"/><g id="b"><use transform="matrix(0.08024691358024691,0,0,0.08024691358024691,0,0)" xlink:href="#S"/><use transform="matrix(0.08024691358024691,0,0,0.08024691358024691,19.25925925925926,0)" xlink:href="#T"/><use transform="matrix(0.08024691358024691,0,0,0.08024691358024691,35.308641975308646,0)" xlink:href="#P"/><use transform="matrix(0.08024691358024691,0,0,0.08024691358024691,51.358024691358025,0)" xlink:href="#U"/></g><path fill="#fff" d="M33 0v-248h34V0H33" id="V"/><path fill="#fff" d="M108 0H70L1-190h34L89-25l56-165h34" id="W"/><path fill="#fff" d="M59-47c-2 24 18 29 38 22v24C64 9 27 4 27-40v-127H5v-23h24l9-43h21v43h35v23H59v120" id="X"/><path fill="#fff" d="M114-163C36-179 61-72 57 0H25l-1-190h30c1 12-1 29 2 39 6-27 23-49 58-41v29" id="Y"/><path fill="#fff" d="M179-190L93 31C79 59 56 82 12 73V49c39 6 53-20 64-50L1-190h34L92-34l54-156h33" id="Z"/><g id="c"><use transform="matrix(0.06790123456790123,0,0,0.06790123456790123,0,0)" xlink:href="#V"/><use transform="matrix(0.06790123456790123,0,0,0.06790123456790123,6.790123456790123,0)" xlink:href="#R"/><use transform="matrix(0.06790123456790123,0,0,0.06790123456790123,20.37037037037037,0)" xlink:href="#W"/><use transform="matrix(0.06790123456790123,0,0,0.06790123456790123,32.592592592592595,0)" xlink:href="#U"/><use transform="matrix(0.06790123456790123,0,0,0.06790123456790123,46.17283950617284,0)" xlink:href="#R"/><use transform="matrix(0.06790123456790123,0,0,0.06790123456790123,59.75308641975309,0)" xlink:href="#X"/><use transform="matrix(0.06790123456790123,0,0,0.06790123456790123,66.54320987654322,0)" xlink:href="#O"/><use transform="matrix(0.06790123456790123,0,0,0.06790123456790123,80.12345679012347,0)" xlink:href="#Y"/><use transform="matrix(0.06790123456790123,0,0,0.06790123456790123,88.20370370370372,0)" xlink:href="#Z"/></g><path fill="#fff" d="M240 0l2-218c-23 76-54 145-80 218h-23L58-218 59 0H30v-248h44l77 211c21-75 51-140 76-211h43V0h-30" id="aa"/><path fill="#fff" d="M210-169c-67 3-38 105-44 169h-31v-121c0-29-5-50-35-48C34-165 62-65 56 0H25l-1-190h30c1 10-1 24 2 32 10-44 99-50 107 0 11-21 27-35 58-36 85-2 47 119 55 194h-31v-121c0-29-5-49-35-48" id="ab"/><g id="d"><use transform="matrix(0.06790123456790123,0,0,0.06790123456790123,0,0)" xlink:href="#aa"/><use transform="matrix(0.06790123456790123,0,0,0.06790123456790123,20.30246913580247,0)" xlink:href="#T"/><use transform="matrix(0.06790123456790123,0,0,0.06790123456790123,33.882716049382715,0)" xlink:href="#R"/><use transform="matrix(0.06790123456790123,0,0,0.06790123456790123,47.46296296296296,0)" xlink:href="#T"/><use transform="matrix(0.06790123456790123,0,0,0.06790123456790123,61.04320987654321,0)" xlink:href="#P"/><use transform="matrix(0.06790123456790123,0,0,0.06790123456790123,74.62345679012346,0)" xlink:href="#U"/><use transform="matrix(0.06790123456790123,0,0,0.06790123456790123,88.2037037037037,0)" xlink:href="#ab"/><use transform="matrix(0.06790123456790123,0,0,0.06790123456790123,108.50617283950616,0)" xlink:href="#U"/><use transform="matrix(0.06790123456790123,0,0,0.06790123456790123,122.0864197530864,0)" xlink:href="#R"/><use transform="matrix(0.06790123456790123,0,0,0.06790123456790123,135.66666666666666,0)" xlink:href="#X"/></g><path fill="#fff" d="M30-248c118-7 216 8 213 122C240-48 200 0 122 0H30v-248zM63-27c89 8 146-16 146-99s-60-101-146-95v194" id="ac"/><path fill="#fff" d="M24 0v-261h32V0H24" id="ad"/><g id="e"><use transform="matrix(0.06790123456790123,0,0,0.06790123456790123,0,0)" xlink:href="#ac"/><use transform="matrix(0.06790123456790123,0,0,0.06790123456790123,17.586419753086417,0)" xlink:href="#U"/><use transform="matrix(0.06790123456790123,0,0,0.06790123456790123,31.166666666666664,0)" xlink:href="#ad"/><use transform="matrix(0.06790123456790123,0,0,0.06790123456790123,36.53086419753086,0)" xlink:href="#Q"/><use transform="matrix(0.06790123456790123,0,0,0.06790123456790123,41.895061728395056,0)" xlink:href="#W"/><use transform="matrix(0.06790123456790123,0,0,0.06790123456790123,54.11728395061728,0)" xlink:href="#U"/><use transform="matrix(0.06790123456790123,0,0,0.06790123456790123,67.69753086419752,0)" xlink:href="#Y"/><use transform="matrix(0.06790123456790123,0,0,0.06790123456790123,75.77777777777777,0)" xlink:href="#Z"/></g><path fill="#fff" d="M185-189c-5-48-123-54-124 2 14 75 158 14 163 119 3 78-121 87-175 55-17-10-28-26-33-46l33-7c5 56 141 63 141-1 0-78-155-14-162-118-5-82 145-84 179-34 5 7 8 16 11 25" id="ae"/><path fill="#fff" d="M135-143c-3-34-86-38-87 0 15 53 115 12 119 90S17 21 10-45l28-5c4 36 97 45 98 0-10-56-113-15-118-90-4-57 82-63 122-42 12 7 21 19 24 35" id="af"/><g id="f"><use transform="matrix(0.06790123456790123,0,0,0.06790123456790123,0,0)" xlink:href="#ae"/><use transform="matrix(0.06790123456790123,0,0,0.06790123456790123,16.296296296296294,0)" xlink:href="#U"/><use transform="matrix(0.06790123456790123,0,0,0.06790123456790123,29.87654320987654,0)" xlink:href="#X"/><use transform="matrix(0.06790123456790123,0,0,0.06790123456790123,36.666666666666664,0)" xlink:href="#X"/><use transform="matrix(0.06790123456790123,0,0,0.06790123456790123,43.456790123456784,0)" xlink:href="#Q"/><use transform="matrix(0.06790123456790123,0,0,0.06790123456790123,48.82098765432098,0)" xlink:href="#R"/><use transform="matrix(0.06790123456790123,0,0,0.06790123456790123,62.40123456790122,0)" xlink:href="#P"/><use transform="matrix(0.06790123456790123,0,0,0.06790123456790123,75.98148148148147,0)" xlink:href="#af"/></g><path fill="#fff" d="M140-251c81 0 123 46 123 126C263-46 219 4 140 4 59 4 17-45 17-125s42-126 123-126zm0 227c63 0 89-41 89-101s-29-99-89-99c-61 0-89 39-89 99S79-25 140-24" id="ag"/><path fill="#fff" d="M85-194c31 0 48 13 60 33l-1-100h32l1 261h-30c-2-10 0-23-3-31C134-8 116 4 85 4 32 4 16-35 15-94c0-66 23-100 70-100zm9 24c-40 0-46 34-46 75 0 40 6 74 45 74 42 0 51-32 51-76 0-42-9-74-50-73" id="ah"/><g id="g"><use transform="matrix(0.06790123456790123,0,0,0.06790123456790123,0,0)" xlink:href="#ag"/><use transform="matrix(0.06790123456790123,0,0,0.06790123456790123,19.012345679012345,0)" xlink:href="#Y"/><use transform="matrix(0.06790123456790123,0,0,0.06790123456790123,27.09259259259259,0)" xlink:href="#ah"/><use transform="matrix(0.06790123456790123,0,0,0.06790123456790123,40.672839506172835,0)" xlink:href="#U"/><use transform="matrix(0.06790123456790123,0,0,0.06790123456790123,54.25308641975308,0)" xlink:href="#Y"/></g><path fill="#fff" d="M106-169C34-169 62-67 57 0H25v-261h32l-1 103c12-21 28-36 61-36 89 0 53 116 60 194h-32v-121c2-32-8-49-39-48" id="ai"/><g id="h"><use transform="matrix(0.06790123456790123,0,0,0.06790123456790123,0,0)" xlink:href="#ag"/><use transform="matrix(0.06790123456790123,0,0,0.06790123456790123,19.012345679012345,0)" xlink:href="#X"/><use transform="matrix(0.06790123456790123,0,0,0.06790123456790123,25.80246913580247,0)" xlink:href="#ai"/><use transform="matrix(0.06790123456790123,0,0,0.06790123456790123,39.382716049382715,0)" xlink:href="#U"/><use transform="matrix(0.06790123456790123,0,0,0.06790123456790123,52.96296296296296,0)" xlink:href="#Y"/></g><path fill="#fff" d="M84 4C-5 8 30-112 23-190h32v120c0 31 7 50 39 49 72-2 45-101 50-169h31l1 190h-30c-1-10 1-25-2-33-11 22-28 36-60 37" id="aj"/><path fill="#fff" d="M96-169c-40 0-48 33-48 73s9 75 48 75c24 0 41-14 43-38l32 2c-6 37-31 61-74 61-59 0-76-41-82-99-10-93 101-131 147-64 4 7 5 14 7 22l-32 3c-4-21-16-35-41-35" id="ak"/><g id="i"><use transform="matrix(0.06790123456790123,0,0,0.06790123456790123,0,0)" xlink:href="#S"/><use transform="matrix(0.06790123456790123,0,0,0.06790123456790123,16.296296296296294,0)" xlink:href="#Y"/><use transform="matrix(0.06790123456790123,0,0,0.06790123456790123,24.37654320987654,0)" xlink:href="#O"/><use transform="matrix(0.06790123456790123,0,0,0.06790123456790123,37.95679012345679,0)" xlink:href="#ah"/><use transform="matrix(0.06790123456790123,0,0,0.06790123456790123,51.53703703703703,0)" xlink:href="#aj"/><use transform="matrix(0.06790123456790123,0,0,0.06790123456790123,65.11728395061728,0)" xlink:href="#ak"/><use transform="matrix(0.06790123456790123,0,0,0.06790123456790123,77.33950617283949,0)" xlink:href="#X"/></g><g id="j"><use transform="matrix(0.06790123456790123,0,0,0.06790123456790123,0,0)" xlink:href="#V"/><use transform="matrix(0.06790123456790123,0,0,0.06790123456790123,6.790123456790123,0)" xlink:href="#R"/><use transform="matrix(0.06790123456790123,0,0,0.06790123456790123,20.37037037037037,0)" xlink:href="#W"/><use transform="matrix(0.06790123456790123,0,0,0.06790123456790123,32.592592592592595,0)" xlink:href="#U"/><use transform="matrix(0.06790123456790123,0,0,0.06790123456790123,46.17283950617284,0)" xlink:href="#R"/><use transform="matrix(0.06790123456790123,0,0,0.06790123456790123,59.75308641975309,0)" xlink:href="#X"/><use transform="matrix(0.06790123456790123,0,0,0.06790123456790123,66.54320987654322,0)" xlink:href="#O"/><use transform="matrix(0.06790123456790123,0,0,0.06790123456790123,80.12345679012347,0)" xlink:href="#Y"/><use transform="matrix(0.06790123456790123,0,0,0.06790123456790123,88.20370370370372,0)" xlink:href="#Z"/></g><g id="k"><use transform="matrix(0.06790123456790123,0,0,0.06790123456790123,0,0)" xlink:href="#V"/><use transform="matrix(0.06790123456790123,0,0,0.06790123456790123,6.790123456790123,0)" xlink:href="#R"/><use transform="matrix(0.06790123456790123,0,0,0.06790123456790123,20.37037037037037,0)" xlink:href="#P"/><use transform="matrix(0.06790123456790123,0,0,0.06790123456790123,33.95061728395062,0)" xlink:href="#Y"/><use transform="matrix(0.06790123456790123,0,0,0.06790123456790123,42.03086419753087,0)" xlink:href="#U"/><use transform="matrix(0.06790123456790123,0,0,0.06790123456790123,55.611111111111114,0)" xlink:href="#ah"/><use transform="matrix(0.06790123456790123,0,0,0.06790123456790123,69.19135802469137,0)" xlink:href="#Q"/><use transform="matrix(0.06790123456790123,0,0,0.06790123456790123,74.55555555555557,0)" xlink:href="#U"/><use transform="matrix(0.06790123456790123,0,0,0.06790123456790123,88.13580246913583,0)" xlink:href="#R"/><use transform="matrix(0.06790123456790123,0,0,0.06790123456790123,101.71604938271608,0)" xlink:href="#X"/><use transform="matrix(0.06790123456790123,0,0,0.06790123456790123,108.5061728395062,0)" xlink:href="#af"/></g><path fill="#fff" d="M212-179c-10-28-35-45-73-45-59 0-87 40-87 99 0 60 29 101 89 101 43 0 62-24 78-52l27 14C228-24 195 4 139 4 59 4 22-46 18-125c-6-104 99-153 187-111 19 9 31 26 39 46" id="al"/><g id="l"><use transform="matrix(0.06790123456790123,0,0,0.06790123456790123,0,0)" xlink:href="#al"/><use transform="matrix(0.06790123456790123,0,0,0.06790123456790123,17.586419753086417,0)" xlink:href="#T"/><use transform="matrix(0.06790123456790123,0,0,0.06790123456790123,31.166666666666664,0)" xlink:href="#ad"/><use transform="matrix(0.06790123456790123,0,0,0.06790123456790123,36.53086419753086,0)" xlink:href="#ak"/><use transform="matrix(0.06790123456790123,0,0,0.06790123456790123,48.75308641975308,0)" xlink:href="#aj"/><use transform="matrix(0.06790123456790123,0,0,0.06790123456790123,62.33333333333333,0)" xlink:href="#ad"/><use transform="matrix(0.06790123456790123,0,0,0.06790123456790123,67.69753086419753,0)" xlink:href="#T"/><use transform="matrix(0.06790123456790123,0,0,0.06790123456790123,81.27777777777777,0)" xlink:href="#X"/><use transform="matrix(0.06790123456790123,0,0,0.06790123456790123,88.0679012345679,0)" xlink:href="#Q"/><use transform="matrix(0.06790123456790123,0,0,0.06790123456790123,93.43209876543212,0)" xlink:href="#O"/><use transform="matrix(0.06790123456790123,0,0,0.06790123456790123,107.01234567901236,0)" xlink:href="#R"/></g><g id="m"><use transform="matrix(0.06790123456790123,0,0,0.06790123456790123,0,0)" xlink:href="#S"/><use transform="matrix(0.06790123456790123,0,0,0.06790123456790123,16.296296296296294,0)" xlink:href="#T"/><use transform="matrix(0.06790123456790123,0,0,0.06790123456790123,29.87654320987654,0)" xlink:href="#P"/><use transform="matrix(0.06790123456790123,0,0,0.06790123456790123,43.456790123456784,0)" xlink:href="#U"/></g><path fill="#333" d="M212-179c-10-28-35-45-73-45-59 0-87 40-87 99 0 60 29 101 89 101 43 0 62-24 78-52l27 14C228-24 195 4 139 4 59 4 22-46 18-125c-6-104 99-153 187-111 19 9 31 26 39 46" id="am"/><path fill="#333" d="M233-177c-1 41-23 64-60 70L243 0h-38l-65-103H63V0H30v-248c88 3 205-21 203 71zM63-129c60-2 137 13 137-47 0-61-80-42-137-45v92" id="an"/><path fill="#333" d="M232-93c-1 65-40 97-104 97C67 4 28-28 28-90v-158h33c8 89-33 224 67 224 102 0 64-133 71-224h33v155" id="ao"/><path fill="#333" d="M30-248c118-7 216 8 213 122C240-48 200 0 122 0H30v-248zM63-27c89 8 146-16 146-99s-60-101-146-95v194" id="ap"/><g id="n"><use transform="matrix(0.06172839506172839,0,0,0.06172839506172839,0,0)" xlink:href="#am"/><use transform="matrix(0.06172839506172839,0,0,0.06172839506172839,15.987654320987653,0)" xlink:href="#an"/><use transform="matrix(0.06172839506172839,0,0,0.06172839506172839,31.975308641975307,0)" xlink:href="#ao"/><use transform="matrix(0.06172839506172839,0,0,0.06172839506172839,47.96296296296296,0)" xlink:href="#ap"/></g><path fill="#333" d="M30-248c87 1 191-15 191 75 0 78-77 80-158 76V0H30v-248zm33 125c57 0 124 11 124-50 0-59-68-47-124-48v98" id="aq"/><path fill="#333" d="M114-163C36-179 61-72 57 0H25l-1-190h30c1 12-1 29 2 39 6-27 23-49 58-41v29" id="ar"/><path fill="#333" d="M100-194c62-1 85 37 85 99 1 63-27 99-86 99S16-35 15-95c0-66 28-99 85-99zM99-20c44 1 53-31 53-75 0-43-8-75-51-75s-53 32-53 75 10 74 51 75" id="as"/><path fill="#333" d="M85-194c31 0 48 13 60 33l-1-100h32l1 261h-30c-2-10 0-23-3-31C134-8 116 4 85 4 32 4 16-35 15-94c0-66 23-100 70-100zm9 24c-40 0-46 34-46 75 0 40 6 74 45 74 42 0 51-32 51-76 0-42-9-74-50-73" id="at"/><path fill="#333" d="M84 4C-5 8 30-112 23-190h32v120c0 31 7 50 39 49 72-2 45-101 50-169h31l1 190h-30c-1-10 1-25-2-33-11 22-28 36-60 37" id="au"/><path fill="#333" d="M96-169c-40 0-48 33-48 73s9 75 48 75c24 0 41-14 43-38l32 2c-6 37-31 61-74 61-59 0-76-41-82-99-10-93 101-131 147-64 4 7 5 14 7 22l-32 3c-4-21-16-35-41-35" id="av"/><path fill="#333" d="M59-47c-2 24 18 29 38 22v24C64 9 27 4 27-40v-127H5v-23h24l9-43h21v43h35v23H59v120" id="aw"/><path fill="#333" d="M24-231v-30h32v30H24zM24 0v-190h32V0H24" id="ax"/><path fill="#333" d="M117-194c89-4 53 116 60 194h-32v-121c0-31-8-49-39-48C34-167 62-67 57 0H25l-1-190h30c1 10-1 24 2 32 11-22 29-35 61-36" id="ay"/><g id="o"><use transform="matrix(0.06172839506172839,0,0,0.06172839506172839,0,0)" xlink:href="#aq"/><use transform="matrix(0.06172839506172839,0,0,0.06172839506172839,14.814814814814813,0)" xlink:href="#ar"/><use transform="matrix(0.06172839506172839,0,0,0.06172839506172839,22.160493827160494,0)" xlink:href="#as"/><use transform="matrix(0.06172839506172839,0,0,0.06172839506172839,34.50617283950617,0)" xlink:href="#at"/><use transform="matrix(0.06172839506172839,0,0,0.06172839506172839,46.85185185185185,0)" xlink:href="#au"/><use transform="matrix(0.06172839506172839,0,0,0.06172839506172839,59.197530864197525,0)" xlink:href="#av"/><use transform="matrix(0.06172839506172839,0,0,0.06172839506172839,70.30864197530863,0)" xlink:href="#aw"/><use transform="matrix(0.06172839506172839,0,0,0.06172839506172839,76.48148148148147,0)" xlink:href="#ax"/><use transform="matrix(0.06172839506172839,0,0,0.06172839506172839,81.35802469135801,0)" xlink:href="#as"/><use transform="matrix(0.06172839506172839,0,0,0.06172839506172839,93.7037037037037,0)" xlink:href="#ay"/></g><path fill="#333" d="M205 0l-28-72H64L36 0H1l101-248h38L239 0h-34zm-38-99l-47-123c-12 45-31 82-46 123h93" id="az"/><path fill="#333" d="M210-169c-67 3-38 105-44 169h-31v-121c0-29-5-50-35-48C34-165 62-65 56 0H25l-1-190h30c1 10-1 24 2 32 10-44 99-50 107 0 11-21 27-35 58-36 85-2 47 119 55 194h-31v-121c0-29-5-49-35-48" id="aA"/><g id="p"><use transform="matrix(0.06172839506172839,0,0,0.06172839506172839,0,0)" xlink:href="#az"/><use transform="matrix(0.06172839506172839,0,0,0.06172839506172839,14.814814814814813,0)" xlink:href="#aA"/><use transform="matrix(0.06172839506172839,0,0,0.06172839506172839,33.2716049382716,0)" xlink:href="#as"/><use transform="matrix(0.06172839506172839,0,0,0.06172839506172839,45.61728395061728,0)" xlink:href="#au"/><use transform="matrix(0.06172839506172839,0,0,0.06172839506172839,57.962962962962955,0)" xlink:href="#ay"/><use transform="matrix(0.06172839506172839,0,0,0.06172839506172839,70.30864197530863,0)" xlink:href="#aw"/></g><path fill="#333" d="M115-194c53 0 69 39 70 98 0 66-23 100-70 100C84 3 66-7 56-30L54 0H23l1-261h32v101c10-23 28-34 59-34zm-8 174c40 0 45-34 45-75 0-40-5-75-45-74-42 0-51 32-51 76 0 43 10 73 51 73" id="aB"/><path fill="#333" d="M141-36C126-15 110 5 73 4 37 3 15-17 15-53c-1-64 63-63 125-63 3-35-9-54-41-54-24 1-41 7-42 31l-33-3c5-37 33-52 76-52 45 0 72 20 72 64v82c-1 20 7 32 28 27v20c-31 9-61-2-59-35zM48-53c0 20 12 33 32 33 41-3 63-29 60-74-43 2-92-5-92 41" id="aC"/><path fill="#333" d="M135-143c-3-34-86-38-87 0 15 53 115 12 119 90S17 21 10-45l28-5c4 36 97 45 98 0-10-56-113-15-118-90-4-57 82-63 122-42 12 7 21 19 24 35" id="aD"/><path fill="#333" d="M100-194c63 0 86 42 84 106H49c0 40 14 67 53 68 26 1 43-12 49-29l28 8c-11 28-37 45-77 45C44 4 14-33 15-96c1-61 26-98 85-98zm52 81c6-60-76-77-97-28-3 7-6 17-6 28h103" id="aE"/><g id="q"><use transform="matrix(0.06172839506172839,0,0,0.06172839506172839,0,0)" xlink:href="#aB"/><use transform="matrix(0.06172839506172839,0,0,0.06172839506172839,12.345679012345679,0)" xlink:href="#aC"/><use transform="matrix(0.06172839506172839,0,0,0.06172839506172839,24.691358024691358,0)" xlink:href="#aD"/><use transform="matrix(0.06172839506172839,0,0,0.06172839506172839,35.80246913580247,0)" xlink:href="#aE"/><use transform="matrix(0.06172839506172839,0,0,0.06172839506172839,48.148148148148145,0)" xlink:href="#at"/></g><g id="r"><use transform="matrix(0.06172839506172839,0,0,0.06172839506172839,0,0)" xlink:href="#as"/><use transform="matrix(0.06172839506172839,0,0,0.06172839506172839,12.345679012345679,0)" xlink:href="#ay"/></g><path fill="#333" d="M33 0v-248h34V0H33" id="aF"/><path fill="#333" d="M177-190C167-65 218 103 67 71c-23-6-38-20-44-43l32-5c15 47 100 32 89-28v-30C133-14 115 1 83 1 29 1 15-40 15-95c0-56 16-97 71-98 29-1 48 16 59 35 1-10 0-23 2-32h30zM94-22c36 0 50-32 50-73 0-42-14-75-50-75-39 0-46 34-46 75s6 73 46 73" id="aG"/><g id="s"><use transform="matrix(0.06172839506172839,0,0,0.06172839506172839,0,0)" xlink:href="#aF"/><use transform="matrix(0.06172839506172839,0,0,0.06172839506172839,6.172839506172839,0)" xlink:href="#ay"/><use transform="matrix(0.06172839506172839,0,0,0.06172839506172839,18.51851851851852,0)" xlink:href="#aG"/><use transform="matrix(0.06172839506172839,0,0,0.06172839506172839,30.864197530864196,0)" xlink:href="#ar"/><use transform="matrix(0.06172839506172839,0,0,0.06172839506172839,38.20987654320987,0)" xlink:href="#aE"/><use transform="matrix(0.06172839506172839,0,0,0.06172839506172839,50.55555555555555,0)" xlink:href="#at"/><use transform="matrix(0.06172839506172839,0,0,0.06172839506172839,62.90123456790123,0)" xlink:href="#ax"/><use transform="matrix(0.06172839506172839,0,0,0.06172839506172839,67.77777777777777,0)" xlink:href="#aE"/><use transform="matrix(0.06172839506172839,0,0,0.06172839506172839,80.12345679012346,0)" xlink:href="#ay"/><use transform="matrix(0.06172839506172839,0,0,0.06172839506172839,92.46913580246914,0)" xlink:href="#aw"/><use transform="matrix(0.06172839506172839,0,0,0.06172839506172839,98.64197530864197,0)" xlink:href="#aD"/></g><path fill="#113667" d="M134-16c44-1 70-21 70-64v-142l-32-4v-10h80v10l-30 4v141c0 57-33 84-91 85-58 0-93-26-93-82v-144l-30-4v-10h94v10l-30 4c7 82-31 209 62 206" id="aH"/><path fill="#113667" d="M166-85c3 67-44 102-111 85l1 64 29 4v9H6v-9l21-4v-217c-7-3-22 1-19-12h46l1 9c11-8 26-14 45-14 47 2 64 36 66 85zM56-13c53 14 83-14 78-72 7-53-33-79-78-60v132" id="aI"/><path fill="#113667" d="M13-81c0-71 46-101 114-85l-1-72-28-4v-8h57v238c8 3 24-2 21 12h-47l-2-12C80 23 13-1 13-81zm77-74c-37 1-44 33-45 74 0 38 9 66 45 66 14 0 27-3 36-7v-130c-10-1-24-3-36-3" id="aJ"/><path fill="#113667" d="M32-163c41-10 102-14 102 39v112c8 3 24-2 21 12h-45l-4-17C83 13 3 13 13-46c-2-50 45-50 92-51 4-36-5-70-42-56-6 2-12 4-16 6-4 7 0 23-15 20v-36zM42-47c0 41 41 33 63 22v-59c-34 1-63-1-63 37" id="aK"/><path fill="#113667" d="M54-38c-1 25 24 26 44 20v12C71 10 25 9 25-35v-115H4c-2-14 14-10 21-15l18-38h11v38h38v15H54v112" id="aL"/><path fill="#113667" d="M84-170c49 0 66 33 63 87H46c-8 60 38 80 95 63v10C128-2 108 4 88 4 34 4 14-29 14-84c-1-54 22-86 70-86zm33 73c12-57-57-82-69-24-1 7-2 15-2 24h71" id="aM"/><g id="t"><use transform="matrix(0.06234567901234565,0,0,0.06234567901234565,0,0)" xlink:href="#aH"/><use transform="matrix(0.06234567901234565,0,0,0.06234567901234565,16.147530864197524,0)" xlink:href="#aI"/><use transform="matrix(0.06234567901234565,0,0,0.06234567901234565,27.369753086419742,0)" xlink:href="#aJ"/><use transform="matrix(0.06234567901234565,0,0,0.06234567901234565,38.59197530864196,0)" xlink:href="#aK"/><use transform="matrix(0.06234567901234565,0,0,0.06234567901234565,48.50493827160492,0)" xlink:href="#aL"/><use transform="matrix(0.06234567901234565,0,0,0.06234567901234565,54.739506172839484,0)" xlink:href="#aM"/></g><path fill="#113667" d="M77-14l30 5v9H13v-9l30-5v-208l-30-4v-10h94v10l-30 4v208" id="aN"/><path fill="#113667" d="M125-118c4-37-41-34-68-26v132l23 4v8H8C5-13 21-9 28-12v-141c-7-3-23 1-20-12h47l2 13c31-23 98-29 98 31v109c7 3 23-1 20 12h-72v-8l22-4v-106" id="aO"/><path fill="#113667" d="M164-154L98 4H85L17-153c-7-3-20 0-17-12h77v8l-26 4L99-38l46-115-26-4v-8h61v8" id="aP"/><path fill="#113667" d="M90-170c52 0 76 32 76 87 0 54-24 87-77 87-51 0-75-34-75-87 0-54 24-87 76-87zM89-10c39 0 46-35 46-73 0-39-7-73-46-73-39 1-44 34-44 73s6 72 44 73" id="aQ"/><path fill="#113667" d="M57-145c16-10 35-24 60-25v45c-19 1-8-30-40-17l-20 6v124l29 4v8H7v-8l21-4v-141c-8-3-24 2-21-12h48" id="aR"/><path fill="#113667" d="M161-154L85 37C75 66 49 86 8 75V39c18-2 6 24 29 21 30-4 38-32 47-58L21-153c-7-3-20 0-17-12h77v8l-26 4 45 116 43-116-26-4v-8h62v8" id="aS"/><g id="u"><use transform="matrix(0.06234567901234565,0,0,0.06234567901234565,0,0)" xlink:href="#aN"/><use transform="matrix(0.06234567901234565,0,0,0.06234567901234565,7.419135802469133,0)" xlink:href="#aO"/><use transform="matrix(0.06234567901234565,0,0,0.06234567901234565,18.64135802469135,0)" xlink:href="#aP"/><use transform="matrix(0.06234567901234565,0,0,0.06234567901234565,29.863580246913568,0)" xlink:href="#aM"/><use transform="matrix(0.06234567901234565,0,0,0.06234567901234565,39.77654320987653,0)" xlink:href="#aO"/><use transform="matrix(0.06234567901234565,0,0,0.06234567901234565,50.99876543209875,0)" xlink:href="#aL"/><use transform="matrix(0.06234567901234565,0,0,0.06234567901234565,57.23333333333331,0)" xlink:href="#aQ"/><use transform="matrix(0.06234567901234565,0,0,0.06234567901234565,68.45555555555553,0)" xlink:href="#aR"/><use transform="matrix(0.06234567901234565,0,0,0.06234567901234565,75.87469135802466,0)" xlink:href="#aS"/></g><g id="v"><use transform="matrix(0.06790123456790123,0,0,0.06790123456790123,0,0)" xlink:href="#N"/><use transform="matrix(0.06790123456790123,0,0,0.06790123456790123,13.580246913580247,0)" xlink:href="#O"/><use transform="matrix(0.06790123456790123,0,0,0.06790123456790123,27.160493827160494,0)" xlink:href="#ak"/><use transform="matrix(0.06790123456790123,0,0,0.06790123456790123,39.382716049382715,0)" xlink:href="#T"/><use transform="matrix(0.06790123456790123,0,0,0.06790123456790123,52.96296296296296,0)" xlink:href="#X"/><use transform="matrix(0.06790123456790123,0,0,0.06790123456790123,59.75308641975309,0)" xlink:href="#Q"/><use transform="matrix(0.06790123456790123,0,0,0.06790123456790123,65.11728395061729,0)" xlink:href="#O"/><use transform="matrix(0.06790123456790123,0,0,0.06790123456790123,78.69753086419755,0)" xlink:href="#R"/></g><path fill="#fff" d="M127-220V0H93v-220H8v-28h204v28h-85" id="aT"/><g id="w"><use transform="matrix(0.06790123456790123,0,0,0.06790123456790123,0,0)" xlink:href="#aT"/><use transform="matrix(0.06790123456790123,0,0,0.06790123456790123,13.987654320987655,0)" xlink:href="#Q"/><use transform="matrix(0.06790123456790123,0,0,0.06790123456790123,19.35185185185185,0)" xlink:href="#ab"/><use transform="matrix(0.06790123456790123,0,0,0.06790123456790123,39.654320987654316,0)" xlink:href="#U"/></g><g id="x"><use transform="matrix(0.06790123456790123,0,0,0.06790123456790123,0,0)" xlink:href="#ac"/><use transform="matrix(0.06790123456790123,0,0,0.06790123456790123,17.586419753086417,0)" xlink:href="#T"/><use transform="matrix(0.06790123456790123,0,0,0.06790123456790123,31.166666666666664,0)" xlink:href="#X"/><use transform="matrix(0.06790123456790123,0,0,0.06790123456790123,37.95679012345679,0)" xlink:href="#U"/></g><path fill="#fff" d="M197 0v-115H63V0H30v-248h33v105h134v-105h34V0h-34" id="aU"/><g id="y"><use transform="matrix(0.06790123456790123,0,0,0.06790123456790123,0,0)" xlink:href="#aU"/><use transform="matrix(0.06790123456790123,0,0,0.06790123456790123,17.586419753086417,0)" xlink:href="#O"/><use transform="matrix(0.06790123456790123,0,0,0.06790123456790123,31.166666666666664,0)" xlink:href="#aj"/><use transform="matrix(0.06790123456790123,0,0,0.06790123456790123,44.74691358024691,0)" xlink:href="#Y"/></g><g id="z"><use transform="matrix(0.06790123456790123,0,0,0.06790123456790123,0,0)" xlink:href="#ag"/><use transform="matrix(0.06790123456790123,0,0,0.06790123456790123,19.012345679012345,0)" xlink:href="#Y"/><use transform="matrix(0.06790123456790123,0,0,0.06790123456790123,27.09259259259259,0)" xlink:href="#ah"/><use transform="matrix(0.06790123456790123,0,0,0.06790123456790123,40.672839506172835,0)" xlink:href="#U"/><use transform="matrix(0.06790123456790123,0,0,0.06790123456790123,54.25308641975308,0)" xlink:href="#Y"/></g><g id="A"><use transform="matrix(0.06790123456790123,0,0,0.06790123456790123,0,0)" xlink:href="#ae"/><use transform="matrix(0.06790123456790123,0,0,0.06790123456790123,16.296296296296294,0)" xlink:href="#X"/><use transform="matrix(0.06790123456790123,0,0,0.06790123456790123,23.086419753086417,0)" xlink:href="#T"/><use transform="matrix(0.06790123456790123,0,0,0.06790123456790123,36.666666666666664,0)" xlink:href="#X"/><use transform="matrix(0.06790123456790123,0,0,0.06790123456790123,43.456790123456784,0)" xlink:href="#aj"/><use transform="matrix(0.06790123456790123,0,0,0.06790123456790123,57.03703703703703,0)" xlink:href="#af"/></g><path fill="#333" d="M115-194c55 1 70 41 70 98S169 2 115 4C84 4 66-9 55-30l1 105H24l-1-265h31l2 30c10-21 28-34 59-34zm-8 174c40 0 45-34 45-75s-6-73-45-74c-42 0-51 32-51 76 0 43 10 73 51 73" id="aV"/><g id="B"><use transform="matrix(0.06172839506172839,0,0,0.06172839506172839,0,0)" xlink:href="#ao"/><use transform="matrix(0.06172839506172839,0,0,0.06172839506172839,15.987654320987653,0)" xlink:href="#aV"/><use transform="matrix(0.06172839506172839,0,0,0.06172839506172839,28.333333333333332,0)" xlink:href="#at"/><use transform="matrix(0.06172839506172839,0,0,0.06172839506172839,40.67901234567901,0)" xlink:href="#aC"/><use transform="matrix(0.06172839506172839,0,0,0.06172839506172839,53.02469135802469,0)" xlink:href="#aw"/><use transform="matrix(0.06172839506172839,0,0,0.06172839506172839,59.19753086419753,0)" xlink:href="#aE"/></g><g id="C"><use transform="matrix(0.06790123456790123,0,0,0.06790123456790123,0,0)" xlink:href="#ac"/><use transform="matrix(0.06790123456790123,0,0,0.06790123456790123,17.586419753086417,0)" xlink:href="#U"/><use transform="matrix(0.06790123456790123,0,0,0.06790123456790123,31.166666666666664,0)" xlink:href="#ad"/><use transform="matrix(0.06790123456790123,0,0,0.06790123456790123,36.53086419753086,0)" xlink:href="#Q"/><use transform="matrix(0.06790123456790123,0,0,0.06790123456790123,41.895061728395056,0)" xlink:href="#W"/><use transform="matrix(0.06790123456790123,0,0,0.06790123456790123,54.11728395061728,0)" xlink:href="#U"/><use transform="matrix(0.06790123456790123,0,0,0.06790123456790123,67.69753086419752,0)" xlink:href="#Y"/><use transform="matrix(0.06790123456790123,0,0,0.06790123456790123,75.77777777777777,0)" xlink:href="#Z"/></g><g id="D"><use transform="matrix(0.06790123456790123,0,0,0.06790123456790123,0,0)" xlink:href="#aT"/><use transform="matrix(0.06790123456790123,0,0,0.06790123456790123,13.987654320987655,0)" xlink:href="#Q"/><use transform="matrix(0.06790123456790123,0,0,0.06790123456790123,19.35185185185185,0)" xlink:href="#ab"/><use transform="matrix(0.06790123456790123,0,0,0.06790123456790123,39.654320987654316,0)" xlink:href="#U"/></g><path fill="#fff" d="M234-2c-28 10-62 0-77-18C117 19 8 12 13-65c3-43 29-61 60-76-25-40-17-114 47-108 35 3 59 15 59 50 0 44-40 53-71 69 14 26 32 50 51 72 14-21 24-43 30-72l26 8c-9 33-21 57-38 82 13 13 33 22 57 15v23zM97-151c25-10 52-18 56-48-1-18-13-29-33-29-42 0-39 50-23 77zM42-66c-3 51 71 58 98 28-20-24-41-51-56-80-23 10-40 24-42 52" id="aW"/><use transform="matrix(0.06790123456790123,0,0,0.06790123456790123,0,0)" xlink:href="#aW" id="E"/><g id="F"><use transform="matrix(0.06790123456790123,0,0,0.06790123456790123,0,0)" xlink:href="#N"/><use transform="matrix(0.06790123456790123,0,0,0.06790123456790123,13.580246913580247,0)" xlink:href="#O"/><use transform="matrix(0.06790123456790123,0,0,0.06790123456790123,27.160493827160494,0)" xlink:href="#ak"/><use transform="matrix(0.06790123456790123,0,0,0.06790123456790123,39.382716049382715,0)" xlink:href="#T"/><use transform="matrix(0.06790123456790123,0,0,0.06790123456790123,52.96296296296296,0)" xlink:href="#X"/><use transform="matrix(0.06790123456790123,0,0,0.06790123456790123,59.75308641975309,0)" xlink:href="#Q"/><use transform="matrix(0.06790123456790123,0,0,0.06790123456790123,65.11728395061729,0)" xlink:href="#O"/><use transform="matrix(0.06790123456790123,0,0,0.06790123456790123,78.69753086419755,0)" xlink:href="#R"/></g><path fill="#333" d="M63-220v92h138v28H63V0H30v-248h175v28H63" id="aX"/><path fill="#333" d="M24 0v-261h32V0H24" id="aY"/><g id="G"><use transform="matrix(0.06172839506172839,0,0,0.06172839506172839,0,0)" xlink:href="#aX"/><use transform="matrix(0.06172839506172839,0,0,0.06172839506172839,13.518518518518517,0)" xlink:href="#ax"/><use transform="matrix(0.06172839506172839,0,0,0.06172839506172839,18.39506172839506,0)" xlink:href="#aY"/><use transform="matrix(0.06172839506172839,0,0,0.06172839506172839,23.2716049382716,0)" xlink:href="#aw"/><use transform="matrix(0.06172839506172839,0,0,0.06172839506172839,29.44444444444444,0)" xlink:href="#aE"/><use transform="matrix(0.06172839506172839,0,0,0.06172839506172839,41.79012345679012,0)" xlink:href="#ar"/></g><path fill="#333" d="M234-2c-28 10-62 0-77-18C117 19 8 12 13-65c3-43 29-61 60-76-25-40-17-114 47-108 35 3 59 15 59 50 0 44-40 53-71 69 14 26 32 50 51 72 14-21 24-43 30-72l26 8c-9 33-21 57-38 82 13 13 33 22 57 15v23zM97-151c25-10 52-18 56-48-1-18-13-29-33-29-42 0-39 50-23 77zM42-66c-3 51 71 58 98 28-20-24-41-51-56-80-23 10-40 24-42 52" id="aZ"/><use transform="matrix(0.06172839506172839,0,0,0.06172839506172839,0,0)" xlink:href="#aZ" id="H"/><g id="I"><use transform="matrix(0.06172839506172839,0,0,0.06172839506172839,0,0)" xlink:href="#aD"/><use transform="matrix(0.06172839506172839,0,0,0.06172839506172839,11.11111111111111,0)" xlink:href="#as"/><use transform="matrix(0.06172839506172839,0,0,0.06172839506172839,23.45679012345679,0)" xlink:href="#ar"/><use transform="matrix(0.06172839506172839,0,0,0.06172839506172839,30.80246913580247,0)" xlink:href="#aw"/></g><g id="J"><use transform="matrix(0.06172839506172839,0,0,0.06172839506172839,0,0)" xlink:href="#az"/><use transform="matrix(0.06172839506172839,0,0,0.06172839506172839,14.814814814814813,0)" xlink:href="#at"/><use transform="matrix(0.06172839506172839,0,0,0.06172839506172839,27.160493827160494,0)" xlink:href="#at"/></g><path fill="#333" d="M190 0L58-211 59 0H30v-248h39L202-35l-2-213h31V0h-41" id="ba"/><path fill="#333" d="M206 0h-36l-40-164L89 0H53L-1-190h32L70-26l43-164h34l41 164 42-164h31" id="bb"/><g id="K"><use transform="matrix(0.06172839506172839,0,0,0.06172839506172839,0,0)" xlink:href="#ba"/><use transform="matrix(0.06172839506172839,0,0,0.06172839506172839,15.987654320987653,0)" xlink:href="#aE"/><use transform="matrix(0.06172839506172839,0,0,0.06172839506172839,28.333333333333332,0)" xlink:href="#bb"/></g><g id="L"><use transform="matrix(0.06172839506172839,0,0,0.06172839506172839,0,0)" xlink:href="#az"/><use transform="matrix(0.06172839506172839,0,0,0.06172839506172839,14.814814814814813,0)" xlink:href="#at"/><use transform="matrix(0.06172839506172839,0,0,0.06172839506172839,27.160493827160494,0)" xlink:href="#aA"/><use transform="matrix(0.06172839506172839,0,0,0.06172839506172839,45.61728395061728,0)" xlink:href="#ax"/><use transform="matrix(0.06172839506172839,0,0,0.06172839506172839,50.49382716049382,0)" xlink:href="#ay"/></g><path fill="#333" d="M30 0v-248h33v221h125V0H30" id="bc"/><g id="M"><use transform="matrix(0.06172839506172839,0,0,0.06172839506172839,0,0)" xlink:href="#bc"/><use transform="matrix(0.06172839506172839,0,0,0.06172839506172839,12.345679012345679,0)" xlink:href="#as"/><use transform="matrix(0.06172839506172839,0,0,0.06172839506172839,24.691358024691358,0)" xlink:href="#aG"/><use transform="matrix(0.06172839506172839,0,0,0.06172839506172839,37.03703703703704,0)" xlink:href="#as"/><use transform="matrix(0.06172839506172839,0,0,0.06172839506172839,49.382716049382715,0)" xlink:href="#au"/><use transform="matrix(0.06172839506172839,0,0,0.06172839506172839,61.72839506172839,0)" xlink:href="#aw"/></g></defs></g></svg>