<svg xmlns="http://www.w3.org/2000/svg" xmlns:xlink="http://www.w3.org/1999/xlink" xmlns:lucid="lucid" width="1333.15" height="957.26"><g transform="translate(-300 -120)" lucid:page-tab-id="0_0"><path d="M533.15 286.05c0-4.42 3.58-8 8-8H672c4.42 0 8 3.58 8 8v77.7c0 4.43-3.58 8-8 8H541.15c-4.42 0-8-3.57-8-8z" stroke="#000" stroke-opacity="0" stroke-width="2" fill="#d85656"/><use xlink:href="#a" transform="matrix(1,0,0,1,537.9465527853433,282.8478192796386) translate(20.824074074074073 33.38055555555556)"/><use xlink:href="#b" transform="matrix(1,0,0,1,537.9465527853433,282.8478192796386) translate(40.48148148148148 62.71388888888889)"/><path d="M448 568.62c17.67 0 32 18.4 32 41.07s-14.33 41.06-32 41.06h-96c-17.67 0-32-18.4-32-41.07 0-22.7 14.33-41.08 32-41.08z" stroke="#000" stroke-opacity="0" stroke-width="2" fill="#c54242"/><use xlink:href="#c" transform="matrix(1,0,0,1,324.8,573.424363224997) translate(24.182098765432105 28.59236111111111)"/><use xlink:href="#d" transform="matrix(1,0,0,1,324.8,573.424363224997) translate(41.8012962962963 63.259027777777774)"/><path d="M481 609.7h19.57c3.32 0 6-2.7 6-6V330.9c0-3.3 2.7-6 6-6h2.07" stroke="#5e5e5e" stroke-width="2" fill="none"/><path d="M481.03 610.7h-1.1l.07-1-.05-1h1.08z" fill="#5e5e5e"/><path d="M529.9 324.9l-14.26 4.64v-9.27z" stroke="#5e5e5e" stroke-width="2" fill="#5e5e5e"/><path d="M481 609.7h19.57c3.32 0 6 2.68 6 6v385.16c0 3.3 2.7 6 6 6h2.07" stroke="#5e5e5e" stroke-width="2" fill="none"/><path d="M481.03 610.7h-1.1l.07-1-.05-1h1.08z" fill="#5e5e5e"/><path d="M529.9 1006.86l-14.26 4.63v-9.28z" stroke="#5e5e5e" stroke-width="2" fill="#5e5e5e"/><path d="M533.15 968c0-4.42 3.58-8 8-8H672c4.42 0 8 3.58 8 8v77.7c0 4.43-3.58 8-8 8H541.15c-4.42 0-8-3.57-8-8z" stroke="#000" stroke-opacity="0" stroke-width="2" fill="#d85656"/><use xlink:href="#e" transform="matrix(1,0,0,1,537.9465527853433,964.8) translate(26.935185185185173 33.38055555555556)"/><use xlink:href="#f" transform="matrix(1,0,0,1,537.9465527853433,964.8) translate(54.095679012345684 62.71388888888889)"/><path d="M580 482.9c0-4.4 3.58-8 8-8h130.85c4.42 0 8 3.6 8 8v77.72c0 4.42-3.58 8-8 8H588c-4.42 0-8-3.58-8-8z" stroke="#000" stroke-opacity="0" stroke-width="2" fill="#d85656"/><use xlink:href="#g" transform="matrix(1,0,0,1,584.8,479.71027491527894) translate(24.287037037037035 33.38055555555556)"/><use xlink:href="#b" transform="matrix(1,0,0,1,584.8,479.71027491527894) translate(40.48148148148148 62.71388888888889)"/><path d="M481 609.7h43c3.3 0 6-2.7 6-6v-75.93c0-3.32 2.7-6 6-6h25.5" stroke="#5e5e5e" stroke-width="2" fill="none"/><path d="M481.03 610.7h-1.1l.07-1-.05-1h1.08z" fill="#5e5e5e"/><path d="M576.76 521.77l-14.26 4.63v-9.27z" stroke="#5e5e5e" stroke-width="2" fill="#5e5e5e"/><path d="M580 668c0-4.42 3.58-8 8-8h130.85c4.42 0 8 3.58 8 8v77.7c0 4.43-3.58 8-8 8H588c-4.42 0-8-3.57-8-8z" stroke="#000" stroke-opacity="0" stroke-width="2" fill="#d85656"/><use xlink:href="#h" transform="matrix(1,0,0,1,584.8,664.8) translate(17.42901234567901 33.38055555555556)"/><use xlink:href="#b" transform="matrix(1,0,0,1,584.8,664.8) translate(40.48148148148148 62.71388888888889)"/><path d="M481 609.7h170.15" stroke="#5e5e5e" stroke-width="2" fill="none"/><path d="M481.03 610.7h-1.1l.07-1-.05-1h1.08z" fill="#5e5e5e"/><path d="M657.66 617.1l-12.9-7.65 6.98-6.12z" stroke="#5e5e5e" stroke-width="2" fill="#5e5e5e"/><path d="M740 213.75c0-4.42 3.58-8 8-8h144c4.42 0 8 3.58 8 8v77.72c0 4.4-3.58 8-8 8H748c-4.42 0-8-3.6-8-8z" stroke="#000" stroke-opacity="0" stroke-width="2" fill="#ffc2c2"/><use xlink:href="#i" transform="matrix(1,0,0,1,744.8,210.5525783569486) translate(33.43518518518519 33.38055555555556)"/><use xlink:href="#j" transform="matrix(1,0,0,1,744.8,210.5525783569486) translate(38.25617283950618 62.71388888888889)"/><path d="M681 324.9h23c3.3 0 6-2.68 6-6v-60.3c0-3.3 2.7-6 6-6h5.5" stroke="#5e5e5e" stroke-width="2" fill="none"/><path d="M681.03 325.9H680v-2h1.03z" fill="#5e5e5e"/><path d="M736.76 252.6l-14.26 4.64v-9.27z" stroke="#5e5e5e" stroke-width="2" fill="#5e5e5e"/><path d="M1093.6 271.66c3.53-2.65 9.27-2.65 12.8 0l67.2 50.4c3.53 2.65 3.53 6.95 0 9.6l-67.2 50.4c-3.53 2.65-9.27 2.65-12.8 0l-67.2-50.4c-3.53-2.65-3.53-6.95 0-9.6z" stroke="#ffc2c2" stroke-width="4" fill="#fff"/><use xlink:href="#k" transform="matrix(1,0,0,1,1024.8,271.6570441548591) translate(55.251913580246914 34.852777777777774)"/><use xlink:href="#l" transform="matrix(1,0,0,1,1024.8,271.6570441548591) translate(24.41858024691359 61.519444444444446)"/><use xlink:href="#m" transform="matrix(1,0,0,1,1024.8,271.6570441548591) translate(107.0729012345679 61.519444444444446)"/><use xlink:href="#n" transform="matrix(1,0,0,1,1024.8,271.6570441548591) translate(54.07907407407407 88.1861111111111)"/><path d="M997.55 252.53l2.53 2.53.92 3.42v188l.7 2.64 1.8 1.77 2.63.7h75.37v2h-75.63l-3.42-.9-2.53-2.54-.92-3.42v-188l-.7-2.64-1.8-1.78-2.63-.7H901v-2h93.13z" fill="#5e5e5e"/><path d="M901.03 253.6H900v-2h1.03zM1096.76 452.6l-14.26 4.64v-9.27z" fill="#5e5e5e"/><path d="M1100 452.6l-18.5 6.02V446.6zm-16.5 3.27l10.03-3.26-10.03-3.25z" fill="#5e5e5e"/><path d="M681 324.9h153c3.3 0 6 2.7 6 6v114.62c0 3.3 2.7 6 6 6h153" stroke="#5e5e5e" stroke-width="2" fill="none"/><path d="M681.03 325.9H680v-2h1.03z" fill="#5e5e5e"/><path d="M998.97 451.52h1.03" stroke="#5e5e5e" stroke-width="2" fill="none"/><path d="M1316.93 144.67c3.6-2.58 9.4-2.58 13 0l70.43 50.66c3.6 2.58 3.6 6.76 0 9.34l-70.44 50.66c-3.6 2.58-9.4 2.58-13 0l-70.43-50.66c-3.6-2.58-3.6-6.76 0-9.34z" stroke="#eb6b6b" stroke-width="4" fill="#fff"/><use xlink:href="#o" transform="matrix(1,0,0,1,1244.8,144.8) translate(47.671666666666674 45.259027777777774)"/><use xlink:href="#p" transform="matrix(1,0,0,1,1244.8,144.8) translate(37.177839506172845 71.92569444444443)"/><path d="M1100 266.77V206c0-3.3 2.7-6 6-6h117.4" stroke="#5e5e5e" stroke-width="2" fill="none"/><path d="M1101 267.78l-2-.02v-1h2z" fill="#5e5e5e"/><path d="M1238.67 200l-14.26 4.64v-9.28z" stroke="#5e5e5e" stroke-width="2" fill="#5e5e5e"/><path d="M1316.93 271.53c3.6-2.58 9.4-2.58 13 0l70.43 50.66c3.6 2.57 3.6 6.75 0 9.33l-70.44 50.66c-3.6 2.57-9.4 2.57-13 0l-70.43-50.67c-3.6-2.58-3.6-6.76 0-9.34z" stroke="#eb6b6b" stroke-width="4" fill="#fff"/><use xlink:href="#q" transform="matrix(1,0,0,1,1244.8,271.6570441548591) translate(37.20870370370371 45.259027777777774)"/><use xlink:href="#r" transform="matrix(1,0,0,1,1244.8,271.6570441548591) translate(40.26425925925926 71.92569444444443)"/><path d="M1179.14 326.86h44.27" stroke="#5e5e5e" stroke-width="2" fill="none"/><path d="M1179.17 327.86h-1.07l.08-2h1z" fill="#5e5e5e"/><path d="M1238.67 326.86l-14.26 4.63v-9.28z" stroke="#5e5e5e" stroke-width="2" fill="#5e5e5e"/><path d="M780 482.9c0-4.4 3.58-8 8-8h144c4.42 0 8 3.6 8 8v77.72c0 4.42-3.58 8-8 8H788c-4.42 0-8-3.58-8-8z" stroke="#000" stroke-opacity="0" stroke-width="2" fill="#ffc2c2"/><use xlink:href="#s" transform="matrix(1,0,0,1,784.8,479.71027483702863) translate(34.827160493827165 33.38055555555556)"/><use xlink:href="#t" transform="matrix(1,0,0,1,784.8,479.71027483702863) translate(109.38271604938271 33.38055555555556)"/><use xlink:href="#u" transform="matrix(1,0,0,1,784.8,479.71027483702863) translate(37.50925925925927 62.71388888888889)"/><path d="M727.85 521.77h33.65" stroke="#5e5e5e" stroke-width="2" fill="none"/><path d="M727.88 522.77h-1.03v-2h1.03z" fill="#5e5e5e"/><path d="M776.76 521.77l-14.26 4.63v-9.27z" stroke="#5e5e5e" stroke-width="2" fill="#5e5e5e"/><path d="M1093.6 464.8c3.53-2.65 9.27-2.65 12.8 0l67.2 50.4c3.53 2.65 3.53 6.95 0 9.6l-67.2 50.4c-3.53 2.65-9.27 2.65-12.8 0l-67.2-50.4c-3.53-2.65-3.53-6.95 0-9.6z" stroke="#ffc2c2" stroke-width="4" fill="#fff"/><use xlink:href="#v" transform="matrix(1,0,0,1,1024.8,464.8) translate(47.87537037037037 59.13402777777778)"/><path d="M941 521.77h62.53" stroke="#5e5e5e" stroke-width="2" fill="none"/><path d="M941.03 522.77H940v-2h1.03z" fill="#5e5e5e"/><path d="M1018.8 521.77l-14.27 4.63v-9.27z" stroke="#5e5e5e" stroke-width="2" fill="#5e5e5e"/><path d="M1101 459.9h-2v-23.14h2zm0-49.8h-2v-5.65h2zM1101 460.92l-2-.02v-1h2zM1104.64 403.45h-9.28l4.64-14.27z" fill="#5e5e5e"/><path d="M1106 404.45h-12l6-18.5zm-9.26-2h6.52l-3.26-10.03z" fill="#5e5e5e"/><use xlink:href="#w" transform="matrix(1,0,0,1,1053.1481481481483,410.0951887440962) translate(0 17.777777777777775)"/><path d="M1240 430.04c0-4.42 3.58-8 8-8h144c4.42 0 8 3.58 8 8v68.56c0 4.42-3.58 8-8 8h-144c-4.42 0-8-3.58-8-8z" stroke="#000" stroke-opacity="0" stroke-width="2" fill="#ff8f80"/><use xlink:href="#x" transform="matrix(1,0,0,1,1244.8,426.83571411760306) translate(30.78703703703704 27.443055555555556)"/><use xlink:href="#y" transform="matrix(1,0,0,1,1244.8,426.83571411760306) translate(55.12962962962963 56.776388888888896)"/><path d="M1243.43 530.76c0-4.42 3.58-8 8-8h144c4.42 0 8 3.58 8 8v68.56c0 4.42-3.58 8-8 8h-144c-4.42 0-8-3.58-8-8z" stroke="#000" stroke-opacity="0" stroke-width="2" fill="#ff8f80"/><use xlink:href="#z" transform="matrix(1,0,0,1,1248.2267236073283,527.5578353209035) translate(44.33333333333334 27.443055555555556)"/><use xlink:href="#A" transform="matrix(1,0,0,1,1248.2267236073283,527.5578353209035) translate(37.577160493827165 56.776388888888896)"/><path d="M1179.14 520h23.93c3.3 0 6-2.7 6-6v-49.86c0-3.3 2.7-6 6-6h6.43" stroke="#5e5e5e" stroke-width="2" fill="none"/><path d="M1179.17 521h-1.07l.08-2h1z" fill="#5e5e5e"/><path d="M1236.76 458.14l-14.26 4.64v-9.27z" stroke="#5e5e5e" stroke-width="2" fill="#5e5e5e"/><path d="M1179.14 520h25.64c3.32 0 6 2.7 6 6v34.26c0 3.32 2.7 6 6 6h8.14" stroke="#5e5e5e" stroke-width="2" fill="none"/><path d="M1179.17 521h-1.07l.08-2h1z" fill="#5e5e5e"/><path d="M1240.2 566.26l-14.28 4.64v-9.27z" stroke="#5e5e5e" stroke-width="2" fill="#5e5e5e"/><path d="M829.86 620.54h-170.3l-2.64.72-1.78 1.77-.7 2.65v15.82h-2v-16.1l.9-3.4 2.54-2.53 3.4-.93h170.58zm271.14-6.86l-.92 3.4-2.53 2.54-3.42.92H923.57v-2h170.3l2.64-.7 1.8-1.8.7-2.63v-33.3h2zM1101 579.1v1h-2v-1.02zM653.43 656.76l-4.64-14.26h9.26z" fill="#5e5e5e"/><path d="M653.43 660l-6-18.5h12zm-3.26-16.5l3.26 10.03 3.26-10.03z" fill="#5e5e5e"/><use xlink:href="#w" transform="matrix(1,0,0,1,829.8615099518123,606.2098602509012) translate(0 17.777777777777775)"/><path d="M1161 661.42h277.94c3.32 0 6-2.7 6-6V206c0-3.3-2.68-6-6-6h-15.5" stroke="#5e5e5e" stroke-width="2" fill="none"/><path d="M1161.03 662.42H1160v-2h1.03z" fill="#5e5e5e"/><path d="M1408.18 200l14.27-4.64v9.28z" stroke="#5e5e5e" stroke-width="2" fill="#5e5e5e"/><path d="M917.55 639.92l2.53 2.53.92 3.42v9.4l.7 2.66 1.8 1.77 2.63.72h15.37v2h-15.63l-3.42-.93-2.53-2.54-.92-3.4v-9.43l-.7-2.64-1.8-1.8-2.63-.7h-223.7l-2.64.7-1.77 1.8-.72 2.63V659h-2v-13.13l.93-3.42 2.53-2.53 3.4-.92h224.23z" fill="#5e5e5e"/><path d="M685.04 660h-2v-1.03h2zM956.76 661.42l-14.26 4.63v-9.27z" fill="#5e5e5e"/><path d="M960 661.42l-18.5 6v-12zm-16.5 3.26l10.03-3.26-10.03-3.26z" fill="#5e5e5e"/><path d="M799.72 821v63.4c0 3.3 2.7 6 6 6h42.07" stroke="#5e5e5e" stroke-width="2" fill="none"/><path d="M800.72 821.03h-2V820h2z" fill="#5e5e5e"/><path d="M863.06 890.4l-14.27 4.64v-9.28z" stroke="#5e5e5e" stroke-width="2" fill="#5e5e5e"/><path d="M727.85 706.86h65.87c3.3 0 6 2.68 6 6v48.64" stroke="#5e5e5e" stroke-width="2" fill="none"/><path d="M727.88 707.86h-1.03v-2h1.03z" fill="#5e5e5e"/><path d="M799.72 776.76l-4.64-14.26h9.28z" stroke="#5e5e5e" stroke-width="2" fill="#5e5e5e"/><path d="M727.85 706.86h97.44" stroke="#5e5e5e" stroke-width="2" fill="none"/><path d="M727.88 707.86h-1.03v-2h1.03zM826.3 707.86h-1.03v-2h1.02z" fill="#5e5e5e"/><path d="M753.15 780h93.14v40h-93.15z" fill="#fff" fill-opacity="0"/><use xlink:href="#B" transform="matrix(1,0,0,1,758.1465532146567,785) translate(14.345679012345688 19.715277777777775)"/><path d="M866.3 848c0-4.42 3.57-8 8-8h144c4.4 0 8 3.58 8 8v84.8c0 4.42-3.6 8-8 8h-144c-4.43 0-8-3.58-8-8z" stroke="#000" stroke-opacity="0" stroke-width="2" fill="#ffc2c2"/><use xlink:href="#C" transform="matrix(1,0,0,1,871.093106,844.8000000000001) translate(31.500000000000004 22.755555555555556)"/><use xlink:href="#D" transform="matrix(1,0,0,1,871.093106,844.8000000000001) translate(17.817901234567895 52.088888888888896)"/><use xlink:href="#E" transform="matrix(1,0,0,1,871.093106,844.8000000000001) translate(116.88580246913583 52.088888888888896)"/><use xlink:href="#F" transform="matrix(1,0,0,1,871.093106,844.8000000000001) translate(48.88271604938272 81.42222222222223)"/><path d="M847.3 800h33c3.3 0 6-2.7 6-6v-.2c0-3.3 2.68-6 6-6h15.5" stroke="#5e5e5e" stroke-width="2" fill="none"/><path d="M847.32 801h-1.03v-2h1.02z" fill="#5e5e5e"/><path d="M923.06 787.8l-14.27 4.64v-9.28z" stroke="#5e5e5e" stroke-width="2" fill="#5e5e5e"/><path d="M926.3 773.2c0-4.42 3.57-8 8-8h124c4.4 0 8 3.58 8 8v29.2c0 4.42-3.6 8-8 8h-124c-4.43 0-8-3.58-8-8z" stroke="#000" stroke-opacity="0" stroke-width="2" fill="#ffc2c2"/><use xlink:href="#G" transform="matrix(1,0,0,1,931.0931059999999,770) translate(17.324074074074073 25.005555555555556)"/><path d="M1067.3 787.8h20.64c.72 0 1.3-.58 1.3-1.3 0-.72.58-1.3 1.3-1.3h3.15" stroke="#5e5e5e" stroke-width="2" fill="none"/><path d="M1067.32 788.8h-1.03v-2h1.02z" fill="#5e5e5e"/><path d="M1108.95 785.2l-14.26 4.64v-9.28z" stroke="#5e5e5e" stroke-width="2" fill="#5e5e5e"/><path d="M1112.2 773.2c0-4.42 3.57-8 8-8h138.1c4.4 0 8 3.58 8 8v24c0 4.42-3.6 8-8 8h-138.1c-4.43 0-8-3.58-8-8z" stroke="#000" stroke-opacity="0" stroke-width="2" fill="#ff8f80"/><use xlink:href="#H" transform="matrix(1,0,0,1,1116.989167253458,770) translate(44.015432098765444 24.693055555555556)"/><path d="M1112.2 818.4c0-4.42 3.57-8 8-8h138.1c4.4 0 8 3.58 8 8v24c0 4.42-3.6 8-8 8h-138.1c-4.43 0-8-3.58-8-8z" stroke="#000" stroke-opacity="0" stroke-width="2" fill="#ff8f80"/><use xlink:href="#I" transform="matrix(1,0,0,1,1116.989167253458,815.2) translate(25.003086419753092 24.693055555555556)"/><use xlink:href="#J" transform="matrix(1,0,0,1,1116.989167253458,815.2) translate(77.89814814814815 24.693055555555556)"/><path d="M1067.3 787.8h15.94c3.3 0 6 2.7 6 6v32.15c0 2.46 2 4.45 4.45 4.45" stroke="#5e5e5e" stroke-width="2" fill="none"/><path d="M1067.32 788.8h-1.03v-2h1.02z" fill="#5e5e5e"/><path d="M1108.95 830.4l-14.26 4.64v-9.28z" stroke="#5e5e5e" stroke-width="2" fill="#5e5e5e"/><path d="M826.3 686.86h93.14v40H826.3z" fill="#fff" fill-opacity="0"/><use xlink:href="#K" transform="matrix(1,0,0,1,831.2931060000001,691.8570440766088) translate(25.981481481481485 19.715277777777775)"/><path d="M920.44 706.86H964c3.3 0 6 2.68 6 6V714c0 3.3 2.7 6 6 6h71.8" stroke="#5e5e5e" stroke-width="2" fill="none"/><path d="M920.47 707.86h-1.03v-2h1.03z" fill="#5e5e5e"/><path d="M1063.06 720l-14.27 4.64v-9.28z" stroke="#5e5e5e" stroke-width="2" fill="#5e5e5e"/><path d="M1066.3 708c0-4.42 3.57-8 8-8h184c4.4 0 8 3.58 8 8v24c0 4.42-3.6 8-8 8h-184c-4.43 0-8-3.58-8-8z" stroke="#000" stroke-opacity="0" stroke-width="2" fill="#ffc2c2"/><use xlink:href="#L" transform="matrix(1,0,0,1,1071.093106,704.8) translate(23.59259259259259 24.693055555555556)"/><use xlink:href="#M" transform="matrix(1,0,0,1,1071.093106,704.8) translate(126.66666666666667 24.693055555555556)"/><path d="M1267.3 720h83.95c3.3 0 6 2.7 6 6v8c0 3.3 2.68 6 6 6h66.45" stroke="#5e5e5e" stroke-width="2" fill="none"/><path d="M1267.32 721h-1.03v-2h1.02z" fill="#5e5e5e"/><path d="M1444.97 740l-14.27 4.64v-9.28z" stroke="#5e5e5e" stroke-width="2" fill="#5e5e5e"/><path d="M1267.3 785.2h89.85c3.3 0 6-2.7 6-6V741" stroke="#5e5e5e" stroke-width="2" fill="none"/><path d="M1267.32 786.2h-1.03v-2h1.02z" fill="#5e5e5e"/><path d="M1363.15 741.03V740M1267.3 830.4h89.85c3.3 0 6-2.7 6-6v-38.2" stroke="#5e5e5e" stroke-width="2" fill="none"/><path d="M1267.32 831.4h-1.03v-2h1.02z" fill="#5e5e5e"/><path d="M1363.15 786.23v-1.03M1027.3 890.4h329.85c3.3 0 6-2.7 6-6v-53" stroke="#5e5e5e" stroke-width="2" fill="none"/><path d="M1027.32 891.4h-1.03v-2h1.02z" fill="#5e5e5e"/><path d="M1363.15 831.43v-1.03" stroke="#5e5e5e" stroke-width="2" fill="none"/><path d="M1523.23 684.67c3.58-2.58 9.4-2.58 12.98 0l70.45 50.66c3.6 2.58 3.6 6.76 0 9.34l-70.44 50.66c-3.57 2.58-9.4 2.58-12.97 0l-70.44-50.66c-3.6-2.58-3.6-6.76 0-9.34z" stroke="#eb6b6b" stroke-width="4" fill="#fff"/><g><use xlink:href="#N" transform="matrix(1,0,0,1,1451.093106,684.8) translate(31.622283950617287 59.134027777777774)"/></g><path d="M681 1006.86h80.5" stroke="#5e5e5e" stroke-width="2" fill="none"/><path d="M681.03 1007.86H680v-2h1.03z" fill="#5e5e5e"/><path d="M776.76 1006.86l-14.26 4.63v-9.28z" stroke="#5e5e5e" stroke-width="2" fill="#5e5e5e"/><path d="M780 964.46c0-4.42 3.58-8 8-8h144c4.42 0 8 3.58 8 8v84.8c0 4.42-3.58 8-8 8H788c-4.42 0-8-3.58-8-8z" stroke="#000" stroke-opacity="0" stroke-width="2" fill="#ffc2c2"/><g><use xlink:href="#O" transform="matrix(1,0,0,1,784.8,961.2570440766088) translate(30.753086419753092 37.13055555555556)"/><use xlink:href="#P" transform="matrix(1,0,0,1,784.8,961.2570440766088) translate(83.64814814814815 37.13055555555556)"/><use xlink:href="#Q" transform="matrix(1,0,0,1,784.8,961.2570440766088) translate(19.209876543209884 66.46388888888889)"/><use xlink:href="#R" transform="matrix(1,0,0,1,784.8,961.2570440766088) translate(84.32716049382717 66.46388888888889)"/><use xlink:href="#S" transform="matrix(1,0,0,1,784.8,961.2570440766088) translate(107.41358024691358 66.46388888888889)"/></g><path d="M960 649.42c0-4.42 3.58-8 8-8h184c4.42 0 8 3.58 8 8v24c0 4.42-3.58 8-8 8H968c-4.42 0-8-3.58-8-8z" stroke="#000" stroke-opacity="0" stroke-width="2" fill="#ffc2c2"/><g><use xlink:href="#T" transform="matrix(1,0,0,1,964.8,646.2173228346455) translate(39.24382716049384 24.693055555555556)"/><use xlink:href="#U" transform="matrix(1,0,0,1,964.8,646.2173228346455) translate(92.070987654321 24.693055555555556)"/></g><path d="M1161 661.42h277.94c3.32 0 6-2.7 6-6V332.86c0-3.32-2.68-6-6-6h-15.5" stroke="#5e5e5e" stroke-width="2" fill="none"/><path d="M1161.03 662.42H1160v-2h1.03z" fill="#5e5e5e"/><path d="M1408.18 326.86l14.27-4.64v9.27z" stroke="#5e5e5e" stroke-width="2" fill="#5e5e5e"/><defs><path fill="#fff" d="M30-248c87 1 191-15 191 75 0 78-77 80-158 76V0H30v-248zm33 125c57 0 124 11 124-50 0-59-68-47-124-48v98" id="V"/><path fill="#fff" d="M114-163C36-179 61-72 57 0H25l-1-190h30c1 12-1 29 2 39 6-27 23-49 58-41v29" id="W"/><path fill="#fff" d="M100-194c62-1 85 37 85 99 1 63-27 99-86 99S16-35 15-95c0-66 28-99 85-99zM99-20c44 1 53-31 53-75 0-43-8-75-51-75s-53 32-53 75 10 74 51 75" id="X"/><path fill="#fff" d="M85-194c31 0 48 13 60 33l-1-100h32l1 261h-30c-2-10 0-23-3-31C134-8 116 4 85 4 32 4 16-35 15-94c0-66 23-100 70-100zm9 24c-40 0-46 34-46 75 0 40 6 74 45 74 42 0 51-32 51-76 0-42-9-74-50-73" id="Y"/><path fill="#fff" d="M84 4C-5 8 30-112 23-190h32v120c0 31 7 50 39 49 72-2 45-101 50-169h31l1 190h-30c-1-10 1-25-2-33-11 22-28 36-60 37" id="Z"/><path fill="#fff" d="M96-169c-40 0-48 33-48 73s9 75 48 75c24 0 41-14 43-38l32 2c-6 37-31 61-74 61-59 0-76-41-82-99-10-93 101-131 147-64 4 7 5 14 7 22l-32 3c-4-21-16-35-41-35" id="aa"/><path fill="#fff" d="M59-47c-2 24 18 29 38 22v24C64 9 27 4 27-40v-127H5v-23h24l9-43h21v43h35v23H59v120" id="ab"/><path fill="#fff" d="M135-143c-3-34-86-38-87 0 15 53 115 12 119 90S17 21 10-45l28-5c4 36 97 45 98 0-10-56-113-15-118-90-4-57 82-63 122-42 12 7 21 19 24 35" id="ac"/><g id="a"><use transform="matrix(0.06790123456790123,0,0,0.06790123456790123,0,0)" xlink:href="#V"/><use transform="matrix(0.06790123456790123,0,0,0.06790123456790123,16.296296296296294,0)" xlink:href="#W"/><use transform="matrix(0.06790123456790123,0,0,0.06790123456790123,24.37654320987654,0)" xlink:href="#X"/><use transform="matrix(0.06790123456790123,0,0,0.06790123456790123,37.95679012345679,0)" xlink:href="#Y"/><use transform="matrix(0.06790123456790123,0,0,0.06790123456790123,51.53703703703703,0)" xlink:href="#Z"/><use transform="matrix(0.06790123456790123,0,0,0.06790123456790123,65.11728395061728,0)" xlink:href="#aa"/><use transform="matrix(0.06790123456790123,0,0,0.06790123456790123,77.33950617283949,0)" xlink:href="#ab"/><use transform="matrix(0.06790123456790123,0,0,0.06790123456790123,84.12962962962962,0)" xlink:href="#ac"/></g><path fill="#fff" d="M141-36C126-15 110 5 73 4 37 3 15-17 15-53c-1-64 63-63 125-63 3-35-9-54-41-54-24 1-41 7-42 31l-33-3c5-37 33-52 76-52 45 0 72 20 72 64v82c-1 20 7 32 28 27v20c-31 9-61-2-59-35zM48-53c0 20 12 33 32 33 41-3 63-29 60-74-43 2-92-5-92 41" id="ad"/><path fill="#fff" d="M177-190C167-65 218 103 67 71c-23-6-38-20-44-43l32-5c15 47 100 32 89-28v-30C133-14 115 1 83 1 29 1 15-40 15-95c0-56 16-97 71-98 29-1 48 16 59 35 1-10 0-23 2-32h30zM94-22c36 0 50-32 50-73 0-42-14-75-50-75-39 0-46 34-46 75s6 73 46 73" id="ae"/><path fill="#fff" d="M100-194c63 0 86 42 84 106H49c0 40 14 67 53 68 26 1 43-12 49-29l28 8c-11 28-37 45-77 45C44 4 14-33 15-96c1-61 26-98 85-98zm52 81c6-60-76-77-97-28-3 7-6 17-6 28h103" id="af"/><g id="b"><use transform="matrix(0.06790123456790123,0,0,0.06790123456790123,0,0)" xlink:href="#V"/><use transform="matrix(0.06790123456790123,0,0,0.06790123456790123,16.296296296296294,0)" xlink:href="#ad"/><use transform="matrix(0.06790123456790123,0,0,0.06790123456790123,29.87654320987654,0)" xlink:href="#ae"/><use transform="matrix(0.06790123456790123,0,0,0.06790123456790123,43.456790123456784,0)" xlink:href="#af"/></g><path fill="#fff" d="M30 0v-248h33v221h125V0H30" id="ag"/><path fill="#fff" d="M117-194c89-4 53 116 60 194h-32v-121c0-31-8-49-39-48C34-167 62-67 57 0H25l-1-190h30c1 10-1 24 2 32 11-22 29-35 61-36" id="ah"/><path fill="#fff" d="M24-231v-30h32v30H24zM24 0v-190h32V0H24" id="ai"/><g id="c"><use transform="matrix(0.08024691358024691,0,0,0.08024691358024691,0,0)" xlink:href="#ag"/><use transform="matrix(0.08024691358024691,0,0,0.08024691358024691,16.049382716049383,0)" xlink:href="#ad"/><use transform="matrix(0.08024691358024691,0,0,0.08024691358024691,32.098765432098766,0)" xlink:href="#ah"/><use transform="matrix(0.08024691358024691,0,0,0.08024691358024691,48.14814814814815,0)" xlink:href="#Y"/><use transform="matrix(0.08024691358024691,0,0,0.08024691358024691,64.19753086419753,0)" xlink:href="#ai"/><use transform="matrix(0.08024691358024691,0,0,0.08024691358024691,70.53703703703704,0)" xlink:href="#ah"/><use transform="matrix(0.08024691358024691,0,0,0.08024691358024691,86.58641975308642,0)" xlink:href="#ae"/></g><g id="d"><use transform="matrix(0.08024691358024691,0,0,0.08024691358024691,0,0)" xlink:href="#V"/><use transform="matrix(0.08024691358024691,0,0,0.08024691358024691,19.25925925925926,0)" xlink:href="#ad"/><use transform="matrix(0.08024691358024691,0,0,0.08024691358024691,35.308641975308646,0)" xlink:href="#ae"/><use transform="matrix(0.08024691358024691,0,0,0.08024691358024691,51.358024691358025,0)" xlink:href="#af"/></g><path fill="#fff" d="M212-179c-10-28-35-45-73-45-59 0-87 40-87 99 0 60 29 101 89 101 43 0 62-24 78-52l27 14C228-24 195 4 139 4 59 4 22-46 18-125c-6-104 99-153 187-111 19 9 31 26 39 46" id="aj"/><g id="e"><use transform="matrix(0.06790123456790123,0,0,0.06790123456790123,0,0)" xlink:href="#aj"/><use transform="matrix(0.06790123456790123,0,0,0.06790123456790123,17.586419753086417,0)" xlink:href="#X"/><use transform="matrix(0.06790123456790123,0,0,0.06790123456790123,31.166666666666664,0)" xlink:href="#ah"/><use transform="matrix(0.06790123456790123,0,0,0.06790123456790123,44.74691358024691,0)" xlink:href="#ab"/><use transform="matrix(0.06790123456790123,0,0,0.06790123456790123,51.537037037037045,0)" xlink:href="#ad"/><use transform="matrix(0.06790123456790123,0,0,0.06790123456790123,65.11728395061729,0)" xlink:href="#aa"/><use transform="matrix(0.06790123456790123,0,0,0.06790123456790123,77.33950617283952,0)" xlink:href="#ab"/></g><path fill="#fff" d="M232-93c-1 65-40 97-104 97C67 4 28-28 28-90v-158h33c8 89-33 224 67 224 102 0 64-133 71-224h33v155" id="ak"/><g id="f"><use transform="matrix(0.06790123456790123,0,0,0.06790123456790123,0,0)" xlink:href="#ak"/><use transform="matrix(0.06790123456790123,0,0,0.06790123456790123,17.586419753086417,0)" xlink:href="#ac"/></g><path fill="#fff" d="M240 0l2-218c-23 76-54 145-80 218h-23L58-218 59 0H30v-248h44l77 211c21-75 51-140 76-211h43V0h-30" id="al"/><path fill="#fff" d="M210-169c-67 3-38 105-44 169h-31v-121c0-29-5-50-35-48C34-165 62-65 56 0H25l-1-190h30c1 10-1 24 2 32 10-44 99-50 107 0 11-21 27-35 58-36 85-2 47 119 55 194h-31v-121c0-29-5-49-35-48" id="am"/><path fill="#fff" d="M115-194c53 0 69 39 70 98 0 66-23 100-70 100C84 3 66-7 56-30L54 0H23l1-261h32v101c10-23 28-34 59-34zm-8 174c40 0 45-34 45-75 0-40-5-75-45-74-42 0-51 32-51 76 0 43 10 73 51 73" id="an"/><g id="g"><use transform="matrix(0.06790123456790123,0,0,0.06790123456790123,0,0)" xlink:href="#al"/><use transform="matrix(0.06790123456790123,0,0,0.06790123456790123,20.30246913580247,0)" xlink:href="#af"/><use transform="matrix(0.06790123456790123,0,0,0.06790123456790123,33.882716049382715,0)" xlink:href="#am"/><use transform="matrix(0.06790123456790123,0,0,0.06790123456790123,54.18518518518518,0)" xlink:href="#an"/><use transform="matrix(0.06790123456790123,0,0,0.06790123456790123,67.76543209876543,0)" xlink:href="#af"/><use transform="matrix(0.06790123456790123,0,0,0.06790123456790123,81.34567901234567,0)" xlink:href="#W"/></g><path fill="#fff" d="M106-169C34-169 62-67 57 0H25v-261h32l-1 103c12-21 28-36 61-36 89 0 53 116 60 194h-32v-121c2-32-8-49-39-48" id="ao"/><path fill="#fff" d="M143 0L79-87 56-68V0H24v-261h32v163l83-92h37l-77 82L181 0h-38" id="ap"/><g id="h"><use transform="matrix(0.06790123456790123,0,0,0.06790123456790123,0,0)" xlink:href="#aj"/><use transform="matrix(0.06790123456790123,0,0,0.06790123456790123,17.586419753086417,0)" xlink:href="#ao"/><use transform="matrix(0.06790123456790123,0,0,0.06790123456790123,31.166666666666664,0)" xlink:href="#af"/><use transform="matrix(0.06790123456790123,0,0,0.06790123456790123,44.74691358024691,0)" xlink:href="#aa"/><use transform="matrix(0.06790123456790123,0,0,0.06790123456790123,56.96913580246913,0)" xlink:href="#ap"/><use transform="matrix(0.06790123456790123,0,0,0.06790123456790123,69.19135802469135,0)" xlink:href="#X"/><use transform="matrix(0.06790123456790123,0,0,0.06790123456790123,82.7716049382716,0)" xlink:href="#Z"/><use transform="matrix(0.06790123456790123,0,0,0.06790123456790123,96.35185185185185,0)" xlink:href="#ab"/></g><path fill="#333" d="M30-248c87 1 191-15 191 75 0 78-77 80-158 76V0H30v-248zm33 125c57 0 124 11 124-50 0-59-68-47-124-48v98" id="aq"/><path fill="#333" d="M114-163C36-179 61-72 57 0H25l-1-190h30c1 12-1 29 2 39 6-27 23-49 58-41v29" id="ar"/><path fill="#333" d="M100-194c62-1 85 37 85 99 1 63-27 99-86 99S16-35 15-95c0-66 28-99 85-99zM99-20c44 1 53-31 53-75 0-43-8-75-51-75s-53 32-53 75 10 74 51 75" id="as"/><path fill="#333" d="M85-194c31 0 48 13 60 33l-1-100h32l1 261h-30c-2-10 0-23-3-31C134-8 116 4 85 4 32 4 16-35 15-94c0-66 23-100 70-100zm9 24c-40 0-46 34-46 75 0 40 6 74 45 74 42 0 51-32 51-76 0-42-9-74-50-73" id="at"/><path fill="#333" d="M84 4C-5 8 30-112 23-190h32v120c0 31 7 50 39 49 72-2 45-101 50-169h31l1 190h-30c-1-10 1-25-2-33-11 22-28 36-60 37" id="au"/><path fill="#333" d="M96-169c-40 0-48 33-48 73s9 75 48 75c24 0 41-14 43-38l32 2c-6 37-31 61-74 61-59 0-76-41-82-99-10-93 101-131 147-64 4 7 5 14 7 22l-32 3c-4-21-16-35-41-35" id="av"/><path fill="#333" d="M59-47c-2 24 18 29 38 22v24C64 9 27 4 27-40v-127H5v-23h24l9-43h21v43h35v23H59v120" id="aw"/><g id="i"><use transform="matrix(0.06790123456790123,0,0,0.06790123456790123,0,0)" xlink:href="#aq"/><use transform="matrix(0.06790123456790123,0,0,0.06790123456790123,16.296296296296294,0)" xlink:href="#ar"/><use transform="matrix(0.06790123456790123,0,0,0.06790123456790123,24.37654320987654,0)" xlink:href="#as"/><use transform="matrix(0.06790123456790123,0,0,0.06790123456790123,37.95679012345679,0)" xlink:href="#at"/><use transform="matrix(0.06790123456790123,0,0,0.06790123456790123,51.53703703703703,0)" xlink:href="#au"/><use transform="matrix(0.06790123456790123,0,0,0.06790123456790123,65.11728395061728,0)" xlink:href="#av"/><use transform="matrix(0.06790123456790123,0,0,0.06790123456790123,77.33950617283949,0)" xlink:href="#aw"/></g><path fill="#333" d="M30-248c118-7 216 8 213 122C240-48 200 0 122 0H30v-248zM63-27c89 8 146-16 146-99s-60-101-146-95v194" id="ax"/><path fill="#333" d="M100-194c63 0 86 42 84 106H49c0 40 14 67 53 68 26 1 43-12 49-29l28 8c-11 28-37 45-77 45C44 4 14-33 15-96c1-61 26-98 85-98zm52 81c6-60-76-77-97-28-3 7-6 17-6 28h103" id="ay"/><path fill="#333" d="M141-36C126-15 110 5 73 4 37 3 15-17 15-53c-1-64 63-63 125-63 3-35-9-54-41-54-24 1-41 7-42 31l-33-3c5-37 33-52 76-52 45 0 72 20 72 64v82c-1 20 7 32 28 27v20c-31 9-61-2-59-35zM48-53c0 20 12 33 32 33 41-3 63-29 60-74-43 2-92-5-92 41" id="az"/><path fill="#333" d="M24-231v-30h32v30H24zM24 0v-190h32V0H24" id="aA"/><path fill="#333" d="M24 0v-261h32V0H24" id="aB"/><path fill="#333" d="M135-143c-3-34-86-38-87 0 15 53 115 12 119 90S17 21 10-45l28-5c4 36 97 45 98 0-10-56-113-15-118-90-4-57 82-63 122-42 12 7 21 19 24 35" id="aC"/><g id="j"><use transform="matrix(0.06790123456790123,0,0,0.06790123456790123,0,0)" xlink:href="#ax"/><use transform="matrix(0.06790123456790123,0,0,0.06790123456790123,17.586419753086417,0)" xlink:href="#ay"/><use transform="matrix(0.06790123456790123,0,0,0.06790123456790123,31.166666666666664,0)" xlink:href="#aw"/><use transform="matrix(0.06790123456790123,0,0,0.06790123456790123,37.95679012345679,0)" xlink:href="#az"/><use transform="matrix(0.06790123456790123,0,0,0.06790123456790123,51.53703703703703,0)" xlink:href="#aA"/><use transform="matrix(0.06790123456790123,0,0,0.06790123456790123,56.90123456790123,0)" xlink:href="#aB"/><use transform="matrix(0.06790123456790123,0,0,0.06790123456790123,62.26543209876542,0)" xlink:href="#aC"/></g><path fill="#333" d="M205 0l-28-72H64L36 0H1l101-248h38L239 0h-34zm-38-99l-47-123c-12 45-31 82-46 123h93" id="aD"/><g id="k"><use transform="matrix(0.06172839506172839,0,0,0.06172839506172839,0,0)" xlink:href="#aD"/><use transform="matrix(0.06172839506172839,0,0,0.06172839506172839,14.814814814814813,0)" xlink:href="#at"/><use transform="matrix(0.06172839506172839,0,0,0.06172839506172839,27.160493827160494,0)" xlink:href="#at"/></g><g id="l"><use transform="matrix(0.06172839506172839,0,0,0.06172839506172839,0,0)" xlink:href="#aq"/><use transform="matrix(0.06172839506172839,0,0,0.06172839506172839,14.814814814814813,0)" xlink:href="#ar"/><use transform="matrix(0.06172839506172839,0,0,0.06172839506172839,22.160493827160494,0)" xlink:href="#as"/><use transform="matrix(0.06172839506172839,0,0,0.06172839506172839,34.50617283950617,0)" xlink:href="#at"/><use transform="matrix(0.06172839506172839,0,0,0.06172839506172839,46.85185185185185,0)" xlink:href="#au"/><use transform="matrix(0.06172839506172839,0,0,0.06172839506172839,59.197530864197525,0)" xlink:href="#av"/><use transform="matrix(0.06172839506172839,0,0,0.06172839506172839,70.30864197530863,0)" xlink:href="#aw"/></g><g id="m"><use transform="matrix(0.06172839506172839,0,0,0.06172839506172839,0,0)" xlink:href="#aw"/><use transform="matrix(0.06172839506172839,0,0,0.06172839506172839,6.172839506172839,0)" xlink:href="#as"/></g><path fill="#333" d="M212-179c-10-28-35-45-73-45-59 0-87 40-87 99 0 60 29 101 89 101 43 0 62-24 78-52l27 14C228-24 195 4 139 4 59 4 22-46 18-125c-6-104 99-153 187-111 19 9 31 26 39 46" id="aE"/><g id="n"><use transform="matrix(0.06172839506172839,0,0,0.06172839506172839,0,0)" xlink:href="#aE"/><use transform="matrix(0.06172839506172839,0,0,0.06172839506172839,15.987654320987653,0)" xlink:href="#az"/><use transform="matrix(0.06172839506172839,0,0,0.06172839506172839,28.333333333333332,0)" xlink:href="#ar"/><use transform="matrix(0.06172839506172839,0,0,0.06172839506172839,35.67901234567901,0)" xlink:href="#aw"/></g><path fill="#333" d="M24-231v-30h32v30H24zM-9 49c24 4 33-6 33-30v-209h32V24c2 40-23 58-65 49V49" id="aF"/><g id="o"><use transform="matrix(0.061728395061728385,0,0,0.061728395061728385,0,0)" xlink:href="#aD"/><use transform="matrix(0.061728395061728385,0,0,0.061728395061728385,14.814814814814813,0)" xlink:href="#at"/><use transform="matrix(0.061728395061728385,0,0,0.061728395061728385,27.16049382716049,0)" xlink:href="#aF"/><use transform="matrix(0.061728395061728385,0,0,0.061728395061728385,32.03703703703703,0)" xlink:href="#au"/><use transform="matrix(0.061728395061728385,0,0,0.061728395061728385,44.38271604938271,0)" xlink:href="#aC"/><use transform="matrix(0.061728395061728385,0,0,0.061728395061728385,55.493827160493815,0)" xlink:href="#aw"/></g><path fill="#333" d="M140-251c81 0 123 46 123 126C263-53 228-8 163 1c7 30 30 48 69 40v23c-55 16-95-15-103-61C56-3 17-48 17-125c0-80 42-126 123-126zm0 227c63 0 89-41 89-101s-29-99-89-99c-61 0-89 39-89 99S79-25 140-24" id="aG"/><path fill="#333" d="M117-194c89-4 53 116 60 194h-32v-121c0-31-8-49-39-48C34-167 62-67 57 0H25l-1-190h30c1 10-1 24 2 32 11-22 29-35 61-36" id="aH"/><path fill="#333" d="M179-190L93 31C79 59 56 82 12 73V49c39 6 53-20 64-50L1-190h34L92-34l54-156h33" id="aI"/><g id="p"><use transform="matrix(0.061728395061728385,0,0,0.061728395061728385,0,0)" xlink:href="#aG"/><use transform="matrix(0.061728395061728385,0,0,0.061728395061728385,17.28395061728395,0)" xlink:href="#au"/><use transform="matrix(0.061728395061728385,0,0,0.061728395061728385,29.629629629629626,0)" xlink:href="#az"/><use transform="matrix(0.061728395061728385,0,0,0.061728395061728385,41.9753086419753,0)" xlink:href="#aH"/><use transform="matrix(0.061728395061728385,0,0,0.061728395061728385,54.32098765432098,0)" xlink:href="#aw"/><use transform="matrix(0.061728395061728385,0,0,0.061728395061728385,60.49382716049382,0)" xlink:href="#aA"/><use transform="matrix(0.061728395061728385,0,0,0.061728395061728385,65.37037037037037,0)" xlink:href="#aw"/><use transform="matrix(0.061728395061728385,0,0,0.061728395061728385,71.5432098765432,0)" xlink:href="#aI"/></g><path fill="#333" d="M233-177c-1 41-23 64-60 70L243 0h-38l-65-103H63V0H30v-248c88 3 205-21 203 71zM63-129c60-2 137 13 137-47 0-61-80-42-137-45v92" id="aJ"/><path fill="#333" d="M210-169c-67 3-38 105-44 169h-31v-121c0-29-5-50-35-48C34-165 62-65 56 0H25l-1-190h30c1 10-1 24 2 32 10-44 99-50 107 0 11-21 27-35 58-36 85-2 47 119 55 194h-31v-121c0-29-5-49-35-48" id="aK"/><path fill="#333" d="M108 0H70L1-190h34L89-25l56-165h34" id="aL"/><g id="q"><use transform="matrix(0.061728395061728385,0,0,0.061728395061728385,0,0)" xlink:href="#aJ"/><use transform="matrix(0.061728395061728385,0,0,0.061728395061728385,15.987654320987652,0)" xlink:href="#ay"/><use transform="matrix(0.061728395061728385,0,0,0.061728395061728385,28.33333333333333,0)" xlink:href="#aK"/><use transform="matrix(0.061728395061728385,0,0,0.061728395061728385,46.79012345679011,0)" xlink:href="#as"/><use transform="matrix(0.061728395061728385,0,0,0.061728395061728385,59.13580246913579,0)" xlink:href="#aL"/><use transform="matrix(0.061728395061728385,0,0,0.061728395061728385,70.2469135802469,0)" xlink:href="#ay"/></g><g id="r"><use transform="matrix(0.061728395061728385,0,0,0.061728395061728385,0,0)" xlink:href="#aq"/><use transform="matrix(0.061728395061728385,0,0,0.061728395061728385,14.814814814814813,0)" xlink:href="#ar"/><use transform="matrix(0.061728395061728385,0,0,0.061728395061728385,22.16049382716049,0)" xlink:href="#as"/><use transform="matrix(0.061728395061728385,0,0,0.061728395061728385,34.50617283950616,0)" xlink:href="#at"/><use transform="matrix(0.061728395061728385,0,0,0.061728395061728385,46.85185185185184,0)" xlink:href="#au"/><use transform="matrix(0.061728395061728385,0,0,0.061728395061728385,59.19753086419752,0)" xlink:href="#av"/><use transform="matrix(0.061728395061728385,0,0,0.061728395061728385,70.30864197530863,0)" xlink:href="#aw"/></g><path fill="#333" d="M185-189c-5-48-123-54-124 2 14 75 158 14 163 119 3 78-121 87-175 55-17-10-28-26-33-46l33-7c5 56 141 63 141-1 0-78-155-14-162-118-5-82 145-84 179-34 5 7 8 16 11 25" id="aM"/><path fill="#333" d="M177-190C167-65 218 103 67 71c-23-6-38-20-44-43l32-5c15 47 100 32 89-28v-30C133-14 115 1 83 1 29 1 15-40 15-95c0-56 16-97 71-98 29-1 48 16 59 35 1-10 0-23 2-32h30zM94-22c36 0 50-32 50-73 0-42-14-75-50-75-39 0-46 34-46 75s6 73 46 73" id="aN"/><g id="s"><use transform="matrix(0.06790123456790123,0,0,0.06790123456790123,0,0)" xlink:href="#aM"/><use transform="matrix(0.06790123456790123,0,0,0.06790123456790123,16.296296296296294,0)" xlink:href="#aA"/><use transform="matrix(0.06790123456790123,0,0,0.06790123456790123,21.66049382716049,0)" xlink:href="#aN"/><use transform="matrix(0.06790123456790123,0,0,0.06790123456790123,35.24074074074073,0)" xlink:href="#aH"/><use transform="matrix(0.06790123456790123,0,0,0.06790123456790123,48.82098765432098,0)" xlink:href="#aA"/><use transform="matrix(0.06790123456790123,0,0,0.06790123456790123,54.185185185185176,0)" xlink:href="#aH"/></g><path fill="#333" d="M0 4l72-265h28L28 4H0" id="aO"/><use transform="matrix(0.06790123456790123,0,0,0.06790123456790123,0,0)" xlink:href="#aO" id="t"/><path fill="#333" d="M115-194c55 1 70 41 70 98S169 2 115 4C84 4 66-9 55-30l1 105H24l-1-265h31l2 30c10-21 28-34 59-34zm-8 174c40 0 45-34 45-75s-6-73-45-74c-42 0-51 32-51 76 0 43 10 73 51 73" id="aP"/><g id="u"><use transform="matrix(0.06790123456790123,0,0,0.06790123456790123,0,0)" xlink:href="#aM"/><use transform="matrix(0.06790123456790123,0,0,0.06790123456790123,16.296296296296294,0)" xlink:href="#aA"/><use transform="matrix(0.06790123456790123,0,0,0.06790123456790123,21.66049382716049,0)" xlink:href="#aN"/><use transform="matrix(0.06790123456790123,0,0,0.06790123456790123,35.24074074074073,0)" xlink:href="#aH"/><use transform="matrix(0.06790123456790123,0,0,0.06790123456790123,48.82098765432098,0)" xlink:href="#au"/><use transform="matrix(0.06790123456790123,0,0,0.06790123456790123,62.40123456790122,0)" xlink:href="#aP"/></g><path fill="#333" d="M30 0v-248h33v221h125V0H30" id="aQ"/><g id="v"><use transform="matrix(0.06172839506172839,0,0,0.06172839506172839,0,0)" xlink:href="#aQ"/><use transform="matrix(0.06172839506172839,0,0,0.06172839506172839,12.345679012345679,0)" xlink:href="#as"/><use transform="matrix(0.06172839506172839,0,0,0.06172839506172839,24.691358024691358,0)" xlink:href="#aN"/><use transform="matrix(0.06172839506172839,0,0,0.06172839506172839,37.03703703703704,0)" xlink:href="#aA"/><use transform="matrix(0.06172839506172839,0,0,0.06172839506172839,41.91358024691358,0)" xlink:href="#aH"/></g><path fill="#ff8f80" d="M186-86c2 69-46 103-114 85l1 62 25 4v12H5V65l18-4v-210l-18-5v-11h67v8c12-8 26-13 46-13 49 2 67 30 68 84zm-83 71c28 0 31-33 31-69 0-34-2-66-30-66-12 0-23 3-31 7v124c9 2 20 4 30 4" id="aR"/><path fill="#ff8f80" d="M90-170c54-1 76 32 76 87 1 56-23 87-77 87-53 0-75-32-75-87s23-86 76-87zM89-14c28-2 26-38 26-69s3-69-26-69c-27 0-24 39-24 69s-3 66 24 69" id="aS"/><path fill="#ff8f80" d="M102-142c-14-17-68-15-54 18 24 26 83 17 83 72 0 62-72 62-120 47v-45h12c4 23 16 37 43 37 35 0 39-37 9-46-31-9-65-19-64-61 0-52 59-55 108-45v43h-11" id="aT"/><path fill="#ff8f80" d="M78-41c-2 24 21 26 40 20C122 3 98 2 77 4 5 10 32-84 27-147H6v-11l25-7 21-38h26v38h35v18H78v106" id="aU"/><path fill="#ff8f80" d="M13-69v-31h94v31H13" id="aV"/><path fill="#ff8f80" d="M76-16l18 4V0H7v-12l18-4v-218l-17-4v-12h68v234" id="aW"/><path fill="#ff8f80" d="M9 41c2-18 18-26 32-33C29 1 16-9 16-28l29-33c-21-9-31-25-31-51-2-56 61-65 111-53l39-20c13 12-9 24-14 36 35 54-17 114-90 92-17 34 27 28 56 28 36-1 61 12 60 46-2 46-39 62-91 62-38 0-71-6-76-38zm35-3c6 35 97 29 94-9-2-28-50-14-78-17-8 7-15 14-16 26zm20-150c0 22 4 40 23 40 20 0 24-17 24-40 0-24-4-40-24-40-19 0-23 17-23 40" id="aX"/><path fill="#ff8f80" d="M77-16l18 4V0H8v-12l18-4v-133l-17-5v-11h68v149zM51-196c-16 0-27-10-27-27s10-27 27-27 27 11 27 27c0 17-10 27-27 27" id="aY"/><path fill="#ff8f80" d="M127-114c3-31-26-38-50-25v123l15 4V0H10v-12l16-4v-133l-16-5v-11h64l2 14c31-23 102-32 102 30v105l17 4V0h-82v-12l14-4v-98" id="aZ"/><g id="w"><use transform="matrix(0.061728395061728385,0,0,0.061728395061728385,0,0)" xlink:href="#aR"/><use transform="matrix(0.061728395061728385,0,0,0.061728395061728385,12.345679012345677,0)" xlink:href="#aS"/><use transform="matrix(0.061728395061728385,0,0,0.061728395061728385,23.456790123456784,0)" xlink:href="#aT"/><use transform="matrix(0.061728395061728385,0,0,0.061728395061728385,32.09876543209876,0)" xlink:href="#aU"/><use transform="matrix(0.061728395061728385,0,0,0.061728395061728385,39.444444444444436,0)" xlink:href="#aV"/><use transform="matrix(0.061728395061728385,0,0,0.061728395061728385,46.79012345679011,0)" xlink:href="#aW"/><use transform="matrix(0.061728395061728385,0,0,0.061728395061728385,52.96296296296295,0)" xlink:href="#aS"/><use transform="matrix(0.061728395061728385,0,0,0.061728395061728385,64.07407407407406,0)" xlink:href="#aX"/><use transform="matrix(0.061728395061728385,0,0,0.061728395061728385,75.18518518518518,0)" xlink:href="#aY"/><use transform="matrix(0.061728395061728385,0,0,0.061728395061728385,81.35802469135801,0)" xlink:href="#aZ"/></g><g id="x"><use transform="matrix(0.06790123456790123,0,0,0.06790123456790123,0,0)" xlink:href="#al"/><use transform="matrix(0.06790123456790123,0,0,0.06790123456790123,20.30246913580247,0)" xlink:href="#af"/><use transform="matrix(0.06790123456790123,0,0,0.06790123456790123,33.882716049382715,0)" xlink:href="#am"/><use transform="matrix(0.06790123456790123,0,0,0.06790123456790123,54.18518518518518,0)" xlink:href="#an"/><use transform="matrix(0.06790123456790123,0,0,0.06790123456790123,67.76543209876543,0)" xlink:href="#af"/><use transform="matrix(0.06790123456790123,0,0,0.06790123456790123,81.34567901234567,0)" xlink:href="#W"/></g><path fill="#fff" d="M33 0v-248h34V0H33" id="ba"/><path fill="#fff" d="M101-234c-31-9-42 10-38 44h38v23H63V0H32v-167H5v-23h27c-7-52 17-82 69-68v24" id="bb"/><g id="y"><use transform="matrix(0.06790123456790123,0,0,0.06790123456790123,0,0)" xlink:href="#ba"/><use transform="matrix(0.06790123456790123,0,0,0.06790123456790123,6.790123456790123,0)" xlink:href="#ah"/><use transform="matrix(0.06790123456790123,0,0,0.06790123456790123,20.37037037037037,0)" xlink:href="#bb"/><use transform="matrix(0.06790123456790123,0,0,0.06790123456790123,27.160493827160494,0)" xlink:href="#X"/></g><path fill="#fff" d="M140-251c81 0 123 46 123 126C263-46 219 4 140 4 59 4 17-45 17-125s42-126 123-126zm0 227c63 0 89-41 89-101s-29-99-89-99c-61 0-89 39-89 99S79-25 140-24" id="bc"/><g id="z"><use transform="matrix(0.06790123456790123,0,0,0.06790123456790123,0,0)" xlink:href="#bc"/><use transform="matrix(0.06790123456790123,0,0,0.06790123456790123,19.012345679012345,0)" xlink:href="#W"/><use transform="matrix(0.06790123456790123,0,0,0.06790123456790123,27.09259259259259,0)" xlink:href="#Y"/><use transform="matrix(0.06790123456790123,0,0,0.06790123456790123,40.672839506172835,0)" xlink:href="#af"/><use transform="matrix(0.06790123456790123,0,0,0.06790123456790123,54.25308641975308,0)" xlink:href="#W"/></g><path fill="#fff" d="M197 0v-115H63V0H30v-248h33v105h134v-105h34V0h-34" id="bd"/><path fill="#fff" d="M179-190L93 31C79 59 56 82 12 73V49c39 6 53-20 64-50L1-190h34L92-34l54-156h33" id="be"/><g id="A"><use transform="matrix(0.06790123456790123,0,0,0.06790123456790123,0,0)" xlink:href="#bd"/><use transform="matrix(0.06790123456790123,0,0,0.06790123456790123,17.586419753086417,0)" xlink:href="#ai"/><use transform="matrix(0.06790123456790123,0,0,0.06790123456790123,22.950617283950614,0)" xlink:href="#ac"/><use transform="matrix(0.06790123456790123,0,0,0.06790123456790123,35.172839506172835,0)" xlink:href="#ab"/><use transform="matrix(0.06790123456790123,0,0,0.06790123456790123,41.96296296296296,0)" xlink:href="#X"/><use transform="matrix(0.06790123456790123,0,0,0.06790123456790123,55.54320987654321,0)" xlink:href="#W"/><use transform="matrix(0.06790123456790123,0,0,0.06790123456790123,63.623456790123456,0)" xlink:href="#be"/></g><path fill="#ff8f80" d="M185-72C185 13 82 14 19-9v-63h16c2 37 21 58 61 58 46 0 69-51 31-71-42-23-106-23-106-90 0-69 87-70 148-56v56h-16l-7-32c-26-25-110-13-82 35 39 34 121 26 121 100" id="bf"/><path fill="#ff8f80" d="M12-83c0-55 22-85 75-86 52-1 66 33 63 88H64c-1 37 6 64 44 63 14 0 28-4 39-6 3 28-28 25-55 27-57 4-80-31-80-86zm90-17c2-26 0-63-27-48-10 9-11 28-11 48h38" id="bg"/><path fill="#ff8f80" d="M109-18c15 0 31-2 42-6v14c-11 9-31 13-51 13-59 0-86-28-88-86-3-75 66-101 135-80v48h-13c-3-20-7-40-34-37-51 7-55 138 9 134" id="bh"/><g id="B"><use transform="matrix(0.061728395061728385,0,0,0.061728395061728385,0,0)" xlink:href="#bf"/><use transform="matrix(0.061728395061728385,0,0,0.061728395061728385,12.345679012345677,0)" xlink:href="#bg"/><use transform="matrix(0.061728395061728385,0,0,0.061728395061728385,22.16049382716049,0)" xlink:href="#aW"/><use transform="matrix(0.061728395061728385,0,0,0.061728395061728385,28.33333333333333,0)" xlink:href="#bg"/><use transform="matrix(0.061728395061728385,0,0,0.061728395061728385,38.14814814814814,0)" xlink:href="#bh"/><use transform="matrix(0.061728395061728385,0,0,0.061728395061728385,47.96296296296295,0)" xlink:href="#aU"/></g><path fill="#5e5e5e" d="M30-248c118-7 216 8 213 122C240-48 200 0 122 0H30v-248zM63-27c89 8 146-16 146-99s-60-101-146-95v194" id="bi"/><path fill="#5e5e5e" d="M100-194c63 0 86 42 84 106H49c0 40 14 67 53 68 26 1 43-12 49-29l28 8c-11 28-37 45-77 45C44 4 14-33 15-96c1-61 26-98 85-98zm52 81c6-60-76-77-97-28-3 7-6 17-6 28h103" id="bj"/><path fill="#5e5e5e" d="M24 0v-261h32V0H24" id="bk"/><path fill="#5e5e5e" d="M24-231v-30h32v30H24zM24 0v-190h32V0H24" id="bl"/><path fill="#5e5e5e" d="M108 0H70L1-190h34L89-25l56-165h34" id="bm"/><path fill="#5e5e5e" d="M114-163C36-179 61-72 57 0H25l-1-190h30c1 12-1 29 2 39 6-27 23-49 58-41v29" id="bn"/><path fill="#5e5e5e" d="M179-190L93 31C79 59 56 82 12 73V49c39 6 53-20 64-50L1-190h34L92-34l54-156h33" id="bo"/><g id="C"><use transform="matrix(0.06790123456790123,0,0,0.06790123456790123,0,0)" xlink:href="#bi"/><use transform="matrix(0.06790123456790123,0,0,0.06790123456790123,17.586419753086417,0)" xlink:href="#bj"/><use transform="matrix(0.06790123456790123,0,0,0.06790123456790123,31.166666666666664,0)" xlink:href="#bk"/><use transform="matrix(0.06790123456790123,0,0,0.06790123456790123,36.53086419753086,0)" xlink:href="#bl"/><use transform="matrix(0.06790123456790123,0,0,0.06790123456790123,41.895061728395056,0)" xlink:href="#bm"/><use transform="matrix(0.06790123456790123,0,0,0.06790123456790123,54.11728395061728,0)" xlink:href="#bj"/><use transform="matrix(0.06790123456790123,0,0,0.06790123456790123,67.69753086419752,0)" xlink:href="#bn"/><use transform="matrix(0.06790123456790123,0,0,0.06790123456790123,75.77777777777777,0)" xlink:href="#bo"/></g><path fill="#5e5e5e" d="M30 0v-248h33v221h125V0H30" id="bp"/><path fill="#5e5e5e" d="M100-194c62-1 85 37 85 99 1 63-27 99-86 99S16-35 15-95c0-66 28-99 85-99zM99-20c44 1 53-31 53-75 0-43-8-75-51-75s-53 32-53 75 10 74 51 75" id="bq"/><path fill="#5e5e5e" d="M96-169c-40 0-48 33-48 73s9 75 48 75c24 0 41-14 43-38l32 2c-6 37-31 61-74 61-59 0-76-41-82-99-10-93 101-131 147-64 4 7 5 14 7 22l-32 3c-4-21-16-35-41-35" id="br"/><path fill="#5e5e5e" d="M141-36C126-15 110 5 73 4 37 3 15-17 15-53c-1-64 63-63 125-63 3-35-9-54-41-54-24 1-41 7-42 31l-33-3c5-37 33-52 76-52 45 0 72 20 72 64v82c-1 20 7 32 28 27v20c-31 9-61-2-59-35zM48-53c0 20 12 33 32 33 41-3 63-29 60-74-43 2-92-5-92 41" id="bs"/><path fill="#5e5e5e" d="M59-47c-2 24 18 29 38 22v24C64 9 27 4 27-40v-127H5v-23h24l9-43h21v43h35v23H59v120" id="bt"/><path fill="#5e5e5e" d="M117-194c89-4 53 116 60 194h-32v-121c0-31-8-49-39-48C34-167 62-67 57 0H25l-1-190h30c1 10-1 24 2 32 11-22 29-35 61-36" id="bu"/><g id="D"><use transform="matrix(0.06790123456790123,0,0,0.06790123456790123,0,0)" xlink:href="#bp"/><use transform="matrix(0.06790123456790123,0,0,0.06790123456790123,13.580246913580247,0)" xlink:href="#bq"/><use transform="matrix(0.06790123456790123,0,0,0.06790123456790123,27.160493827160494,0)" xlink:href="#br"/><use transform="matrix(0.06790123456790123,0,0,0.06790123456790123,39.382716049382715,0)" xlink:href="#bs"/><use transform="matrix(0.06790123456790123,0,0,0.06790123456790123,52.96296296296296,0)" xlink:href="#bt"/><use transform="matrix(0.06790123456790123,0,0,0.06790123456790123,59.75308641975309,0)" xlink:href="#bl"/><use transform="matrix(0.06790123456790123,0,0,0.06790123456790123,65.11728395061729,0)" xlink:href="#bq"/><use transform="matrix(0.06790123456790123,0,0,0.06790123456790123,78.69753086419755,0)" xlink:href="#bu"/></g><path fill="#5e5e5e" d="M234-2c-28 10-62 0-77-18C117 19 8 12 13-65c3-43 29-61 60-76-25-40-17-114 47-108 35 3 59 15 59 50 0 44-40 53-71 69 14 26 32 50 51 72 14-21 24-43 30-72l26 8c-9 33-21 57-38 82 13 13 33 22 57 15v23zM97-151c25-10 52-18 56-48-1-18-13-29-33-29-42 0-39 50-23 77zM42-66c-3 51 71 58 98 28-20-24-41-51-56-80-23 10-40 24-42 52" id="bv"/><use transform="matrix(0.06790123456790123,0,0,0.06790123456790123,0,0)" xlink:href="#bv" id="E"/><path fill="#5e5e5e" d="M127-220V0H93v-220H8v-28h204v28h-85" id="bw"/><path fill="#5e5e5e" d="M210-169c-67 3-38 105-44 169h-31v-121c0-29-5-50-35-48C34-165 62-65 56 0H25l-1-190h30c1 10-1 24 2 32 10-44 99-50 107 0 11-21 27-35 58-36 85-2 47 119 55 194h-31v-121c0-29-5-49-35-48" id="bx"/><g id="F"><use transform="matrix(0.06790123456790123,0,0,0.06790123456790123,0,0)" xlink:href="#bw"/><use transform="matrix(0.06790123456790123,0,0,0.06790123456790123,13.987654320987655,0)" xlink:href="#bl"/><use transform="matrix(0.06790123456790123,0,0,0.06790123456790123,19.35185185185185,0)" xlink:href="#bx"/><use transform="matrix(0.06790123456790123,0,0,0.06790123456790123,39.654320987654316,0)" xlink:href="#bj"/></g><path fill="#5e5e5e" d="M30-248c87 1 191-15 191 75 0 78-77 80-158 76V0H30v-248zm33 125c57 0 124 11 124-50 0-59-68-47-124-48v98" id="by"/><g id="G"><use transform="matrix(0.06790123456790123,0,0,0.06790123456790123,0,0)" xlink:href="#by"/><use transform="matrix(0.06790123456790123,0,0,0.06790123456790123,16.296296296296294,0)" xlink:href="#bs"/><use transform="matrix(0.06790123456790123,0,0,0.06790123456790123,29.87654320987654,0)" xlink:href="#bo"/><use transform="matrix(0.06790123456790123,0,0,0.06790123456790123,42.09876543209876,0)" xlink:href="#bx"/><use transform="matrix(0.06790123456790123,0,0,0.06790123456790123,62.40123456790122,0)" xlink:href="#bj"/><use transform="matrix(0.06790123456790123,0,0,0.06790123456790123,75.98148148148147,0)" xlink:href="#bu"/><use transform="matrix(0.06790123456790123,0,0,0.06790123456790123,89.56172839506172,0)" xlink:href="#bt"/></g><g id="H"><use transform="matrix(0.06790123456790123,0,0,0.06790123456790123,0,0)" xlink:href="#aj"/><use transform="matrix(0.06790123456790123,0,0,0.06790123456790123,17.586419753086417,0)" xlink:href="#ad"/><use transform="matrix(0.06790123456790123,0,0,0.06790123456790123,31.166666666666664,0)" xlink:href="#ac"/><use transform="matrix(0.06790123456790123,0,0,0.06790123456790123,43.388888888888886,0)" xlink:href="#ao"/></g><g id="I"><use transform="matrix(0.06790123456790123,0,0,0.06790123456790123,0,0)" xlink:href="#ag"/><use transform="matrix(0.06790123456790123,0,0,0.06790123456790123,13.580246913580247,0)" xlink:href="#ai"/><use transform="matrix(0.06790123456790123,0,0,0.06790123456790123,18.944444444444443,0)" xlink:href="#ah"/><use transform="matrix(0.06790123456790123,0,0,0.06790123456790123,32.52469135802469,0)" xlink:href="#af"/></g><g id="J"><use transform="matrix(0.06790123456790123,0,0,0.06790123456790123,0,0)" xlink:href="#V"/><use transform="matrix(0.06790123456790123,0,0,0.06790123456790123,16.296296296296294,0)" xlink:href="#ad"/><use transform="matrix(0.06790123456790123,0,0,0.06790123456790123,29.87654320987654,0)" xlink:href="#be"/></g><path fill="#ff8f80" d="M92-101v83l39 5V0H8v-13l28-5v-200l-30-5v-13h197v64h-17l-5-42c-27-3-59-2-89-2v96h57l6-30h15v80h-15l-6-31H92" id="bz"/><g id="K"><use transform="matrix(0.061728395061728385,0,0,0.061728395061728385,0,0)" xlink:href="#bz"/><use transform="matrix(0.061728395061728385,0,0,0.061728395061728385,13.518518518518515,0)" xlink:href="#aY"/><use transform="matrix(0.061728395061728385,0,0,0.061728395061728385,19.691358024691354,0)" xlink:href="#aW"/><use transform="matrix(0.061728395061728385,0,0,0.061728395061728385,25.864197530864192,0)" xlink:href="#aW"/></g><path fill="#5e5e5e" d="M135-143c-3-34-86-38-87 0 15 53 115 12 119 90S17 21 10-45l28-5c4 36 97 45 98 0-10-56-113-15-118-90-4-57 82-63 122-42 12 7 21 19 24 35" id="bA"/><g id="L"><use transform="matrix(0.06790123456790123,0,0,0.06790123456790123,0,0)" xlink:href="#by"/><use transform="matrix(0.06790123456790123,0,0,0.06790123456790123,16.296296296296294,0)" xlink:href="#bj"/><use transform="matrix(0.06790123456790123,0,0,0.06790123456790123,29.87654320987654,0)" xlink:href="#bn"/><use transform="matrix(0.06790123456790123,0,0,0.06790123456790123,37.95679012345679,0)" xlink:href="#bA"/><use transform="matrix(0.06790123456790123,0,0,0.06790123456790123,50.179012345679,0)" xlink:href="#bq"/><use transform="matrix(0.06790123456790123,0,0,0.06790123456790123,63.75925925925925,0)" xlink:href="#bu"/><use transform="matrix(0.06790123456790123,0,0,0.06790123456790123,77.33950617283949,0)" xlink:href="#bs"/><use transform="matrix(0.06790123456790123,0,0,0.06790123456790123,90.91975308641975,0)" xlink:href="#bk"/></g><path fill="#5e5e5e" d="M33 0v-248h34V0H33" id="bB"/><path fill="#5e5e5e" d="M101-234c-31-9-42 10-38 44h38v23H63V0H32v-167H5v-23h27c-7-52 17-82 69-68v24" id="bC"/><g id="M"><use transform="matrix(0.06790123456790123,0,0,0.06790123456790123,0,0)" xlink:href="#bB"/><use transform="matrix(0.06790123456790123,0,0,0.06790123456790123,6.790123456790123,0)" xlink:href="#bu"/><use transform="matrix(0.06790123456790123,0,0,0.06790123456790123,20.37037037037037,0)" xlink:href="#bC"/><use transform="matrix(0.06790123456790123,0,0,0.06790123456790123,27.160493827160494,0)" xlink:href="#bq"/></g><path fill="#333" d="M106-169C34-169 62-67 57 0H25v-261h32l-1 103c12-21 28-36 61-36 89 0 53 116 60 194h-32v-121c2-32-8-49-39-48" id="bD"/><path fill="#333" d="M143 0L79-87 56-68V0H24v-261h32v163l83-92h37l-77 82L181 0h-38" id="bE"/><g id="N"><use transform="matrix(0.061728395061728385,0,0,0.061728395061728385,0,0)" xlink:href="#aE"/><use transform="matrix(0.061728395061728385,0,0,0.061728395061728385,15.987654320987652,0)" xlink:href="#bD"/><use transform="matrix(0.061728395061728385,0,0,0.061728395061728385,28.33333333333333,0)" xlink:href="#ay"/><use transform="matrix(0.061728395061728385,0,0,0.061728395061728385,40.679012345679006,0)" xlink:href="#av"/><use transform="matrix(0.061728395061728385,0,0,0.061728395061728385,51.79012345679011,0)" xlink:href="#bE"/><use transform="matrix(0.061728395061728385,0,0,0.061728395061728385,62.90123456790122,0)" xlink:href="#as"/><use transform="matrix(0.061728395061728385,0,0,0.061728395061728385,75.2469135802469,0)" xlink:href="#au"/><use transform="matrix(0.061728395061728385,0,0,0.061728395061728385,87.59259259259258,0)" xlink:href="#aw"/></g><g id="O"><use transform="matrix(0.06790123456790123,0,0,0.06790123456790123,0,0)" xlink:href="#bp"/><use transform="matrix(0.06790123456790123,0,0,0.06790123456790123,13.580246913580247,0)" xlink:href="#bl"/><use transform="matrix(0.06790123456790123,0,0,0.06790123456790123,18.944444444444443,0)" xlink:href="#bu"/><use transform="matrix(0.06790123456790123,0,0,0.06790123456790123,32.52469135802469,0)" xlink:href="#bj"/></g><path fill="#5e5e5e" d="M140-251c81 0 123 46 123 126C263-53 228-8 163 1c7 30 30 48 69 40v23c-55 16-95-15-103-61C56-3 17-48 17-125c0-80 42-126 123-126zm0 227c63 0 89-41 89-101s-29-99-89-99c-61 0-89 39-89 99S79-25 140-24" id="bF"/><path fill="#5e5e5e" d="M233-177c-1 41-23 64-60 70L243 0h-38l-65-103H63V0H30v-248c88 3 205-21 203 71zM63-129c60-2 137 13 137-47 0-61-80-42-137-45v92" id="bG"/><g id="P"><use transform="matrix(0.06790123456790123,0,0,0.06790123456790123,0,0)" xlink:href="#bF"/><use transform="matrix(0.06790123456790123,0,0,0.06790123456790123,19.012345679012345,0)" xlink:href="#bG"/></g><path fill="#5e5e5e" d="M212-179c-10-28-35-45-73-45-59 0-87 40-87 99 0 60 29 101 89 101 43 0 62-24 78-52l27 14C228-24 195 4 139 4 59 4 22-46 18-125c-6-104 99-153 187-111 19 9 31 26 39 46" id="bH"/><path fill="#5e5e5e" d="M85-194c31 0 48 13 60 33l-1-100h32l1 261h-30c-2-10 0-23-3-31C134-8 116 4 85 4 32 4 16-35 15-94c0-66 23-100 70-100zm9 24c-40 0-46 34-46 75 0 40 6 74 45 74 42 0 51-32 51-76 0-42-9-74-50-73" id="bI"/><g id="Q"><use transform="matrix(0.06790123456790123,0,0,0.06790123456790123,0,0)" xlink:href="#bH"/><use transform="matrix(0.06790123456790123,0,0,0.06790123456790123,17.586419753086417,0)" xlink:href="#bq"/><use transform="matrix(0.06790123456790123,0,0,0.06790123456790123,31.166666666666664,0)" xlink:href="#bI"/><use transform="matrix(0.06790123456790123,0,0,0.06790123456790123,44.74691358024691,0)" xlink:href="#bj"/></g><use transform="matrix(0.06790123456790123,0,0,0.06790123456790123,0,0)" xlink:href="#bv" id="R"/><g id="S"><use transform="matrix(0.06790123456790123,0,0,0.06790123456790123,0,0)" xlink:href="#bB"/><use transform="matrix(0.06790123456790123,0,0,0.06790123456790123,6.790123456790123,0)" xlink:href="#bi"/></g><g id="T"><use transform="matrix(0.06790123456790123,0,0,0.06790123456790123,0,0)" xlink:href="#bH"/><use transform="matrix(0.06790123456790123,0,0,0.06790123456790123,17.586419753086417,0)" xlink:href="#bs"/><use transform="matrix(0.06790123456790123,0,0,0.06790123456790123,31.166666666666664,0)" xlink:href="#bn"/><use transform="matrix(0.06790123456790123,0,0,0.06790123456790123,39.24691358024691,0)" xlink:href="#bt"/></g><g id="U"><use transform="matrix(0.06790123456790123,0,0,0.06790123456790123,0,0)" xlink:href="#bB"/><use transform="matrix(0.06790123456790123,0,0,0.06790123456790123,6.790123456790123,0)" xlink:href="#bt"/><use transform="matrix(0.06790123456790123,0,0,0.06790123456790123,13.580246913580247,0)" xlink:href="#bj"/><use transform="matrix(0.06790123456790123,0,0,0.06790123456790123,27.160493827160494,0)" xlink:href="#bx"/><use transform="matrix(0.06790123456790123,0,0,0.06790123456790123,47.46296296296296,0)" xlink:href="#bA"/></g></defs></g></svg>